G04 #@! TF.FileFunction,Copper,L2,Bot,Signal*
%FSLAX46Y46*%
G04 Gerber Fmt 4.6, Leading zero omitted, Abs format (unit mm)*
G04 Created by KiCad (PCBNEW 4.0.7) date 05/12/18 01:40:03*
%MOMM*%
%LPD*%
G01*
G04 APERTURE LIST*
%ADD10C,0.100000*%
%ADD11C,2.540000*%
%ADD12C,1.524000*%
%ADD13R,1.700000X1.700000*%
%ADD14O,1.700000X1.700000*%
%ADD15C,2.200000*%
%ADD16C,2.000000*%
%ADD17O,1.727200X1.727200*%
%ADD18C,0.600000*%
%ADD19C,0.609600*%
%ADD20C,0.304800*%
%ADD21C,0.254000*%
G04 APERTURE END LIST*
D10*
D11*
X17272000Y37719000D03*
D12*
X17272000Y41529000D03*
D11*
X17272000Y45339000D03*
X3302000Y37719000D03*
X8382000Y45339000D03*
D12*
X12192000Y41529000D03*
D11*
X12192000Y13589000D03*
X16637000Y17399000D03*
X12827000Y21209000D03*
X3302000Y13589000D03*
X8382000Y21209000D03*
D13*
X56007000Y45339000D03*
D14*
X56007000Y42799000D03*
D13*
X59817000Y45339000D03*
D14*
X59817000Y42799000D03*
D13*
X63627000Y45339000D03*
D14*
X63627000Y42799000D03*
D15*
X61087000Y12954000D03*
X61087000Y18034000D03*
X66167000Y18034000D03*
X66167000Y12954000D03*
D16*
X63627000Y15494000D03*
D17*
X63665100Y25425400D03*
X66205100Y25425400D03*
X66205100Y27965400D03*
X63665100Y27965400D03*
X66205100Y30505400D03*
X50838100Y2565400D03*
X45758100Y2565400D03*
X43218100Y2565400D03*
X40678100Y2565400D03*
X38138100Y2565400D03*
X35598100Y2565400D03*
X33058100Y2565400D03*
X30518100Y2565400D03*
X63538100Y50825400D03*
X60998100Y50825400D03*
X58458100Y50825400D03*
X55918100Y50825400D03*
X53378100Y50825400D03*
X50838100Y50825400D03*
X48298100Y50825400D03*
X45758100Y50825400D03*
X26454100Y50825400D03*
X41694100Y50825400D03*
X39154100Y50825400D03*
X36614100Y50825400D03*
X18834100Y50825400D03*
X21374100Y50825400D03*
X23914100Y50825400D03*
X28994100Y50825400D03*
X31534100Y50825400D03*
X34074100Y50825400D03*
X27978100Y2565400D03*
X53378100Y2565400D03*
X55918100Y2565400D03*
X58458100Y2565400D03*
X60998100Y2565400D03*
X63538100Y2565400D03*
X63665100Y30505400D03*
D13*
X36957000Y45339000D03*
D14*
X36957000Y42799000D03*
D18*
X40767000Y31369000D03*
X52197000Y23749000D03*
X58547000Y13589000D03*
X53467000Y38989000D03*
X53467000Y33909000D03*
X50927000Y37719000D03*
X50927000Y28829000D03*
X48387000Y37719000D03*
X53467000Y19939000D03*
X53467000Y25019000D03*
X52197000Y31369000D03*
X36957000Y27559000D03*
X28067000Y42799000D03*
X49657000Y31369000D03*
D19*
X35598100Y2565400D02*
X35598100Y28740100D01*
X38227000Y31369000D02*
X40767000Y31369000D01*
X35598100Y28740100D02*
X38227000Y31369000D01*
X40767000Y27559000D02*
X40767000Y31369000D01*
X44577000Y23749000D02*
X40767000Y27559000D01*
X52197000Y23749000D02*
X44577000Y23749000D01*
X53467000Y33909000D02*
X53467000Y38989000D01*
D20*
X50927000Y46609000D02*
X53467000Y49149000D01*
X53467000Y49149000D02*
X53467000Y50736500D01*
X53467000Y50736500D02*
X53378100Y50825400D01*
X53378100Y50825400D02*
X53378100Y50330100D01*
X50927000Y46609000D02*
X50927000Y45339000D01*
X50927000Y45339000D02*
X50927000Y37719000D01*
X50927000Y28829000D02*
X49657000Y28829000D01*
X48387000Y30099000D02*
X48387000Y37719000D01*
X49657000Y28829000D02*
X48387000Y30099000D01*
X53467000Y19939000D02*
X54737000Y21209000D01*
X54737000Y23749000D02*
X53467000Y25019000D01*
X54737000Y21209000D02*
X54737000Y23749000D01*
X52197000Y45339000D02*
X54737000Y47879000D01*
X52197000Y31369000D02*
X52197000Y38989000D01*
X55918100Y49060100D02*
X54737000Y47879000D01*
X55918100Y49060100D02*
X55918100Y50825400D01*
X52197000Y45339000D02*
X52197000Y38989000D01*
X62763400Y30505400D02*
X61087000Y28829000D01*
X61087000Y28829000D02*
X61087000Y21209000D01*
X61087000Y21209000D02*
X58547000Y18669000D01*
X58547000Y18669000D02*
X38227000Y18669000D01*
X38227000Y18669000D02*
X36957000Y19939000D01*
X36957000Y19939000D02*
X36957000Y25019000D01*
X62763400Y30505400D02*
X63665100Y30505400D01*
X36957000Y27559000D02*
X36957000Y25019000D01*
X36614100Y50825400D02*
X36614100Y45681900D01*
X36614100Y45681900D02*
X36957000Y45339000D01*
X36957000Y42799000D02*
X28067000Y42799000D01*
X36957000Y42799000D02*
X47117000Y42799000D01*
X49657000Y40259000D02*
X49657000Y31369000D01*
X47117000Y42799000D02*
X49657000Y40259000D01*
D21*
G36*
X13384464Y52093079D02*
X13043489Y51271919D01*
X13042713Y50382781D01*
X13382255Y49561028D01*
X14010421Y48931764D01*
X14831581Y48590789D01*
X15720719Y48590013D01*
X16542472Y48929555D01*
X17171736Y49557721D01*
X17444745Y50215200D01*
X17745071Y49765730D01*
X18231252Y49440874D01*
X18804741Y49326800D01*
X18863459Y49326800D01*
X19436948Y49440874D01*
X19923129Y49765730D01*
X20104100Y50036572D01*
X20285071Y49765730D01*
X20771252Y49440874D01*
X21344741Y49326800D01*
X21403459Y49326800D01*
X21976948Y49440874D01*
X22463129Y49765730D01*
X22644100Y50036572D01*
X22825071Y49765730D01*
X23311252Y49440874D01*
X23884741Y49326800D01*
X23943459Y49326800D01*
X24516948Y49440874D01*
X25003129Y49765730D01*
X25184092Y50036561D01*
X25565610Y49618579D01*
X26095073Y49370432D01*
X26327100Y49490931D01*
X26327100Y50698400D01*
X26307100Y50698400D01*
X26307100Y50952400D01*
X26327100Y50952400D01*
X26327100Y52159869D01*
X26095073Y52280368D01*
X25565610Y52032221D01*
X25184092Y51614239D01*
X25003129Y51885070D01*
X24516948Y52209926D01*
X23943459Y52324000D01*
X23884741Y52324000D01*
X23311252Y52209926D01*
X22825071Y51885070D01*
X22644100Y51614228D01*
X22463129Y51885070D01*
X21976948Y52209926D01*
X21403459Y52324000D01*
X21344741Y52324000D01*
X20771252Y52209926D01*
X20285071Y51885070D01*
X20104100Y51614228D01*
X19923129Y51885070D01*
X19436948Y52209926D01*
X18863459Y52324000D01*
X18804741Y52324000D01*
X18231252Y52209926D01*
X17745071Y51885070D01*
X17444435Y51435137D01*
X17173945Y52089772D01*
X16634660Y52630000D01*
X63776394Y52630000D01*
X64308267Y52098127D01*
X64140948Y52209926D01*
X63567459Y52324000D01*
X63508741Y52324000D01*
X62935252Y52209926D01*
X62449071Y51885070D01*
X62268100Y51614228D01*
X62087129Y51885070D01*
X61600948Y52209926D01*
X61027459Y52324000D01*
X60968741Y52324000D01*
X60395252Y52209926D01*
X59909071Y51885070D01*
X59728100Y51614228D01*
X59547129Y51885070D01*
X59060948Y52209926D01*
X58487459Y52324000D01*
X58428741Y52324000D01*
X57855252Y52209926D01*
X57369071Y51885070D01*
X57188100Y51614228D01*
X57007129Y51885070D01*
X56520948Y52209926D01*
X55947459Y52324000D01*
X55888741Y52324000D01*
X55315252Y52209926D01*
X54829071Y51885070D01*
X54648100Y51614228D01*
X54467129Y51885070D01*
X53980948Y52209926D01*
X53407459Y52324000D01*
X53348741Y52324000D01*
X52775252Y52209926D01*
X52289071Y51885070D01*
X52108100Y51614228D01*
X51927129Y51885070D01*
X51440948Y52209926D01*
X50867459Y52324000D01*
X50808741Y52324000D01*
X50235252Y52209926D01*
X49749071Y51885070D01*
X49568100Y51614228D01*
X49387129Y51885070D01*
X48900948Y52209926D01*
X48327459Y52324000D01*
X48268741Y52324000D01*
X47695252Y52209926D01*
X47209071Y51885070D01*
X47028100Y51614228D01*
X46847129Y51885070D01*
X46360948Y52209926D01*
X45787459Y52324000D01*
X45728741Y52324000D01*
X45155252Y52209926D01*
X44669071Y51885070D01*
X44344215Y51398889D01*
X44230141Y50825400D01*
X44344215Y50251911D01*
X44669071Y49765730D01*
X45155252Y49440874D01*
X45728741Y49326800D01*
X45787459Y49326800D01*
X46360948Y49440874D01*
X46847129Y49765730D01*
X47028100Y50036572D01*
X47209071Y49765730D01*
X47695252Y49440874D01*
X48268741Y49326800D01*
X48327459Y49326800D01*
X48900948Y49440874D01*
X49387129Y49765730D01*
X49568100Y50036572D01*
X49749071Y49765730D01*
X50235252Y49440874D01*
X50808741Y49326800D01*
X50867459Y49326800D01*
X51440948Y49440874D01*
X51927129Y49765730D01*
X52108100Y50036572D01*
X52289071Y49765730D01*
X52679600Y49504787D01*
X52679600Y49475152D01*
X50370224Y47165776D01*
X50199537Y46910325D01*
X50139600Y46609000D01*
X50139600Y40889952D01*
X47673776Y43355776D01*
X47418325Y43526463D01*
X47117000Y43586400D01*
X38211646Y43586400D01*
X38036147Y43849054D01*
X37994548Y43876850D01*
X38042317Y43885838D01*
X38258441Y44024910D01*
X38403431Y44237110D01*
X38454440Y44489000D01*
X38454440Y46189000D01*
X38410162Y46424317D01*
X38271090Y46640441D01*
X38058890Y46785431D01*
X37807000Y46836440D01*
X37401500Y46836440D01*
X37401500Y49564188D01*
X37703129Y49765730D01*
X37884100Y50036572D01*
X38065071Y49765730D01*
X38551252Y49440874D01*
X39124741Y49326800D01*
X39183459Y49326800D01*
X39756948Y49440874D01*
X40243129Y49765730D01*
X40424100Y50036572D01*
X40605071Y49765730D01*
X41091252Y49440874D01*
X41664741Y49326800D01*
X41723459Y49326800D01*
X42296948Y49440874D01*
X42783129Y49765730D01*
X43107985Y50251911D01*
X43222059Y50825400D01*
X43107985Y51398889D01*
X42783129Y51885070D01*
X42296948Y52209926D01*
X41723459Y52324000D01*
X41664741Y52324000D01*
X41091252Y52209926D01*
X40605071Y51885070D01*
X40424100Y51614228D01*
X40243129Y51885070D01*
X39756948Y52209926D01*
X39183459Y52324000D01*
X39124741Y52324000D01*
X38551252Y52209926D01*
X38065071Y51885070D01*
X37884100Y51614228D01*
X37703129Y51885070D01*
X37216948Y52209926D01*
X36643459Y52324000D01*
X36584741Y52324000D01*
X36011252Y52209926D01*
X35525071Y51885070D01*
X35344100Y51614228D01*
X35163129Y51885070D01*
X34676948Y52209926D01*
X34103459Y52324000D01*
X34044741Y52324000D01*
X33471252Y52209926D01*
X32985071Y51885070D01*
X32804100Y51614228D01*
X32623129Y51885070D01*
X32136948Y52209926D01*
X31563459Y52324000D01*
X31504741Y52324000D01*
X30931252Y52209926D01*
X30445071Y51885070D01*
X30264100Y51614228D01*
X30083129Y51885070D01*
X29596948Y52209926D01*
X29023459Y52324000D01*
X28964741Y52324000D01*
X28391252Y52209926D01*
X27905071Y51885070D01*
X27724108Y51614239D01*
X27342590Y52032221D01*
X26813127Y52280368D01*
X26581100Y52159869D01*
X26581100Y50952400D01*
X26601100Y50952400D01*
X26601100Y50698400D01*
X26581100Y50698400D01*
X26581100Y49490931D01*
X26813127Y49370432D01*
X27342590Y49618579D01*
X27724108Y50036561D01*
X27905071Y49765730D01*
X28391252Y49440874D01*
X28964741Y49326800D01*
X29023459Y49326800D01*
X29596948Y49440874D01*
X30083129Y49765730D01*
X30264100Y50036572D01*
X30445071Y49765730D01*
X30931252Y49440874D01*
X31504741Y49326800D01*
X31563459Y49326800D01*
X32136948Y49440874D01*
X32623129Y49765730D01*
X32804100Y50036572D01*
X32985071Y49765730D01*
X33471252Y49440874D01*
X34044741Y49326800D01*
X34103459Y49326800D01*
X34676948Y49440874D01*
X35163129Y49765730D01*
X35344100Y50036572D01*
X35525071Y49765730D01*
X35826700Y49564188D01*
X35826700Y46763216D01*
X35655559Y46653090D01*
X35510569Y46440890D01*
X35459560Y46189000D01*
X35459560Y44489000D01*
X35503838Y44253683D01*
X35642910Y44037559D01*
X35855110Y43892569D01*
X35922541Y43878914D01*
X35877853Y43849054D01*
X35702354Y43586400D01*
X28602111Y43586400D01*
X28597327Y43591192D01*
X28253799Y43733838D01*
X27881833Y43734162D01*
X27538057Y43592117D01*
X27274808Y43329327D01*
X27132162Y42985799D01*
X27131838Y42613833D01*
X27273883Y42270057D01*
X27536673Y42006808D01*
X27880201Y41864162D01*
X28252167Y41863838D01*
X28595943Y42005883D01*
X28601670Y42011600D01*
X35702354Y42011600D01*
X35877853Y41748946D01*
X36359622Y41427039D01*
X36927907Y41314000D01*
X36986093Y41314000D01*
X37554378Y41427039D01*
X38036147Y41748946D01*
X38211646Y42011600D01*
X46790848Y42011600D01*
X48869600Y39932848D01*
X48869600Y38531010D01*
X48573799Y38653838D01*
X48201833Y38654162D01*
X47858057Y38512117D01*
X47594808Y38249327D01*
X47452162Y37905799D01*
X47451838Y37533833D01*
X47593883Y37190057D01*
X47599600Y37184330D01*
X47599600Y30099000D01*
X47659537Y29797675D01*
X47830224Y29542224D01*
X49100224Y28272224D01*
X49355675Y28101537D01*
X49657000Y28041600D01*
X50391889Y28041600D01*
X50396673Y28036808D01*
X50740201Y27894162D01*
X51112167Y27893838D01*
X51455943Y28035883D01*
X51719192Y28298673D01*
X51861838Y28642201D01*
X51862162Y29014167D01*
X51720117Y29357943D01*
X51457327Y29621192D01*
X51113799Y29763838D01*
X50741833Y29764162D01*
X50398057Y29622117D01*
X50392330Y29616400D01*
X49983152Y29616400D01*
X49174400Y30425152D01*
X49174400Y30556990D01*
X49470201Y30434162D01*
X49842167Y30433838D01*
X50185943Y30575883D01*
X50449192Y30838673D01*
X50591838Y31182201D01*
X50592162Y31554167D01*
X50450117Y31897943D01*
X50444400Y31903670D01*
X50444400Y36906990D01*
X50740201Y36784162D01*
X51112167Y36783838D01*
X51409600Y36906735D01*
X51409600Y31904111D01*
X51404808Y31899327D01*
X51262162Y31555799D01*
X51261838Y31183833D01*
X51403883Y30840057D01*
X51666673Y30576808D01*
X52010201Y30434162D01*
X52382167Y30433838D01*
X52725943Y30575883D01*
X52989192Y30838673D01*
X53131838Y31182201D01*
X53132162Y31554167D01*
X52990117Y31897943D01*
X52984400Y31903670D01*
X52984400Y42799000D01*
X54492907Y42799000D01*
X54605946Y42230715D01*
X54927853Y41748946D01*
X55409622Y41427039D01*
X55977907Y41314000D01*
X56036093Y41314000D01*
X56604378Y41427039D01*
X57086147Y41748946D01*
X57408054Y42230715D01*
X57521093Y42799000D01*
X58302907Y42799000D01*
X58415946Y42230715D01*
X58737853Y41748946D01*
X59219622Y41427039D01*
X59787907Y41314000D01*
X59846093Y41314000D01*
X60414378Y41427039D01*
X60896147Y41748946D01*
X61218054Y42230715D01*
X61331093Y42799000D01*
X61218054Y43367285D01*
X60896147Y43849054D01*
X60854548Y43876850D01*
X60902317Y43885838D01*
X61118441Y44024910D01*
X61263431Y44237110D01*
X61314440Y44489000D01*
X61314440Y46189000D01*
X61270162Y46424317D01*
X61131090Y46640441D01*
X60918890Y46785431D01*
X60667000Y46836440D01*
X58967000Y46836440D01*
X58731683Y46792162D01*
X58515559Y46653090D01*
X58370569Y46440890D01*
X58319560Y46189000D01*
X58319560Y44489000D01*
X58363838Y44253683D01*
X58502910Y44037559D01*
X58715110Y43892569D01*
X58782541Y43878914D01*
X58737853Y43849054D01*
X58415946Y43367285D01*
X58302907Y42799000D01*
X57521093Y42799000D01*
X57408054Y43367285D01*
X57086147Y43849054D01*
X57044548Y43876850D01*
X57092317Y43885838D01*
X57308441Y44024910D01*
X57453431Y44237110D01*
X57504440Y44489000D01*
X57504440Y46189000D01*
X57460162Y46424317D01*
X57321090Y46640441D01*
X57108890Y46785431D01*
X56857000Y46836440D01*
X55157000Y46836440D01*
X54921683Y46792162D01*
X54705559Y46653090D01*
X54560569Y46440890D01*
X54509560Y46189000D01*
X54509560Y44489000D01*
X54553838Y44253683D01*
X54692910Y44037559D01*
X54905110Y43892569D01*
X54972541Y43878914D01*
X54927853Y43849054D01*
X54605946Y43367285D01*
X54492907Y42799000D01*
X52984400Y42799000D01*
X52984400Y45012848D01*
X56474876Y48503324D01*
X56645563Y48758775D01*
X56705500Y49060100D01*
X56705500Y49564188D01*
X57007129Y49765730D01*
X57188100Y50036572D01*
X57369071Y49765730D01*
X57855252Y49440874D01*
X58428741Y49326800D01*
X58487459Y49326800D01*
X59060948Y49440874D01*
X59547129Y49765730D01*
X59728100Y50036572D01*
X59909071Y49765730D01*
X60395252Y49440874D01*
X60968741Y49326800D01*
X61027459Y49326800D01*
X61600948Y49440874D01*
X62087129Y49765730D01*
X62268100Y50036572D01*
X62449071Y49765730D01*
X62935252Y49440874D01*
X63508741Y49326800D01*
X63567459Y49326800D01*
X64140948Y49440874D01*
X64627129Y49765730D01*
X64770000Y49979551D01*
X64770000Y46757342D01*
X64728890Y46785431D01*
X64477000Y46836440D01*
X62777000Y46836440D01*
X62541683Y46792162D01*
X62325559Y46653090D01*
X62180569Y46440890D01*
X62129560Y46189000D01*
X62129560Y44489000D01*
X62173838Y44253683D01*
X62312910Y44037559D01*
X62525110Y43892569D01*
X62592541Y43878914D01*
X62547853Y43849054D01*
X62225946Y43367285D01*
X62112907Y42799000D01*
X62225946Y42230715D01*
X62547853Y41748946D01*
X63029622Y41427039D01*
X63597907Y41314000D01*
X63656093Y41314000D01*
X64224378Y41427039D01*
X64706147Y41748946D01*
X64770000Y41844509D01*
X64770000Y40259000D01*
X64780006Y40209590D01*
X64807197Y40169197D01*
X67310000Y37666394D01*
X67310000Y37493893D01*
X66524619Y37820011D01*
X65635481Y37820787D01*
X64813728Y37481245D01*
X64184464Y36853079D01*
X63843489Y36031919D01*
X63842713Y35142781D01*
X64182255Y34321028D01*
X64810421Y33691764D01*
X65631581Y33350789D01*
X66520719Y33350013D01*
X67310000Y33676138D01*
X67310000Y31541317D01*
X67294129Y31565070D01*
X66807948Y31889926D01*
X66234459Y32004000D01*
X66175741Y32004000D01*
X65602252Y31889926D01*
X65116071Y31565070D01*
X64935100Y31294228D01*
X64754129Y31565070D01*
X64267948Y31889926D01*
X63694459Y32004000D01*
X63635741Y32004000D01*
X63062252Y31889926D01*
X62576071Y31565070D01*
X62267006Y31102522D01*
X62206624Y31062176D01*
X60530224Y29385776D01*
X60359537Y29130325D01*
X60299600Y28829000D01*
X60299600Y21535152D01*
X58220848Y19456400D01*
X54279010Y19456400D01*
X54401838Y19752201D01*
X54401845Y19760293D01*
X55293776Y20652224D01*
X55464463Y20907675D01*
X55524400Y21209000D01*
X55524400Y23749000D01*
X55464463Y24050325D01*
X55293776Y24305776D01*
X54402156Y25197396D01*
X54402162Y25204167D01*
X54260117Y25547943D01*
X53997327Y25811192D01*
X53653799Y25953838D01*
X53281833Y25954162D01*
X52938057Y25812117D01*
X52674808Y25549327D01*
X52532162Y25205799D01*
X52531838Y24833833D01*
X52637310Y24578570D01*
X52577191Y24603534D01*
X52556646Y24617262D01*
X52532623Y24622040D01*
X52383799Y24683838D01*
X52221234Y24683980D01*
X52197000Y24688800D01*
X44966278Y24688800D01*
X41706800Y27948278D01*
X41706800Y31369000D01*
X41702022Y31393022D01*
X41702162Y31554167D01*
X41640083Y31704411D01*
X41635262Y31728646D01*
X41621654Y31749012D01*
X41560117Y31897943D01*
X41445267Y32012994D01*
X41431539Y32033539D01*
X41411173Y32047147D01*
X41297327Y32161192D01*
X41147191Y32223534D01*
X41126646Y32237262D01*
X41102623Y32242040D01*
X40953799Y32303838D01*
X40791234Y32303980D01*
X40767000Y32308800D01*
X38227000Y32308800D01*
X37867354Y32237262D01*
X37562461Y32033539D01*
X34933561Y29404639D01*
X34729838Y29099746D01*
X34658300Y28740100D01*
X34658300Y3724782D01*
X34509071Y3625070D01*
X34328100Y3354228D01*
X34147129Y3625070D01*
X33660948Y3949926D01*
X33087459Y4064000D01*
X33028741Y4064000D01*
X32455252Y3949926D01*
X31969071Y3625070D01*
X31788100Y3354228D01*
X31607129Y3625070D01*
X31120948Y3949926D01*
X30547459Y4064000D01*
X30488741Y4064000D01*
X29915252Y3949926D01*
X29429071Y3625070D01*
X29248100Y3354228D01*
X29067129Y3625070D01*
X28580948Y3949926D01*
X28007459Y4064000D01*
X27948741Y4064000D01*
X27375252Y3949926D01*
X26889071Y3625070D01*
X26564215Y3138889D01*
X26450141Y2565400D01*
X26564215Y1991911D01*
X26889071Y1505730D01*
X27375252Y1180874D01*
X27948741Y1066800D01*
X28007459Y1066800D01*
X28580948Y1180874D01*
X29067129Y1505730D01*
X29248100Y1776572D01*
X29429071Y1505730D01*
X29915252Y1180874D01*
X30488741Y1066800D01*
X30547459Y1066800D01*
X31120948Y1180874D01*
X31607129Y1505730D01*
X31788100Y1776572D01*
X31969071Y1505730D01*
X32455252Y1180874D01*
X33028741Y1066800D01*
X33087459Y1066800D01*
X33660948Y1180874D01*
X34147129Y1505730D01*
X34328100Y1776572D01*
X34509071Y1505730D01*
X34995252Y1180874D01*
X35568741Y1066800D01*
X35627459Y1066800D01*
X36200948Y1180874D01*
X36687129Y1505730D01*
X36868100Y1776572D01*
X37049071Y1505730D01*
X37535252Y1180874D01*
X38108741Y1066800D01*
X38167459Y1066800D01*
X38740948Y1180874D01*
X39227129Y1505730D01*
X39408092Y1776561D01*
X39789610Y1358579D01*
X40319073Y1110432D01*
X40551100Y1230931D01*
X40551100Y2438400D01*
X40805100Y2438400D01*
X40805100Y1230931D01*
X41037127Y1110432D01*
X41566590Y1358579D01*
X41948100Y1776552D01*
X42329610Y1358579D01*
X42859073Y1110432D01*
X43091100Y1230931D01*
X43091100Y2438400D01*
X40805100Y2438400D01*
X40551100Y2438400D01*
X40531100Y2438400D01*
X40531100Y2692400D01*
X40551100Y2692400D01*
X40551100Y3899869D01*
X40805100Y3899869D01*
X40805100Y2692400D01*
X43091100Y2692400D01*
X43091100Y3899869D01*
X43345100Y3899869D01*
X43345100Y2692400D01*
X43365100Y2692400D01*
X43365100Y2438400D01*
X43345100Y2438400D01*
X43345100Y1230931D01*
X43577127Y1110432D01*
X44106590Y1358579D01*
X44488108Y1776561D01*
X44669071Y1505730D01*
X45155252Y1180874D01*
X45728741Y1066800D01*
X45787459Y1066800D01*
X46360948Y1180874D01*
X46847129Y1505730D01*
X47171985Y1991911D01*
X47286059Y2565400D01*
X47171985Y3138889D01*
X46847129Y3625070D01*
X46360948Y3949926D01*
X45787459Y4064000D01*
X45728741Y4064000D01*
X45155252Y3949926D01*
X44669071Y3625070D01*
X44488108Y3354239D01*
X44106590Y3772221D01*
X43577127Y4020368D01*
X43345100Y3899869D01*
X43091100Y3899869D01*
X42859073Y4020368D01*
X42329610Y3772221D01*
X41948100Y3354248D01*
X41566590Y3772221D01*
X41037127Y4020368D01*
X40805100Y3899869D01*
X40551100Y3899869D01*
X40319073Y4020368D01*
X39789610Y3772221D01*
X39408092Y3354239D01*
X39227129Y3625070D01*
X38740948Y3949926D01*
X38167459Y4064000D01*
X38108741Y4064000D01*
X37535252Y3949926D01*
X37049071Y3625070D01*
X36868100Y3354228D01*
X36687129Y3625070D01*
X36537900Y3724782D01*
X36537900Y11729132D01*
X60041737Y11729132D01*
X60152641Y11451901D01*
X60798593Y11208677D01*
X61488453Y11231164D01*
X62021359Y11451901D01*
X62132263Y11729132D01*
X61087000Y12774395D01*
X60041737Y11729132D01*
X36537900Y11729132D01*
X36537900Y13242407D01*
X59341677Y13242407D01*
X59364164Y12552547D01*
X59584901Y12019641D01*
X59862132Y11908737D01*
X60907395Y12954000D01*
X61266605Y12954000D01*
X62311868Y11908737D01*
X62589099Y12019641D01*
X62832323Y12665593D01*
X62813521Y13242407D01*
X64421677Y13242407D01*
X64444164Y12552547D01*
X64664901Y12019641D01*
X64942132Y11908737D01*
X65987395Y12954000D01*
X64942132Y13999263D01*
X64664901Y13888359D01*
X64421677Y13242407D01*
X62813521Y13242407D01*
X62809836Y13355453D01*
X62589099Y13888359D01*
X62311868Y13999263D01*
X61266605Y12954000D01*
X60907395Y12954000D01*
X59862132Y13999263D01*
X59584901Y13888359D01*
X59341677Y13242407D01*
X36537900Y13242407D01*
X36537900Y14178868D01*
X60041737Y14178868D01*
X61087000Y13133605D01*
X62132263Y14178868D01*
X62021359Y14456099D01*
X61375407Y14699323D01*
X60685547Y14676836D01*
X60152641Y14456099D01*
X60041737Y14178868D01*
X36537900Y14178868D01*
X36537900Y15170205D01*
X61991716Y15170205D01*
X62240106Y14569057D01*
X62699637Y14108722D01*
X63300352Y13859284D01*
X63950795Y13858716D01*
X64551943Y14107106D01*
X65012278Y14566637D01*
X65261716Y15167352D01*
X65262284Y15817795D01*
X65013894Y16418943D01*
X64554363Y16879278D01*
X63953648Y17128716D01*
X63303205Y17129284D01*
X62702057Y16880894D01*
X62241722Y16421363D01*
X61992284Y15820648D01*
X61991716Y15170205D01*
X36537900Y15170205D01*
X36537900Y16809132D01*
X60041737Y16809132D01*
X60152641Y16531901D01*
X60798593Y16288677D01*
X61488453Y16311164D01*
X62021359Y16531901D01*
X62132263Y16809132D01*
X61087000Y17854395D01*
X60041737Y16809132D01*
X36537900Y16809132D01*
X36537900Y19244548D01*
X37670224Y18112224D01*
X37925675Y17941537D01*
X38227000Y17881600D01*
X58547000Y17881600D01*
X58848325Y17941537D01*
X59103776Y18112224D01*
X59358417Y18366865D01*
X59341677Y18322407D01*
X59364164Y17632547D01*
X59584901Y17099641D01*
X59862132Y16988737D01*
X60907395Y18034000D01*
X61266605Y18034000D01*
X62311868Y16988737D01*
X62589099Y17099641D01*
X62832323Y17745593D01*
X62813521Y18322407D01*
X64421677Y18322407D01*
X64444164Y17632547D01*
X64664901Y17099641D01*
X64942132Y16988737D01*
X65987395Y18034000D01*
X64942132Y19079263D01*
X64664901Y18968359D01*
X64421677Y18322407D01*
X62813521Y18322407D01*
X62809836Y18435453D01*
X62589099Y18968359D01*
X62311868Y19079263D01*
X61266605Y18034000D01*
X60907395Y18034000D01*
X60893253Y18048142D01*
X61072858Y18227747D01*
X61087000Y18213605D01*
X62132263Y19258868D01*
X62021359Y19536099D01*
X61375407Y19779323D01*
X60750505Y19758953D01*
X61643776Y20652224D01*
X61814463Y20907675D01*
X61874400Y21209000D01*
X61874400Y28502848D01*
X62720666Y29349114D01*
X62890852Y29235400D01*
X62576071Y29025070D01*
X62251215Y28538889D01*
X62137141Y27965400D01*
X62251215Y27391911D01*
X62576071Y26905730D01*
X62890852Y26695400D01*
X62576071Y26485070D01*
X62251215Y25998889D01*
X62137141Y25425400D01*
X62251215Y24851911D01*
X62576071Y24365730D01*
X63062252Y24040874D01*
X63635741Y23926800D01*
X63694459Y23926800D01*
X64267948Y24040874D01*
X64754129Y24365730D01*
X64935100Y24636572D01*
X65116071Y24365730D01*
X65602252Y24040874D01*
X66175741Y23926800D01*
X66234459Y23926800D01*
X66807948Y24040874D01*
X67294129Y24365730D01*
X67310000Y24389483D01*
X67310000Y19356608D01*
X67212262Y19258870D01*
X67101359Y19536099D01*
X66455407Y19779323D01*
X65765547Y19756836D01*
X65232641Y19536099D01*
X65121737Y19258868D01*
X66167000Y18213605D01*
X66181143Y18227747D01*
X66360748Y18048142D01*
X66346605Y18034000D01*
X66360748Y18019857D01*
X66181143Y17840252D01*
X66167000Y17854395D01*
X65121737Y16809132D01*
X65232641Y16531901D01*
X65878593Y16288677D01*
X66568453Y16311164D01*
X67101359Y16531901D01*
X67212262Y16809130D01*
X67310000Y16711392D01*
X67310000Y14276608D01*
X67212262Y14178870D01*
X67101359Y14456099D01*
X66455407Y14699323D01*
X65765547Y14676836D01*
X65232641Y14456099D01*
X65121737Y14178868D01*
X66167000Y13133605D01*
X66181143Y13147747D01*
X66360748Y12968142D01*
X66346605Y12954000D01*
X66360748Y12939857D01*
X66181143Y12760252D01*
X66167000Y12774395D01*
X65121737Y11729132D01*
X65232641Y11451901D01*
X65878593Y11208677D01*
X66568453Y11231164D01*
X67101359Y11451901D01*
X67212262Y11729130D01*
X67310000Y11631392D01*
X67310000Y9553893D01*
X66524619Y9880011D01*
X65635481Y9880787D01*
X64813728Y9541245D01*
X64184464Y8913079D01*
X63843489Y8091919D01*
X63842713Y7202781D01*
X64182255Y6381028D01*
X64810421Y5751764D01*
X65631581Y5410789D01*
X66520719Y5410013D01*
X67310000Y5736138D01*
X67310000Y4751606D01*
X65051723Y2493329D01*
X65066059Y2565400D01*
X64951985Y3138889D01*
X64627129Y3625070D01*
X64140948Y3949926D01*
X63567459Y4064000D01*
X63508741Y4064000D01*
X62935252Y3949926D01*
X62449071Y3625070D01*
X62268100Y3354228D01*
X62087129Y3625070D01*
X61600948Y3949926D01*
X61027459Y4064000D01*
X60968741Y4064000D01*
X60395252Y3949926D01*
X59909071Y3625070D01*
X59728100Y3354228D01*
X59547129Y3625070D01*
X59060948Y3949926D01*
X58487459Y4064000D01*
X58428741Y4064000D01*
X57855252Y3949926D01*
X57369071Y3625070D01*
X57188100Y3354228D01*
X57007129Y3625070D01*
X56520948Y3949926D01*
X55947459Y4064000D01*
X55888741Y4064000D01*
X55315252Y3949926D01*
X54829071Y3625070D01*
X54648100Y3354228D01*
X54467129Y3625070D01*
X53980948Y3949926D01*
X53407459Y4064000D01*
X53348741Y4064000D01*
X52775252Y3949926D01*
X52289071Y3625070D01*
X52108100Y3354228D01*
X51927129Y3625070D01*
X51440948Y3949926D01*
X50867459Y4064000D01*
X50808741Y4064000D01*
X50235252Y3949926D01*
X49749071Y3625070D01*
X49424215Y3138889D01*
X49310141Y2565400D01*
X49424215Y1991911D01*
X49749071Y1505730D01*
X50235252Y1180874D01*
X50808741Y1066800D01*
X50867459Y1066800D01*
X51440948Y1180874D01*
X51927129Y1505730D01*
X52108100Y1776572D01*
X52289071Y1505730D01*
X52775252Y1180874D01*
X53348741Y1066800D01*
X53407459Y1066800D01*
X53980948Y1180874D01*
X54467129Y1505730D01*
X54648100Y1776572D01*
X54829071Y1505730D01*
X55315252Y1180874D01*
X55888741Y1066800D01*
X55947459Y1066800D01*
X56520948Y1180874D01*
X57007129Y1505730D01*
X57188100Y1776572D01*
X57369071Y1505730D01*
X57855252Y1180874D01*
X58428741Y1066800D01*
X58487459Y1066800D01*
X59060948Y1180874D01*
X59547129Y1505730D01*
X59728100Y1776572D01*
X59909071Y1505730D01*
X60395252Y1180874D01*
X60968741Y1066800D01*
X61027459Y1066800D01*
X61600948Y1180874D01*
X62087129Y1505730D01*
X62268100Y1776572D01*
X62449071Y1505730D01*
X62935252Y1180874D01*
X63508741Y1066800D01*
X63567459Y1066800D01*
X64140948Y1180874D01*
X64627129Y1505730D01*
X64770000Y1719551D01*
X64770000Y1016000D01*
X15619523Y1016000D01*
X15901736Y1297721D01*
X16242711Y2118881D01*
X16243487Y3008019D01*
X15903945Y3829772D01*
X15275779Y4459036D01*
X14454619Y4800011D01*
X13565481Y4800787D01*
X12743728Y4461245D01*
X12114464Y3833079D01*
X11773489Y3011919D01*
X11772713Y2122781D01*
X12112255Y1301028D01*
X12396786Y1016000D01*
X1524000Y1016000D01*
X1524000Y12903573D01*
X1686078Y12511314D01*
X2221495Y11974961D01*
X2921410Y11684332D01*
X3679265Y11683670D01*
X4379686Y11973078D01*
X4648299Y12241223D01*
X11023828Y12241223D01*
X11155520Y11946343D01*
X11863036Y11674739D01*
X12620632Y11694564D01*
X13228480Y11946343D01*
X13360172Y12241223D01*
X12192000Y13409395D01*
X11023828Y12241223D01*
X4648299Y12241223D01*
X4916039Y12508495D01*
X5206668Y13208410D01*
X5207287Y13917964D01*
X10277739Y13917964D01*
X10297564Y13160368D01*
X10549343Y12552520D01*
X10844223Y12420828D01*
X12012395Y13589000D01*
X12371605Y13589000D01*
X13539777Y12420828D01*
X13834657Y12552520D01*
X14106261Y13260036D01*
X14086436Y14017632D01*
X13834657Y14625480D01*
X13539777Y14757172D01*
X12371605Y13589000D01*
X12012395Y13589000D01*
X10844223Y14757172D01*
X10549343Y14625480D01*
X10277739Y13917964D01*
X5207287Y13917964D01*
X5207330Y13966265D01*
X4917922Y14666686D01*
X4648303Y14936777D01*
X11023828Y14936777D01*
X12192000Y13768605D01*
X13360172Y14936777D01*
X13228480Y15231657D01*
X12520964Y15503261D01*
X11763368Y15483436D01*
X11155520Y15231657D01*
X11023828Y14936777D01*
X4648303Y14936777D01*
X4382505Y15203039D01*
X3682590Y15493668D01*
X2924735Y15494330D01*
X2224314Y15204922D01*
X1687961Y14669505D01*
X1524000Y14274642D01*
X1524000Y17021735D01*
X14731670Y17021735D01*
X15021078Y16321314D01*
X15556495Y15784961D01*
X16256410Y15494332D01*
X17014265Y15493670D01*
X17714686Y15783078D01*
X18251039Y16318495D01*
X18541668Y17018410D01*
X18542330Y17776265D01*
X18252922Y18476686D01*
X17717505Y19013039D01*
X17017590Y19303668D01*
X16259735Y19304330D01*
X15559314Y19014922D01*
X15022961Y18479505D01*
X14732332Y17779590D01*
X14731670Y17021735D01*
X1524000Y17021735D01*
X1524000Y20831735D01*
X6476670Y20831735D01*
X6766078Y20131314D01*
X7301495Y19594961D01*
X8001410Y19304332D01*
X8759265Y19303670D01*
X9459686Y19593078D01*
X9996039Y20128495D01*
X10286668Y20828410D01*
X10286670Y20831735D01*
X10921670Y20831735D01*
X11211078Y20131314D01*
X11746495Y19594961D01*
X12446410Y19304332D01*
X13204265Y19303670D01*
X13904686Y19593078D01*
X14441039Y20128495D01*
X14731668Y20828410D01*
X14732330Y21586265D01*
X14442922Y22286686D01*
X13907505Y22823039D01*
X13207590Y23113668D01*
X12449735Y23114330D01*
X11749314Y22824922D01*
X11212961Y22289505D01*
X10922332Y21589590D01*
X10921670Y20831735D01*
X10286670Y20831735D01*
X10287330Y21586265D01*
X9997922Y22286686D01*
X9462505Y22823039D01*
X8762590Y23113668D01*
X8004735Y23114330D01*
X7304314Y22824922D01*
X6767961Y22289505D01*
X6477332Y21589590D01*
X6476670Y20831735D01*
X1524000Y20831735D01*
X1524000Y37033573D01*
X1686078Y36641314D01*
X2221495Y36104961D01*
X2921410Y35814332D01*
X3679265Y35813670D01*
X4379686Y36103078D01*
X4916039Y36638495D01*
X5206668Y37338410D01*
X5206670Y37341735D01*
X15366670Y37341735D01*
X15656078Y36641314D01*
X16191495Y36104961D01*
X16891410Y35814332D01*
X17649265Y35813670D01*
X18349686Y36103078D01*
X18886039Y36638495D01*
X19176668Y37338410D01*
X19177330Y38096265D01*
X18887922Y38796686D01*
X18352505Y39333039D01*
X17652590Y39623668D01*
X16894735Y39624330D01*
X16194314Y39334922D01*
X15657961Y38799505D01*
X15367332Y38099590D01*
X15366670Y37341735D01*
X5206670Y37341735D01*
X5207330Y38096265D01*
X4917922Y38796686D01*
X4382505Y39333039D01*
X3682590Y39623668D01*
X2924735Y39624330D01*
X2224314Y39334922D01*
X1687961Y38799505D01*
X1524000Y38404642D01*
X1524000Y41252339D01*
X10794758Y41252339D01*
X11006990Y40738697D01*
X11399630Y40345371D01*
X11912900Y40132243D01*
X12468661Y40131758D01*
X12982303Y40343990D01*
X13375629Y40736630D01*
X13588757Y41249900D01*
X13588759Y41252339D01*
X15874758Y41252339D01*
X16086990Y40738697D01*
X16479630Y40345371D01*
X16992900Y40132243D01*
X17548661Y40131758D01*
X18062303Y40343990D01*
X18455629Y40736630D01*
X18668757Y41249900D01*
X18669242Y41805661D01*
X18457010Y42319303D01*
X18064370Y42712629D01*
X17551100Y42925757D01*
X16995339Y42926242D01*
X16481697Y42714010D01*
X16088371Y42321370D01*
X15875243Y41808100D01*
X15874758Y41252339D01*
X13588759Y41252339D01*
X13589242Y41805661D01*
X13377010Y42319303D01*
X12984370Y42712629D01*
X12471100Y42925757D01*
X11915339Y42926242D01*
X11401697Y42714010D01*
X11008371Y42321370D01*
X10795243Y41808100D01*
X10794758Y41252339D01*
X1524000Y41252339D01*
X1524000Y44961735D01*
X6476670Y44961735D01*
X6766078Y44261314D01*
X7301495Y43724961D01*
X8001410Y43434332D01*
X8759265Y43433670D01*
X9459686Y43723078D01*
X9728299Y43991223D01*
X16103828Y43991223D01*
X16235520Y43696343D01*
X16943036Y43424739D01*
X17700632Y43444564D01*
X18308480Y43696343D01*
X18440172Y43991223D01*
X17272000Y45159395D01*
X16103828Y43991223D01*
X9728299Y43991223D01*
X9996039Y44258495D01*
X10286668Y44958410D01*
X10287287Y45667964D01*
X15357739Y45667964D01*
X15377564Y44910368D01*
X15629343Y44302520D01*
X15924223Y44170828D01*
X17092395Y45339000D01*
X17451605Y45339000D01*
X18619777Y44170828D01*
X18914657Y44302520D01*
X19186261Y45010036D01*
X19166436Y45767632D01*
X18914657Y46375480D01*
X18619777Y46507172D01*
X17451605Y45339000D01*
X17092395Y45339000D01*
X15924223Y46507172D01*
X15629343Y46375480D01*
X15357739Y45667964D01*
X10287287Y45667964D01*
X10287330Y45716265D01*
X9997922Y46416686D01*
X9728303Y46686777D01*
X16103828Y46686777D01*
X17272000Y45518605D01*
X18440172Y46686777D01*
X18308480Y46981657D01*
X17600964Y47253261D01*
X16843368Y47233436D01*
X16235520Y46981657D01*
X16103828Y46686777D01*
X9728303Y46686777D01*
X9462505Y46953039D01*
X8762590Y47243668D01*
X8004735Y47244330D01*
X7304314Y46954922D01*
X6767961Y46419505D01*
X6477332Y45719590D01*
X6476670Y44961735D01*
X1524000Y44961735D01*
X1524000Y52630000D01*
X13922324Y52630000D01*
X13384464Y52093079D01*
X13384464Y52093079D01*
G37*
X13384464Y52093079D02*
X13043489Y51271919D01*
X13042713Y50382781D01*
X13382255Y49561028D01*
X14010421Y48931764D01*
X14831581Y48590789D01*
X15720719Y48590013D01*
X16542472Y48929555D01*
X17171736Y49557721D01*
X17444745Y50215200D01*
X17745071Y49765730D01*
X18231252Y49440874D01*
X18804741Y49326800D01*
X18863459Y49326800D01*
X19436948Y49440874D01*
X19923129Y49765730D01*
X20104100Y50036572D01*
X20285071Y49765730D01*
X20771252Y49440874D01*
X21344741Y49326800D01*
X21403459Y49326800D01*
X21976948Y49440874D01*
X22463129Y49765730D01*
X22644100Y50036572D01*
X22825071Y49765730D01*
X23311252Y49440874D01*
X23884741Y49326800D01*
X23943459Y49326800D01*
X24516948Y49440874D01*
X25003129Y49765730D01*
X25184092Y50036561D01*
X25565610Y49618579D01*
X26095073Y49370432D01*
X26327100Y49490931D01*
X26327100Y50698400D01*
X26307100Y50698400D01*
X26307100Y50952400D01*
X26327100Y50952400D01*
X26327100Y52159869D01*
X26095073Y52280368D01*
X25565610Y52032221D01*
X25184092Y51614239D01*
X25003129Y51885070D01*
X24516948Y52209926D01*
X23943459Y52324000D01*
X23884741Y52324000D01*
X23311252Y52209926D01*
X22825071Y51885070D01*
X22644100Y51614228D01*
X22463129Y51885070D01*
X21976948Y52209926D01*
X21403459Y52324000D01*
X21344741Y52324000D01*
X20771252Y52209926D01*
X20285071Y51885070D01*
X20104100Y51614228D01*
X19923129Y51885070D01*
X19436948Y52209926D01*
X18863459Y52324000D01*
X18804741Y52324000D01*
X18231252Y52209926D01*
X17745071Y51885070D01*
X17444435Y51435137D01*
X17173945Y52089772D01*
X16634660Y52630000D01*
X63776394Y52630000D01*
X64308267Y52098127D01*
X64140948Y52209926D01*
X63567459Y52324000D01*
X63508741Y52324000D01*
X62935252Y52209926D01*
X62449071Y51885070D01*
X62268100Y51614228D01*
X62087129Y51885070D01*
X61600948Y52209926D01*
X61027459Y52324000D01*
X60968741Y52324000D01*
X60395252Y52209926D01*
X59909071Y51885070D01*
X59728100Y51614228D01*
X59547129Y51885070D01*
X59060948Y52209926D01*
X58487459Y52324000D01*
X58428741Y52324000D01*
X57855252Y52209926D01*
X57369071Y51885070D01*
X57188100Y51614228D01*
X57007129Y51885070D01*
X56520948Y52209926D01*
X55947459Y52324000D01*
X55888741Y52324000D01*
X55315252Y52209926D01*
X54829071Y51885070D01*
X54648100Y51614228D01*
X54467129Y51885070D01*
X53980948Y52209926D01*
X53407459Y52324000D01*
X53348741Y52324000D01*
X52775252Y52209926D01*
X52289071Y51885070D01*
X52108100Y51614228D01*
X51927129Y51885070D01*
X51440948Y52209926D01*
X50867459Y52324000D01*
X50808741Y52324000D01*
X50235252Y52209926D01*
X49749071Y51885070D01*
X49568100Y51614228D01*
X49387129Y51885070D01*
X48900948Y52209926D01*
X48327459Y52324000D01*
X48268741Y52324000D01*
X47695252Y52209926D01*
X47209071Y51885070D01*
X47028100Y51614228D01*
X46847129Y51885070D01*
X46360948Y52209926D01*
X45787459Y52324000D01*
X45728741Y52324000D01*
X45155252Y52209926D01*
X44669071Y51885070D01*
X44344215Y51398889D01*
X44230141Y50825400D01*
X44344215Y50251911D01*
X44669071Y49765730D01*
X45155252Y49440874D01*
X45728741Y49326800D01*
X45787459Y49326800D01*
X46360948Y49440874D01*
X46847129Y49765730D01*
X47028100Y50036572D01*
X47209071Y49765730D01*
X47695252Y49440874D01*
X48268741Y49326800D01*
X48327459Y49326800D01*
X48900948Y49440874D01*
X49387129Y49765730D01*
X49568100Y50036572D01*
X49749071Y49765730D01*
X50235252Y49440874D01*
X50808741Y49326800D01*
X50867459Y49326800D01*
X51440948Y49440874D01*
X51927129Y49765730D01*
X52108100Y50036572D01*
X52289071Y49765730D01*
X52679600Y49504787D01*
X52679600Y49475152D01*
X50370224Y47165776D01*
X50199537Y46910325D01*
X50139600Y46609000D01*
X50139600Y40889952D01*
X47673776Y43355776D01*
X47418325Y43526463D01*
X47117000Y43586400D01*
X38211646Y43586400D01*
X38036147Y43849054D01*
X37994548Y43876850D01*
X38042317Y43885838D01*
X38258441Y44024910D01*
X38403431Y44237110D01*
X38454440Y44489000D01*
X38454440Y46189000D01*
X38410162Y46424317D01*
X38271090Y46640441D01*
X38058890Y46785431D01*
X37807000Y46836440D01*
X37401500Y46836440D01*
X37401500Y49564188D01*
X37703129Y49765730D01*
X37884100Y50036572D01*
X38065071Y49765730D01*
X38551252Y49440874D01*
X39124741Y49326800D01*
X39183459Y49326800D01*
X39756948Y49440874D01*
X40243129Y49765730D01*
X40424100Y50036572D01*
X40605071Y49765730D01*
X41091252Y49440874D01*
X41664741Y49326800D01*
X41723459Y49326800D01*
X42296948Y49440874D01*
X42783129Y49765730D01*
X43107985Y50251911D01*
X43222059Y50825400D01*
X43107985Y51398889D01*
X42783129Y51885070D01*
X42296948Y52209926D01*
X41723459Y52324000D01*
X41664741Y52324000D01*
X41091252Y52209926D01*
X40605071Y51885070D01*
X40424100Y51614228D01*
X40243129Y51885070D01*
X39756948Y52209926D01*
X39183459Y52324000D01*
X39124741Y52324000D01*
X38551252Y52209926D01*
X38065071Y51885070D01*
X37884100Y51614228D01*
X37703129Y51885070D01*
X37216948Y52209926D01*
X36643459Y52324000D01*
X36584741Y52324000D01*
X36011252Y52209926D01*
X35525071Y51885070D01*
X35344100Y51614228D01*
X35163129Y51885070D01*
X34676948Y52209926D01*
X34103459Y52324000D01*
X34044741Y52324000D01*
X33471252Y52209926D01*
X32985071Y51885070D01*
X32804100Y51614228D01*
X32623129Y51885070D01*
X32136948Y52209926D01*
X31563459Y52324000D01*
X31504741Y52324000D01*
X30931252Y52209926D01*
X30445071Y51885070D01*
X30264100Y51614228D01*
X30083129Y51885070D01*
X29596948Y52209926D01*
X29023459Y52324000D01*
X28964741Y52324000D01*
X28391252Y52209926D01*
X27905071Y51885070D01*
X27724108Y51614239D01*
X27342590Y52032221D01*
X26813127Y52280368D01*
X26581100Y52159869D01*
X26581100Y50952400D01*
X26601100Y50952400D01*
X26601100Y50698400D01*
X26581100Y50698400D01*
X26581100Y49490931D01*
X26813127Y49370432D01*
X27342590Y49618579D01*
X27724108Y50036561D01*
X27905071Y49765730D01*
X28391252Y49440874D01*
X28964741Y49326800D01*
X29023459Y49326800D01*
X29596948Y49440874D01*
X30083129Y49765730D01*
X30264100Y50036572D01*
X30445071Y49765730D01*
X30931252Y49440874D01*
X31504741Y49326800D01*
X31563459Y49326800D01*
X32136948Y49440874D01*
X32623129Y49765730D01*
X32804100Y50036572D01*
X32985071Y49765730D01*
X33471252Y49440874D01*
X34044741Y49326800D01*
X34103459Y49326800D01*
X34676948Y49440874D01*
X35163129Y49765730D01*
X35344100Y50036572D01*
X35525071Y49765730D01*
X35826700Y49564188D01*
X35826700Y46763216D01*
X35655559Y46653090D01*
X35510569Y46440890D01*
X35459560Y46189000D01*
X35459560Y44489000D01*
X35503838Y44253683D01*
X35642910Y44037559D01*
X35855110Y43892569D01*
X35922541Y43878914D01*
X35877853Y43849054D01*
X35702354Y43586400D01*
X28602111Y43586400D01*
X28597327Y43591192D01*
X28253799Y43733838D01*
X27881833Y43734162D01*
X27538057Y43592117D01*
X27274808Y43329327D01*
X27132162Y42985799D01*
X27131838Y42613833D01*
X27273883Y42270057D01*
X27536673Y42006808D01*
X27880201Y41864162D01*
X28252167Y41863838D01*
X28595943Y42005883D01*
X28601670Y42011600D01*
X35702354Y42011600D01*
X35877853Y41748946D01*
X36359622Y41427039D01*
X36927907Y41314000D01*
X36986093Y41314000D01*
X37554378Y41427039D01*
X38036147Y41748946D01*
X38211646Y42011600D01*
X46790848Y42011600D01*
X48869600Y39932848D01*
X48869600Y38531010D01*
X48573799Y38653838D01*
X48201833Y38654162D01*
X47858057Y38512117D01*
X47594808Y38249327D01*
X47452162Y37905799D01*
X47451838Y37533833D01*
X47593883Y37190057D01*
X47599600Y37184330D01*
X47599600Y30099000D01*
X47659537Y29797675D01*
X47830224Y29542224D01*
X49100224Y28272224D01*
X49355675Y28101537D01*
X49657000Y28041600D01*
X50391889Y28041600D01*
X50396673Y28036808D01*
X50740201Y27894162D01*
X51112167Y27893838D01*
X51455943Y28035883D01*
X51719192Y28298673D01*
X51861838Y28642201D01*
X51862162Y29014167D01*
X51720117Y29357943D01*
X51457327Y29621192D01*
X51113799Y29763838D01*
X50741833Y29764162D01*
X50398057Y29622117D01*
X50392330Y29616400D01*
X49983152Y29616400D01*
X49174400Y30425152D01*
X49174400Y30556990D01*
X49470201Y30434162D01*
X49842167Y30433838D01*
X50185943Y30575883D01*
X50449192Y30838673D01*
X50591838Y31182201D01*
X50592162Y31554167D01*
X50450117Y31897943D01*
X50444400Y31903670D01*
X50444400Y36906990D01*
X50740201Y36784162D01*
X51112167Y36783838D01*
X51409600Y36906735D01*
X51409600Y31904111D01*
X51404808Y31899327D01*
X51262162Y31555799D01*
X51261838Y31183833D01*
X51403883Y30840057D01*
X51666673Y30576808D01*
X52010201Y30434162D01*
X52382167Y30433838D01*
X52725943Y30575883D01*
X52989192Y30838673D01*
X53131838Y31182201D01*
X53132162Y31554167D01*
X52990117Y31897943D01*
X52984400Y31903670D01*
X52984400Y42799000D01*
X54492907Y42799000D01*
X54605946Y42230715D01*
X54927853Y41748946D01*
X55409622Y41427039D01*
X55977907Y41314000D01*
X56036093Y41314000D01*
X56604378Y41427039D01*
X57086147Y41748946D01*
X57408054Y42230715D01*
X57521093Y42799000D01*
X58302907Y42799000D01*
X58415946Y42230715D01*
X58737853Y41748946D01*
X59219622Y41427039D01*
X59787907Y41314000D01*
X59846093Y41314000D01*
X60414378Y41427039D01*
X60896147Y41748946D01*
X61218054Y42230715D01*
X61331093Y42799000D01*
X61218054Y43367285D01*
X60896147Y43849054D01*
X60854548Y43876850D01*
X60902317Y43885838D01*
X61118441Y44024910D01*
X61263431Y44237110D01*
X61314440Y44489000D01*
X61314440Y46189000D01*
X61270162Y46424317D01*
X61131090Y46640441D01*
X60918890Y46785431D01*
X60667000Y46836440D01*
X58967000Y46836440D01*
X58731683Y46792162D01*
X58515559Y46653090D01*
X58370569Y46440890D01*
X58319560Y46189000D01*
X58319560Y44489000D01*
X58363838Y44253683D01*
X58502910Y44037559D01*
X58715110Y43892569D01*
X58782541Y43878914D01*
X58737853Y43849054D01*
X58415946Y43367285D01*
X58302907Y42799000D01*
X57521093Y42799000D01*
X57408054Y43367285D01*
X57086147Y43849054D01*
X57044548Y43876850D01*
X57092317Y43885838D01*
X57308441Y44024910D01*
X57453431Y44237110D01*
X57504440Y44489000D01*
X57504440Y46189000D01*
X57460162Y46424317D01*
X57321090Y46640441D01*
X57108890Y46785431D01*
X56857000Y46836440D01*
X55157000Y46836440D01*
X54921683Y46792162D01*
X54705559Y46653090D01*
X54560569Y46440890D01*
X54509560Y46189000D01*
X54509560Y44489000D01*
X54553838Y44253683D01*
X54692910Y44037559D01*
X54905110Y43892569D01*
X54972541Y43878914D01*
X54927853Y43849054D01*
X54605946Y43367285D01*
X54492907Y42799000D01*
X52984400Y42799000D01*
X52984400Y45012848D01*
X56474876Y48503324D01*
X56645563Y48758775D01*
X56705500Y49060100D01*
X56705500Y49564188D01*
X57007129Y49765730D01*
X57188100Y50036572D01*
X57369071Y49765730D01*
X57855252Y49440874D01*
X58428741Y49326800D01*
X58487459Y49326800D01*
X59060948Y49440874D01*
X59547129Y49765730D01*
X59728100Y50036572D01*
X59909071Y49765730D01*
X60395252Y49440874D01*
X60968741Y49326800D01*
X61027459Y49326800D01*
X61600948Y49440874D01*
X62087129Y49765730D01*
X62268100Y50036572D01*
X62449071Y49765730D01*
X62935252Y49440874D01*
X63508741Y49326800D01*
X63567459Y49326800D01*
X64140948Y49440874D01*
X64627129Y49765730D01*
X64770000Y49979551D01*
X64770000Y46757342D01*
X64728890Y46785431D01*
X64477000Y46836440D01*
X62777000Y46836440D01*
X62541683Y46792162D01*
X62325559Y46653090D01*
X62180569Y46440890D01*
X62129560Y46189000D01*
X62129560Y44489000D01*
X62173838Y44253683D01*
X62312910Y44037559D01*
X62525110Y43892569D01*
X62592541Y43878914D01*
X62547853Y43849054D01*
X62225946Y43367285D01*
X62112907Y42799000D01*
X62225946Y42230715D01*
X62547853Y41748946D01*
X63029622Y41427039D01*
X63597907Y41314000D01*
X63656093Y41314000D01*
X64224378Y41427039D01*
X64706147Y41748946D01*
X64770000Y41844509D01*
X64770000Y40259000D01*
X64780006Y40209590D01*
X64807197Y40169197D01*
X67310000Y37666394D01*
X67310000Y37493893D01*
X66524619Y37820011D01*
X65635481Y37820787D01*
X64813728Y37481245D01*
X64184464Y36853079D01*
X63843489Y36031919D01*
X63842713Y35142781D01*
X64182255Y34321028D01*
X64810421Y33691764D01*
X65631581Y33350789D01*
X66520719Y33350013D01*
X67310000Y33676138D01*
X67310000Y31541317D01*
X67294129Y31565070D01*
X66807948Y31889926D01*
X66234459Y32004000D01*
X66175741Y32004000D01*
X65602252Y31889926D01*
X65116071Y31565070D01*
X64935100Y31294228D01*
X64754129Y31565070D01*
X64267948Y31889926D01*
X63694459Y32004000D01*
X63635741Y32004000D01*
X63062252Y31889926D01*
X62576071Y31565070D01*
X62267006Y31102522D01*
X62206624Y31062176D01*
X60530224Y29385776D01*
X60359537Y29130325D01*
X60299600Y28829000D01*
X60299600Y21535152D01*
X58220848Y19456400D01*
X54279010Y19456400D01*
X54401838Y19752201D01*
X54401845Y19760293D01*
X55293776Y20652224D01*
X55464463Y20907675D01*
X55524400Y21209000D01*
X55524400Y23749000D01*
X55464463Y24050325D01*
X55293776Y24305776D01*
X54402156Y25197396D01*
X54402162Y25204167D01*
X54260117Y25547943D01*
X53997327Y25811192D01*
X53653799Y25953838D01*
X53281833Y25954162D01*
X52938057Y25812117D01*
X52674808Y25549327D01*
X52532162Y25205799D01*
X52531838Y24833833D01*
X52637310Y24578570D01*
X52577191Y24603534D01*
X52556646Y24617262D01*
X52532623Y24622040D01*
X52383799Y24683838D01*
X52221234Y24683980D01*
X52197000Y24688800D01*
X44966278Y24688800D01*
X41706800Y27948278D01*
X41706800Y31369000D01*
X41702022Y31393022D01*
X41702162Y31554167D01*
X41640083Y31704411D01*
X41635262Y31728646D01*
X41621654Y31749012D01*
X41560117Y31897943D01*
X41445267Y32012994D01*
X41431539Y32033539D01*
X41411173Y32047147D01*
X41297327Y32161192D01*
X41147191Y32223534D01*
X41126646Y32237262D01*
X41102623Y32242040D01*
X40953799Y32303838D01*
X40791234Y32303980D01*
X40767000Y32308800D01*
X38227000Y32308800D01*
X37867354Y32237262D01*
X37562461Y32033539D01*
X34933561Y29404639D01*
X34729838Y29099746D01*
X34658300Y28740100D01*
X34658300Y3724782D01*
X34509071Y3625070D01*
X34328100Y3354228D01*
X34147129Y3625070D01*
X33660948Y3949926D01*
X33087459Y4064000D01*
X33028741Y4064000D01*
X32455252Y3949926D01*
X31969071Y3625070D01*
X31788100Y3354228D01*
X31607129Y3625070D01*
X31120948Y3949926D01*
X30547459Y4064000D01*
X30488741Y4064000D01*
X29915252Y3949926D01*
X29429071Y3625070D01*
X29248100Y3354228D01*
X29067129Y3625070D01*
X28580948Y3949926D01*
X28007459Y4064000D01*
X27948741Y4064000D01*
X27375252Y3949926D01*
X26889071Y3625070D01*
X26564215Y3138889D01*
X26450141Y2565400D01*
X26564215Y1991911D01*
X26889071Y1505730D01*
X27375252Y1180874D01*
X27948741Y1066800D01*
X28007459Y1066800D01*
X28580948Y1180874D01*
X29067129Y1505730D01*
X29248100Y1776572D01*
X29429071Y1505730D01*
X29915252Y1180874D01*
X30488741Y1066800D01*
X30547459Y1066800D01*
X31120948Y1180874D01*
X31607129Y1505730D01*
X31788100Y1776572D01*
X31969071Y1505730D01*
X32455252Y1180874D01*
X33028741Y1066800D01*
X33087459Y1066800D01*
X33660948Y1180874D01*
X34147129Y1505730D01*
X34328100Y1776572D01*
X34509071Y1505730D01*
X34995252Y1180874D01*
X35568741Y1066800D01*
X35627459Y1066800D01*
X36200948Y1180874D01*
X36687129Y1505730D01*
X36868100Y1776572D01*
X37049071Y1505730D01*
X37535252Y1180874D01*
X38108741Y1066800D01*
X38167459Y1066800D01*
X38740948Y1180874D01*
X39227129Y1505730D01*
X39408092Y1776561D01*
X39789610Y1358579D01*
X40319073Y1110432D01*
X40551100Y1230931D01*
X40551100Y2438400D01*
X40805100Y2438400D01*
X40805100Y1230931D01*
X41037127Y1110432D01*
X41566590Y1358579D01*
X41948100Y1776552D01*
X42329610Y1358579D01*
X42859073Y1110432D01*
X43091100Y1230931D01*
X43091100Y2438400D01*
X40805100Y2438400D01*
X40551100Y2438400D01*
X40531100Y2438400D01*
X40531100Y2692400D01*
X40551100Y2692400D01*
X40551100Y3899869D01*
X40805100Y3899869D01*
X40805100Y2692400D01*
X43091100Y2692400D01*
X43091100Y3899869D01*
X43345100Y3899869D01*
X43345100Y2692400D01*
X43365100Y2692400D01*
X43365100Y2438400D01*
X43345100Y2438400D01*
X43345100Y1230931D01*
X43577127Y1110432D01*
X44106590Y1358579D01*
X44488108Y1776561D01*
X44669071Y1505730D01*
X45155252Y1180874D01*
X45728741Y1066800D01*
X45787459Y1066800D01*
X46360948Y1180874D01*
X46847129Y1505730D01*
X47171985Y1991911D01*
X47286059Y2565400D01*
X47171985Y3138889D01*
X46847129Y3625070D01*
X46360948Y3949926D01*
X45787459Y4064000D01*
X45728741Y4064000D01*
X45155252Y3949926D01*
X44669071Y3625070D01*
X44488108Y3354239D01*
X44106590Y3772221D01*
X43577127Y4020368D01*
X43345100Y3899869D01*
X43091100Y3899869D01*
X42859073Y4020368D01*
X42329610Y3772221D01*
X41948100Y3354248D01*
X41566590Y3772221D01*
X41037127Y4020368D01*
X40805100Y3899869D01*
X40551100Y3899869D01*
X40319073Y4020368D01*
X39789610Y3772221D01*
X39408092Y3354239D01*
X39227129Y3625070D01*
X38740948Y3949926D01*
X38167459Y4064000D01*
X38108741Y4064000D01*
X37535252Y3949926D01*
X37049071Y3625070D01*
X36868100Y3354228D01*
X36687129Y3625070D01*
X36537900Y3724782D01*
X36537900Y11729132D01*
X60041737Y11729132D01*
X60152641Y11451901D01*
X60798593Y11208677D01*
X61488453Y11231164D01*
X62021359Y11451901D01*
X62132263Y11729132D01*
X61087000Y12774395D01*
X60041737Y11729132D01*
X36537900Y11729132D01*
X36537900Y13242407D01*
X59341677Y13242407D01*
X59364164Y12552547D01*
X59584901Y12019641D01*
X59862132Y11908737D01*
X60907395Y12954000D01*
X61266605Y12954000D01*
X62311868Y11908737D01*
X62589099Y12019641D01*
X62832323Y12665593D01*
X62813521Y13242407D01*
X64421677Y13242407D01*
X64444164Y12552547D01*
X64664901Y12019641D01*
X64942132Y11908737D01*
X65987395Y12954000D01*
X64942132Y13999263D01*
X64664901Y13888359D01*
X64421677Y13242407D01*
X62813521Y13242407D01*
X62809836Y13355453D01*
X62589099Y13888359D01*
X62311868Y13999263D01*
X61266605Y12954000D01*
X60907395Y12954000D01*
X59862132Y13999263D01*
X59584901Y13888359D01*
X59341677Y13242407D01*
X36537900Y13242407D01*
X36537900Y14178868D01*
X60041737Y14178868D01*
X61087000Y13133605D01*
X62132263Y14178868D01*
X62021359Y14456099D01*
X61375407Y14699323D01*
X60685547Y14676836D01*
X60152641Y14456099D01*
X60041737Y14178868D01*
X36537900Y14178868D01*
X36537900Y15170205D01*
X61991716Y15170205D01*
X62240106Y14569057D01*
X62699637Y14108722D01*
X63300352Y13859284D01*
X63950795Y13858716D01*
X64551943Y14107106D01*
X65012278Y14566637D01*
X65261716Y15167352D01*
X65262284Y15817795D01*
X65013894Y16418943D01*
X64554363Y16879278D01*
X63953648Y17128716D01*
X63303205Y17129284D01*
X62702057Y16880894D01*
X62241722Y16421363D01*
X61992284Y15820648D01*
X61991716Y15170205D01*
X36537900Y15170205D01*
X36537900Y16809132D01*
X60041737Y16809132D01*
X60152641Y16531901D01*
X60798593Y16288677D01*
X61488453Y16311164D01*
X62021359Y16531901D01*
X62132263Y16809132D01*
X61087000Y17854395D01*
X60041737Y16809132D01*
X36537900Y16809132D01*
X36537900Y19244548D01*
X37670224Y18112224D01*
X37925675Y17941537D01*
X38227000Y17881600D01*
X58547000Y17881600D01*
X58848325Y17941537D01*
X59103776Y18112224D01*
X59358417Y18366865D01*
X59341677Y18322407D01*
X59364164Y17632547D01*
X59584901Y17099641D01*
X59862132Y16988737D01*
X60907395Y18034000D01*
X61266605Y18034000D01*
X62311868Y16988737D01*
X62589099Y17099641D01*
X62832323Y17745593D01*
X62813521Y18322407D01*
X64421677Y18322407D01*
X64444164Y17632547D01*
X64664901Y17099641D01*
X64942132Y16988737D01*
X65987395Y18034000D01*
X64942132Y19079263D01*
X64664901Y18968359D01*
X64421677Y18322407D01*
X62813521Y18322407D01*
X62809836Y18435453D01*
X62589099Y18968359D01*
X62311868Y19079263D01*
X61266605Y18034000D01*
X60907395Y18034000D01*
X60893253Y18048142D01*
X61072858Y18227747D01*
X61087000Y18213605D01*
X62132263Y19258868D01*
X62021359Y19536099D01*
X61375407Y19779323D01*
X60750505Y19758953D01*
X61643776Y20652224D01*
X61814463Y20907675D01*
X61874400Y21209000D01*
X61874400Y28502848D01*
X62720666Y29349114D01*
X62890852Y29235400D01*
X62576071Y29025070D01*
X62251215Y28538889D01*
X62137141Y27965400D01*
X62251215Y27391911D01*
X62576071Y26905730D01*
X62890852Y26695400D01*
X62576071Y26485070D01*
X62251215Y25998889D01*
X62137141Y25425400D01*
X62251215Y24851911D01*
X62576071Y24365730D01*
X63062252Y24040874D01*
X63635741Y23926800D01*
X63694459Y23926800D01*
X64267948Y24040874D01*
X64754129Y24365730D01*
X64935100Y24636572D01*
X65116071Y24365730D01*
X65602252Y24040874D01*
X66175741Y23926800D01*
X66234459Y23926800D01*
X66807948Y24040874D01*
X67294129Y24365730D01*
X67310000Y24389483D01*
X67310000Y19356608D01*
X67212262Y19258870D01*
X67101359Y19536099D01*
X66455407Y19779323D01*
X65765547Y19756836D01*
X65232641Y19536099D01*
X65121737Y19258868D01*
X66167000Y18213605D01*
X66181143Y18227747D01*
X66360748Y18048142D01*
X66346605Y18034000D01*
X66360748Y18019857D01*
X66181143Y17840252D01*
X66167000Y17854395D01*
X65121737Y16809132D01*
X65232641Y16531901D01*
X65878593Y16288677D01*
X66568453Y16311164D01*
X67101359Y16531901D01*
X67212262Y16809130D01*
X67310000Y16711392D01*
X67310000Y14276608D01*
X67212262Y14178870D01*
X67101359Y14456099D01*
X66455407Y14699323D01*
X65765547Y14676836D01*
X65232641Y14456099D01*
X65121737Y14178868D01*
X66167000Y13133605D01*
X66181143Y13147747D01*
X66360748Y12968142D01*
X66346605Y12954000D01*
X66360748Y12939857D01*
X66181143Y12760252D01*
X66167000Y12774395D01*
X65121737Y11729132D01*
X65232641Y11451901D01*
X65878593Y11208677D01*
X66568453Y11231164D01*
X67101359Y11451901D01*
X67212262Y11729130D01*
X67310000Y11631392D01*
X67310000Y9553893D01*
X66524619Y9880011D01*
X65635481Y9880787D01*
X64813728Y9541245D01*
X64184464Y8913079D01*
X63843489Y8091919D01*
X63842713Y7202781D01*
X64182255Y6381028D01*
X64810421Y5751764D01*
X65631581Y5410789D01*
X66520719Y5410013D01*
X67310000Y5736138D01*
X67310000Y4751606D01*
X65051723Y2493329D01*
X65066059Y2565400D01*
X64951985Y3138889D01*
X64627129Y3625070D01*
X64140948Y3949926D01*
X63567459Y4064000D01*
X63508741Y4064000D01*
X62935252Y3949926D01*
X62449071Y3625070D01*
X62268100Y3354228D01*
X62087129Y3625070D01*
X61600948Y3949926D01*
X61027459Y4064000D01*
X60968741Y4064000D01*
X60395252Y3949926D01*
X59909071Y3625070D01*
X59728100Y3354228D01*
X59547129Y3625070D01*
X59060948Y3949926D01*
X58487459Y4064000D01*
X58428741Y4064000D01*
X57855252Y3949926D01*
X57369071Y3625070D01*
X57188100Y3354228D01*
X57007129Y3625070D01*
X56520948Y3949926D01*
X55947459Y4064000D01*
X55888741Y4064000D01*
X55315252Y3949926D01*
X54829071Y3625070D01*
X54648100Y3354228D01*
X54467129Y3625070D01*
X53980948Y3949926D01*
X53407459Y4064000D01*
X53348741Y4064000D01*
X52775252Y3949926D01*
X52289071Y3625070D01*
X52108100Y3354228D01*
X51927129Y3625070D01*
X51440948Y3949926D01*
X50867459Y4064000D01*
X50808741Y4064000D01*
X50235252Y3949926D01*
X49749071Y3625070D01*
X49424215Y3138889D01*
X49310141Y2565400D01*
X49424215Y1991911D01*
X49749071Y1505730D01*
X50235252Y1180874D01*
X50808741Y1066800D01*
X50867459Y1066800D01*
X51440948Y1180874D01*
X51927129Y1505730D01*
X52108100Y1776572D01*
X52289071Y1505730D01*
X52775252Y1180874D01*
X53348741Y1066800D01*
X53407459Y1066800D01*
X53980948Y1180874D01*
X54467129Y1505730D01*
X54648100Y1776572D01*
X54829071Y1505730D01*
X55315252Y1180874D01*
X55888741Y1066800D01*
X55947459Y1066800D01*
X56520948Y1180874D01*
X57007129Y1505730D01*
X57188100Y1776572D01*
X57369071Y1505730D01*
X57855252Y1180874D01*
X58428741Y1066800D01*
X58487459Y1066800D01*
X59060948Y1180874D01*
X59547129Y1505730D01*
X59728100Y1776572D01*
X59909071Y1505730D01*
X60395252Y1180874D01*
X60968741Y1066800D01*
X61027459Y1066800D01*
X61600948Y1180874D01*
X62087129Y1505730D01*
X62268100Y1776572D01*
X62449071Y1505730D01*
X62935252Y1180874D01*
X63508741Y1066800D01*
X63567459Y1066800D01*
X64140948Y1180874D01*
X64627129Y1505730D01*
X64770000Y1719551D01*
X64770000Y1016000D01*
X15619523Y1016000D01*
X15901736Y1297721D01*
X16242711Y2118881D01*
X16243487Y3008019D01*
X15903945Y3829772D01*
X15275779Y4459036D01*
X14454619Y4800011D01*
X13565481Y4800787D01*
X12743728Y4461245D01*
X12114464Y3833079D01*
X11773489Y3011919D01*
X11772713Y2122781D01*
X12112255Y1301028D01*
X12396786Y1016000D01*
X1524000Y1016000D01*
X1524000Y12903573D01*
X1686078Y12511314D01*
X2221495Y11974961D01*
X2921410Y11684332D01*
X3679265Y11683670D01*
X4379686Y11973078D01*
X4648299Y12241223D01*
X11023828Y12241223D01*
X11155520Y11946343D01*
X11863036Y11674739D01*
X12620632Y11694564D01*
X13228480Y11946343D01*
X13360172Y12241223D01*
X12192000Y13409395D01*
X11023828Y12241223D01*
X4648299Y12241223D01*
X4916039Y12508495D01*
X5206668Y13208410D01*
X5207287Y13917964D01*
X10277739Y13917964D01*
X10297564Y13160368D01*
X10549343Y12552520D01*
X10844223Y12420828D01*
X12012395Y13589000D01*
X12371605Y13589000D01*
X13539777Y12420828D01*
X13834657Y12552520D01*
X14106261Y13260036D01*
X14086436Y14017632D01*
X13834657Y14625480D01*
X13539777Y14757172D01*
X12371605Y13589000D01*
X12012395Y13589000D01*
X10844223Y14757172D01*
X10549343Y14625480D01*
X10277739Y13917964D01*
X5207287Y13917964D01*
X5207330Y13966265D01*
X4917922Y14666686D01*
X4648303Y14936777D01*
X11023828Y14936777D01*
X12192000Y13768605D01*
X13360172Y14936777D01*
X13228480Y15231657D01*
X12520964Y15503261D01*
X11763368Y15483436D01*
X11155520Y15231657D01*
X11023828Y14936777D01*
X4648303Y14936777D01*
X4382505Y15203039D01*
X3682590Y15493668D01*
X2924735Y15494330D01*
X2224314Y15204922D01*
X1687961Y14669505D01*
X1524000Y14274642D01*
X1524000Y17021735D01*
X14731670Y17021735D01*
X15021078Y16321314D01*
X15556495Y15784961D01*
X16256410Y15494332D01*
X17014265Y15493670D01*
X17714686Y15783078D01*
X18251039Y16318495D01*
X18541668Y17018410D01*
X18542330Y17776265D01*
X18252922Y18476686D01*
X17717505Y19013039D01*
X17017590Y19303668D01*
X16259735Y19304330D01*
X15559314Y19014922D01*
X15022961Y18479505D01*
X14732332Y17779590D01*
X14731670Y17021735D01*
X1524000Y17021735D01*
X1524000Y20831735D01*
X6476670Y20831735D01*
X6766078Y20131314D01*
X7301495Y19594961D01*
X8001410Y19304332D01*
X8759265Y19303670D01*
X9459686Y19593078D01*
X9996039Y20128495D01*
X10286668Y20828410D01*
X10286670Y20831735D01*
X10921670Y20831735D01*
X11211078Y20131314D01*
X11746495Y19594961D01*
X12446410Y19304332D01*
X13204265Y19303670D01*
X13904686Y19593078D01*
X14441039Y20128495D01*
X14731668Y20828410D01*
X14732330Y21586265D01*
X14442922Y22286686D01*
X13907505Y22823039D01*
X13207590Y23113668D01*
X12449735Y23114330D01*
X11749314Y22824922D01*
X11212961Y22289505D01*
X10922332Y21589590D01*
X10921670Y20831735D01*
X10286670Y20831735D01*
X10287330Y21586265D01*
X9997922Y22286686D01*
X9462505Y22823039D01*
X8762590Y23113668D01*
X8004735Y23114330D01*
X7304314Y22824922D01*
X6767961Y22289505D01*
X6477332Y21589590D01*
X6476670Y20831735D01*
X1524000Y20831735D01*
X1524000Y37033573D01*
X1686078Y36641314D01*
X2221495Y36104961D01*
X2921410Y35814332D01*
X3679265Y35813670D01*
X4379686Y36103078D01*
X4916039Y36638495D01*
X5206668Y37338410D01*
X5206670Y37341735D01*
X15366670Y37341735D01*
X15656078Y36641314D01*
X16191495Y36104961D01*
X16891410Y35814332D01*
X17649265Y35813670D01*
X18349686Y36103078D01*
X18886039Y36638495D01*
X19176668Y37338410D01*
X19177330Y38096265D01*
X18887922Y38796686D01*
X18352505Y39333039D01*
X17652590Y39623668D01*
X16894735Y39624330D01*
X16194314Y39334922D01*
X15657961Y38799505D01*
X15367332Y38099590D01*
X15366670Y37341735D01*
X5206670Y37341735D01*
X5207330Y38096265D01*
X4917922Y38796686D01*
X4382505Y39333039D01*
X3682590Y39623668D01*
X2924735Y39624330D01*
X2224314Y39334922D01*
X1687961Y38799505D01*
X1524000Y38404642D01*
X1524000Y41252339D01*
X10794758Y41252339D01*
X11006990Y40738697D01*
X11399630Y40345371D01*
X11912900Y40132243D01*
X12468661Y40131758D01*
X12982303Y40343990D01*
X13375629Y40736630D01*
X13588757Y41249900D01*
X13588759Y41252339D01*
X15874758Y41252339D01*
X16086990Y40738697D01*
X16479630Y40345371D01*
X16992900Y40132243D01*
X17548661Y40131758D01*
X18062303Y40343990D01*
X18455629Y40736630D01*
X18668757Y41249900D01*
X18669242Y41805661D01*
X18457010Y42319303D01*
X18064370Y42712629D01*
X17551100Y42925757D01*
X16995339Y42926242D01*
X16481697Y42714010D01*
X16088371Y42321370D01*
X15875243Y41808100D01*
X15874758Y41252339D01*
X13588759Y41252339D01*
X13589242Y41805661D01*
X13377010Y42319303D01*
X12984370Y42712629D01*
X12471100Y42925757D01*
X11915339Y42926242D01*
X11401697Y42714010D01*
X11008371Y42321370D01*
X10795243Y41808100D01*
X10794758Y41252339D01*
X1524000Y41252339D01*
X1524000Y44961735D01*
X6476670Y44961735D01*
X6766078Y44261314D01*
X7301495Y43724961D01*
X8001410Y43434332D01*
X8759265Y43433670D01*
X9459686Y43723078D01*
X9728299Y43991223D01*
X16103828Y43991223D01*
X16235520Y43696343D01*
X16943036Y43424739D01*
X17700632Y43444564D01*
X18308480Y43696343D01*
X18440172Y43991223D01*
X17272000Y45159395D01*
X16103828Y43991223D01*
X9728299Y43991223D01*
X9996039Y44258495D01*
X10286668Y44958410D01*
X10287287Y45667964D01*
X15357739Y45667964D01*
X15377564Y44910368D01*
X15629343Y44302520D01*
X15924223Y44170828D01*
X17092395Y45339000D01*
X17451605Y45339000D01*
X18619777Y44170828D01*
X18914657Y44302520D01*
X19186261Y45010036D01*
X19166436Y45767632D01*
X18914657Y46375480D01*
X18619777Y46507172D01*
X17451605Y45339000D01*
X17092395Y45339000D01*
X15924223Y46507172D01*
X15629343Y46375480D01*
X15357739Y45667964D01*
X10287287Y45667964D01*
X10287330Y45716265D01*
X9997922Y46416686D01*
X9728303Y46686777D01*
X16103828Y46686777D01*
X17272000Y45518605D01*
X18440172Y46686777D01*
X18308480Y46981657D01*
X17600964Y47253261D01*
X16843368Y47233436D01*
X16235520Y46981657D01*
X16103828Y46686777D01*
X9728303Y46686777D01*
X9462505Y46953039D01*
X8762590Y47243668D01*
X8004735Y47244330D01*
X7304314Y46954922D01*
X6767961Y46419505D01*
X6477332Y45719590D01*
X6476670Y44961735D01*
X1524000Y44961735D01*
X1524000Y52630000D01*
X13922324Y52630000D01*
X13384464Y52093079D01*
M02*
