G04 #@! TF.FileFunction,Copper,L1,Top,Signal*
%FSLAX46Y46*%
G04 Gerber Fmt 4.6, Leading zero omitted, Abs format (unit mm)*
G04 Created by KiCad (PCBNEW 4.0.7) date 05/12/18 01:40:03*
%MOMM*%
%LPD*%
G01*
G04 APERTURE LIST*
%ADD10C,0.100000*%
%ADD11C,2.540000*%
%ADD12C,1.524000*%
%ADD13R,1.700000X1.700000*%
%ADD14O,1.700000X1.700000*%
%ADD15C,2.200000*%
%ADD16C,2.000000*%
%ADD17O,3.599180X1.198880*%
%ADD18O,1.727200X1.727200*%
%ADD19R,0.750000X1.200000*%
%ADD20R,1.200000X0.750000*%
%ADD21R,0.900000X1.200000*%
%ADD22R,0.600000X1.500000*%
%ADD23R,1.550000X0.600000*%
%ADD24C,0.600000*%
%ADD25C,0.609600*%
%ADD26C,0.304800*%
%ADD27C,0.254000*%
G04 APERTURE END LIST*
D10*
D11*
X17272000Y37719000D03*
D12*
X17272000Y41529000D03*
D11*
X17272000Y45339000D03*
X3302000Y37719000D03*
X8382000Y45339000D03*
D12*
X12192000Y41529000D03*
D11*
X12192000Y13589000D03*
X16637000Y17399000D03*
X12827000Y21209000D03*
X3302000Y13589000D03*
X8382000Y21209000D03*
D13*
X56007000Y45339000D03*
D14*
X56007000Y42799000D03*
D13*
X59817000Y45339000D03*
D14*
X59817000Y42799000D03*
D13*
X63627000Y45339000D03*
D14*
X63627000Y42799000D03*
D15*
X61087000Y12954000D03*
X61087000Y18034000D03*
X66167000Y18034000D03*
X66167000Y12954000D03*
D16*
X63627000Y15494000D03*
D17*
X56385460Y15481300D03*
X56385460Y17480280D03*
X40388540Y15481300D03*
X56385460Y25478740D03*
X56385460Y27477720D03*
X56385460Y29476700D03*
X40388540Y29476700D03*
X40388540Y19479260D03*
X40388540Y21480780D03*
X56385460Y19479260D03*
X40388540Y23477220D03*
X40388540Y25478740D03*
X40388540Y17480280D03*
X40388540Y27477720D03*
X56385460Y21480780D03*
X56385460Y23477220D03*
D18*
X63665100Y25425400D03*
X66205100Y25425400D03*
X66205100Y27965400D03*
X63665100Y27965400D03*
X66205100Y30505400D03*
X50838100Y2565400D03*
X45758100Y2565400D03*
X43218100Y2565400D03*
X40678100Y2565400D03*
X38138100Y2565400D03*
X35598100Y2565400D03*
X33058100Y2565400D03*
X30518100Y2565400D03*
X63538100Y50825400D03*
X60998100Y50825400D03*
X58458100Y50825400D03*
X55918100Y50825400D03*
X53378100Y50825400D03*
X50838100Y50825400D03*
X48298100Y50825400D03*
X45758100Y50825400D03*
X26454100Y50825400D03*
X41694100Y50825400D03*
X39154100Y50825400D03*
X36614100Y50825400D03*
X18834100Y50825400D03*
X21374100Y50825400D03*
X23914100Y50825400D03*
X28994100Y50825400D03*
X31534100Y50825400D03*
X34074100Y50825400D03*
X27978100Y2565400D03*
X53378100Y2565400D03*
X55918100Y2565400D03*
X58458100Y2565400D03*
X60998100Y2565400D03*
X63538100Y2565400D03*
X63665100Y30505400D03*
D19*
X38227000Y35499000D03*
X38227000Y37399000D03*
D20*
X28387000Y23749000D03*
X30287000Y23749000D03*
D19*
X59817000Y23429000D03*
X59817000Y21529000D03*
D21*
X21717000Y35009000D03*
X21717000Y32809000D03*
X21717000Y29929000D03*
X21717000Y27729000D03*
X21717000Y24849000D03*
X21717000Y22649000D03*
D22*
X41402000Y33749000D03*
X42672000Y33749000D03*
X43942000Y33749000D03*
X45212000Y33749000D03*
X46482000Y33749000D03*
X47752000Y33749000D03*
X49022000Y33749000D03*
X50292000Y33749000D03*
X50292000Y39149000D03*
X49022000Y39149000D03*
X47752000Y39149000D03*
X46482000Y39149000D03*
X45212000Y39149000D03*
X43942000Y39149000D03*
X42672000Y39149000D03*
X41402000Y39149000D03*
D23*
X32037000Y26924000D03*
X32037000Y28194000D03*
X32037000Y29464000D03*
X32037000Y30734000D03*
X26637000Y30734000D03*
X26637000Y29464000D03*
X26637000Y28194000D03*
X26637000Y26924000D03*
D13*
X36957000Y45339000D03*
D14*
X36957000Y42799000D03*
D21*
X30607000Y34079000D03*
X30607000Y36279000D03*
X28067000Y36279000D03*
X28067000Y34079000D03*
D24*
X40767000Y31369000D03*
X52197000Y23749000D03*
X58547000Y13589000D03*
X53467000Y38989000D03*
X53467000Y33909000D03*
X50927000Y37719000D03*
X50927000Y28829000D03*
X48387000Y37719000D03*
X53467000Y19939000D03*
X53467000Y25019000D03*
X52197000Y31369000D03*
X36957000Y27559000D03*
X28067000Y42799000D03*
X49657000Y31369000D03*
D25*
X56385460Y23477220D02*
X52468780Y23477220D01*
X41402000Y32004000D02*
X41402000Y33749000D01*
X40767000Y31369000D02*
X41402000Y32004000D01*
X52468780Y23477220D02*
X52197000Y23749000D01*
X56385460Y23477220D02*
X59768780Y23477220D01*
X59768780Y23477220D02*
X59817000Y23429000D01*
X41402000Y33749000D02*
X39977000Y33749000D01*
X39977000Y33749000D02*
X38227000Y35499000D01*
X56385460Y17480280D02*
X52278280Y17480280D01*
X57277000Y12319000D02*
X58547000Y13589000D01*
X53467000Y12319000D02*
X57277000Y12319000D01*
X52197000Y13589000D02*
X53467000Y12319000D01*
X52197000Y17399000D02*
X52197000Y13589000D01*
X52278280Y17480280D02*
X52197000Y17399000D01*
X50292000Y33749000D02*
X53307000Y33749000D01*
X53467000Y38989000D02*
X52197000Y40259000D01*
X53307000Y33749000D02*
X53467000Y33909000D01*
X47752000Y39624000D02*
X47752000Y39149000D01*
X21717000Y22649000D02*
X28387000Y22649000D01*
X28387000Y22649000D02*
X28387000Y22479000D01*
X28387000Y23749000D02*
X28387000Y22479000D01*
X28387000Y22479000D02*
X28387000Y19619000D01*
X28387000Y19619000D02*
X38138100Y9867900D01*
X38138100Y6057900D02*
X38138100Y2565400D01*
X38138100Y9867900D02*
X38138100Y6057900D01*
X28387000Y23749000D02*
X28387000Y26924000D01*
X28387000Y26924000D02*
X28067000Y26924000D01*
X26637000Y26924000D02*
X28067000Y26924000D01*
X28067000Y26924000D02*
X29042000Y26924000D01*
X28067000Y32639000D02*
X29337000Y31369000D01*
X29337000Y31369000D02*
X29337000Y27219000D01*
X28067000Y32639000D02*
X28067000Y34079000D01*
X29042000Y26924000D02*
X29337000Y27219000D01*
D26*
X23622000Y28194000D02*
X22987000Y27559000D01*
X26637000Y28194000D02*
X23622000Y28194000D01*
X22987000Y27559000D02*
X21887000Y27559000D01*
X21887000Y27559000D02*
X21717000Y27729000D01*
X21717000Y27729000D02*
X19007000Y27729000D01*
X17272000Y29464000D02*
X17907000Y28829000D01*
X17272000Y29464000D02*
X17272000Y37719000D01*
X19007000Y27729000D02*
X17907000Y28829000D01*
X21717000Y27729000D02*
X21717000Y24849000D01*
X21717000Y24849000D02*
X16467000Y24849000D01*
X16467000Y24849000D02*
X12827000Y21209000D01*
X21717000Y29929000D02*
X23157000Y29929000D01*
X23622000Y29464000D02*
X23157000Y29929000D01*
X23622000Y29464000D02*
X26637000Y29464000D01*
X12827000Y17399000D02*
X11557000Y17399000D01*
X10541000Y18415000D02*
X10541000Y36703000D01*
X11557000Y17399000D02*
X10541000Y18415000D01*
X17272000Y41529000D02*
X15367000Y41529000D01*
X15367000Y41529000D02*
X10541000Y36703000D01*
X12827000Y17399000D02*
X16637000Y17399000D01*
X17272000Y41529000D02*
X17907000Y41529000D01*
X17907000Y41529000D02*
X20447000Y38989000D01*
X20447000Y38989000D02*
X20447000Y34079000D01*
X20447000Y34079000D02*
X21717000Y32809000D01*
X21717000Y32809000D02*
X21717000Y29929000D01*
X56007000Y45339000D02*
X56007000Y47244000D01*
X58458100Y49695100D02*
X58458100Y50825400D01*
X56007000Y47244000D02*
X58458100Y49695100D01*
X34417000Y41529000D02*
X34417000Y46609000D01*
X56007000Y42799000D02*
X52197000Y42799000D01*
X52197000Y42799000D02*
X47117000Y47879000D01*
X36957000Y47879000D02*
X47117000Y47879000D01*
X34417000Y41529000D02*
X34417000Y28829000D01*
X35687000Y47879000D02*
X36957000Y47879000D01*
X34417000Y46609000D02*
X35687000Y47879000D01*
X32037000Y29464000D02*
X34417000Y29464000D01*
X34417000Y29464000D02*
X34417000Y28829000D01*
X32037000Y28194000D02*
X33782000Y28194000D01*
X33782000Y28194000D02*
X34417000Y28829000D01*
X32037000Y29464000D02*
X31242000Y29464000D01*
X30607000Y30099000D02*
X30607000Y34079000D01*
X31242000Y29464000D02*
X30607000Y30099000D01*
X59817000Y45339000D02*
X59817000Y47244000D01*
X60998100Y48425100D02*
X60998100Y50825400D01*
X59817000Y47244000D02*
X60998100Y48425100D01*
X32037000Y30734000D02*
X32512000Y30734000D01*
X32512000Y30734000D02*
X33147000Y31369000D01*
X33147000Y31369000D02*
X33147000Y47879000D01*
X33147000Y47879000D02*
X34417000Y49149000D01*
X35687000Y49149000D02*
X48387000Y49149000D01*
X54737000Y44069000D02*
X53467000Y44069000D01*
X53467000Y44069000D02*
X49657000Y47879000D01*
X58547000Y44069000D02*
X54737000Y44069000D01*
X58547000Y44069000D02*
X59817000Y42799000D01*
X49657000Y47879000D02*
X48387000Y49149000D01*
X35687000Y49149000D02*
X34417000Y49149000D01*
X63627000Y45339000D02*
X63627000Y50736500D01*
X63627000Y50736500D02*
X63538100Y50825400D01*
X63538100Y45427900D02*
X63627000Y45339000D01*
X63627000Y41529000D02*
X63627000Y42799000D01*
X32037000Y26924000D02*
X33782000Y26924000D01*
X35687000Y28829000D02*
X33782000Y26924000D01*
X35687000Y38989000D02*
X36957000Y40259000D01*
X36957000Y40259000D02*
X38227000Y41529000D01*
X38227000Y41529000D02*
X53467000Y41529000D01*
X53467000Y41529000D02*
X54737000Y40259000D01*
X54737000Y40259000D02*
X62357000Y40259000D01*
X63627000Y41529000D02*
X62357000Y40259000D01*
X35687000Y38989000D02*
X35687000Y28829000D01*
X56385460Y15481300D02*
X63614300Y15481300D01*
X63614300Y15481300D02*
X63627000Y15494000D01*
X50292000Y39149000D02*
X50292000Y38354000D01*
X50292000Y38354000D02*
X50927000Y37719000D01*
X50927000Y37719000D02*
X50927000Y37719000D01*
X42672000Y33749000D02*
X42672000Y30734000D01*
X42496740Y25478740D02*
X43307000Y26289000D01*
X43307000Y26289000D02*
X43307000Y30099000D01*
X42496740Y25478740D02*
X40388540Y25478740D01*
X42672000Y30734000D02*
X43307000Y30099000D01*
X40469820Y17399000D02*
X45847000Y17399000D01*
X49657000Y26289000D02*
X50927000Y27559000D01*
X50927000Y27559000D02*
X50927000Y28829000D01*
X45847000Y17399000D02*
X49657000Y21209000D01*
X49657000Y21209000D02*
X49657000Y26289000D01*
X40469820Y17399000D02*
X40388540Y17480280D01*
X49022000Y39149000D02*
X49022000Y38354000D01*
X49022000Y38354000D02*
X48387000Y37719000D01*
X48387000Y37719000D02*
X48387000Y37719000D01*
X66205100Y27965400D02*
X64960500Y29210000D01*
X62611000Y29210000D02*
X59182000Y32639000D01*
X64960500Y29210000D02*
X62611000Y29210000D01*
X43942000Y33749000D02*
X43942000Y34544000D01*
X55372000Y36449000D02*
X59182000Y32639000D01*
X45847000Y36449000D02*
X55372000Y36449000D01*
X43942000Y34544000D02*
X45847000Y36449000D01*
X40388540Y23477220D02*
X43035220Y23477220D01*
X45212000Y25654000D02*
X43307000Y23749000D01*
X45212000Y25654000D02*
X45212000Y33749000D01*
X43035220Y23477220D02*
X43307000Y23749000D01*
X63665100Y27965400D02*
X61950600Y27965400D01*
X61950600Y27965400D02*
X60452000Y29464000D01*
X54737000Y35179000D02*
X58547000Y31369000D01*
X47117000Y35179000D02*
X54737000Y35179000D01*
X46482000Y34544000D02*
X47117000Y35179000D01*
X46482000Y33749000D02*
X46482000Y34544000D01*
X60452000Y29464000D02*
X58547000Y31369000D01*
X47752000Y33749000D02*
X47752000Y30734000D01*
X47117000Y30099000D02*
X47117000Y23749000D01*
X47752000Y30734000D02*
X47117000Y30099000D01*
X44848780Y21480780D02*
X47117000Y23749000D01*
X44848780Y21480780D02*
X40388540Y21480780D01*
X53926740Y19479260D02*
X53467000Y19939000D01*
X53467000Y25019000D02*
X53926740Y25478740D01*
X56385460Y25478740D02*
X53926740Y25478740D01*
X53926740Y19479260D02*
X56385460Y19479260D01*
X53467000Y21480780D02*
X51925220Y21480780D01*
X52115720Y27477720D02*
X50927000Y26289000D01*
X50927000Y26289000D02*
X50927000Y23749000D01*
X52115720Y27477720D02*
X53467000Y27477720D01*
X50927000Y22479000D02*
X50927000Y23749000D01*
X51925220Y21480780D02*
X50927000Y22479000D01*
X56385460Y27477720D02*
X53467000Y27477720D01*
X53467000Y27477720D02*
X53385720Y27477720D01*
X53195220Y21480780D02*
X53467000Y21480780D01*
X53467000Y21480780D02*
X56385460Y21480780D01*
X40388540Y19479260D02*
X45387260Y19479260D01*
X48387000Y22479000D02*
X48387000Y27559000D01*
X48387000Y27559000D02*
X52197000Y31369000D01*
X45387260Y19479260D02*
X48387000Y22479000D01*
X37038280Y27477720D02*
X36957000Y27559000D01*
X40388540Y27477720D02*
X37038280Y27477720D01*
X49657000Y31369000D02*
X49022000Y32004000D01*
X28067000Y42799000D02*
X28067000Y36279000D01*
X49022000Y32004000D02*
X49022000Y33749000D01*
D27*
G36*
X13384464Y52093079D02*
X13043489Y51271919D01*
X13042713Y50382781D01*
X13382255Y49561028D01*
X14010421Y48931764D01*
X14831581Y48590789D01*
X15720719Y48590013D01*
X16542472Y48929555D01*
X17171736Y49557721D01*
X17444745Y50215200D01*
X17745071Y49765730D01*
X18231252Y49440874D01*
X18804741Y49326800D01*
X18863459Y49326800D01*
X19436948Y49440874D01*
X19923129Y49765730D01*
X20104100Y50036572D01*
X20285071Y49765730D01*
X20771252Y49440874D01*
X21344741Y49326800D01*
X21403459Y49326800D01*
X21976948Y49440874D01*
X22463129Y49765730D01*
X22644100Y50036572D01*
X22825071Y49765730D01*
X23311252Y49440874D01*
X23884741Y49326800D01*
X23943459Y49326800D01*
X24516948Y49440874D01*
X25003129Y49765730D01*
X25184092Y50036561D01*
X25565610Y49618579D01*
X26095073Y49370432D01*
X26327100Y49490931D01*
X26327100Y50698400D01*
X26307100Y50698400D01*
X26307100Y50952400D01*
X26327100Y50952400D01*
X26327100Y52159869D01*
X26095073Y52280368D01*
X25565610Y52032221D01*
X25184092Y51614239D01*
X25003129Y51885070D01*
X24516948Y52209926D01*
X23943459Y52324000D01*
X23884741Y52324000D01*
X23311252Y52209926D01*
X22825071Y51885070D01*
X22644100Y51614228D01*
X22463129Y51885070D01*
X21976948Y52209926D01*
X21403459Y52324000D01*
X21344741Y52324000D01*
X20771252Y52209926D01*
X20285071Y51885070D01*
X20104100Y51614228D01*
X19923129Y51885070D01*
X19436948Y52209926D01*
X18863459Y52324000D01*
X18804741Y52324000D01*
X18231252Y52209926D01*
X17745071Y51885070D01*
X17444435Y51435137D01*
X17173945Y52089772D01*
X16634660Y52630000D01*
X63776394Y52630000D01*
X64308267Y52098127D01*
X64140948Y52209926D01*
X63567459Y52324000D01*
X63508741Y52324000D01*
X62935252Y52209926D01*
X62449071Y51885070D01*
X62268100Y51614228D01*
X62087129Y51885070D01*
X61600948Y52209926D01*
X61027459Y52324000D01*
X60968741Y52324000D01*
X60395252Y52209926D01*
X59909071Y51885070D01*
X59728100Y51614228D01*
X59547129Y51885070D01*
X59060948Y52209926D01*
X58487459Y52324000D01*
X58428741Y52324000D01*
X57855252Y52209926D01*
X57369071Y51885070D01*
X57188100Y51614228D01*
X57007129Y51885070D01*
X56520948Y52209926D01*
X55947459Y52324000D01*
X55888741Y52324000D01*
X55315252Y52209926D01*
X54829071Y51885070D01*
X54648100Y51614228D01*
X54467129Y51885070D01*
X53980948Y52209926D01*
X53407459Y52324000D01*
X53348741Y52324000D01*
X52775252Y52209926D01*
X52289071Y51885070D01*
X52108100Y51614228D01*
X51927129Y51885070D01*
X51440948Y52209926D01*
X50867459Y52324000D01*
X50808741Y52324000D01*
X50235252Y52209926D01*
X49749071Y51885070D01*
X49568100Y51614228D01*
X49387129Y51885070D01*
X48900948Y52209926D01*
X48327459Y52324000D01*
X48268741Y52324000D01*
X47695252Y52209926D01*
X47209071Y51885070D01*
X47028100Y51614228D01*
X46847129Y51885070D01*
X46360948Y52209926D01*
X45787459Y52324000D01*
X45728741Y52324000D01*
X45155252Y52209926D01*
X44669071Y51885070D01*
X44344215Y51398889D01*
X44230141Y50825400D01*
X44344215Y50251911D01*
X44555033Y49936400D01*
X42897167Y49936400D01*
X43107985Y50251911D01*
X43222059Y50825400D01*
X43107985Y51398889D01*
X42783129Y51885070D01*
X42296948Y52209926D01*
X41723459Y52324000D01*
X41664741Y52324000D01*
X41091252Y52209926D01*
X40605071Y51885070D01*
X40424100Y51614228D01*
X40243129Y51885070D01*
X39756948Y52209926D01*
X39183459Y52324000D01*
X39124741Y52324000D01*
X38551252Y52209926D01*
X38065071Y51885070D01*
X37884100Y51614228D01*
X37703129Y51885070D01*
X37216948Y52209926D01*
X36643459Y52324000D01*
X36584741Y52324000D01*
X36011252Y52209926D01*
X35525071Y51885070D01*
X35344100Y51614228D01*
X35163129Y51885070D01*
X34676948Y52209926D01*
X34103459Y52324000D01*
X34044741Y52324000D01*
X33471252Y52209926D01*
X32985071Y51885070D01*
X32804100Y51614228D01*
X32623129Y51885070D01*
X32136948Y52209926D01*
X31563459Y52324000D01*
X31504741Y52324000D01*
X30931252Y52209926D01*
X30445071Y51885070D01*
X30264100Y51614228D01*
X30083129Y51885070D01*
X29596948Y52209926D01*
X29023459Y52324000D01*
X28964741Y52324000D01*
X28391252Y52209926D01*
X27905071Y51885070D01*
X27724108Y51614239D01*
X27342590Y52032221D01*
X26813127Y52280368D01*
X26581100Y52159869D01*
X26581100Y50952400D01*
X26601100Y50952400D01*
X26601100Y50698400D01*
X26581100Y50698400D01*
X26581100Y49490931D01*
X26813127Y49370432D01*
X27342590Y49618579D01*
X27724108Y50036561D01*
X27905071Y49765730D01*
X28391252Y49440874D01*
X28964741Y49326800D01*
X29023459Y49326800D01*
X29596948Y49440874D01*
X30083129Y49765730D01*
X30264100Y50036572D01*
X30445071Y49765730D01*
X30931252Y49440874D01*
X31504741Y49326800D01*
X31563459Y49326800D01*
X32136948Y49440874D01*
X32623129Y49765730D01*
X32804100Y50036572D01*
X32985071Y49765730D01*
X33471252Y49440874D01*
X33574737Y49420289D01*
X32590224Y48435776D01*
X32419537Y48180325D01*
X32359600Y47879000D01*
X32359600Y31695152D01*
X32345888Y31681440D01*
X31394400Y31681440D01*
X31394400Y32941527D01*
X31508441Y33014910D01*
X31653431Y33227110D01*
X31704440Y33479000D01*
X31704440Y34679000D01*
X31660162Y34914317D01*
X31521090Y35130441D01*
X31452994Y35176969D01*
X31595327Y35319302D01*
X31692000Y35552691D01*
X31692000Y35993250D01*
X31533250Y36152000D01*
X30734000Y36152000D01*
X30734000Y36132000D01*
X30480000Y36132000D01*
X30480000Y36152000D01*
X29680750Y36152000D01*
X29522000Y35993250D01*
X29522000Y35552691D01*
X29618673Y35319302D01*
X29759910Y35178064D01*
X29705559Y35143090D01*
X29560569Y34930890D01*
X29509560Y34679000D01*
X29509560Y33479000D01*
X29553838Y33243683D01*
X29692910Y33027559D01*
X29819600Y32940995D01*
X29819600Y32215478D01*
X29006800Y33028278D01*
X29006800Y33071050D01*
X29113431Y33227110D01*
X29164440Y33479000D01*
X29164440Y34679000D01*
X29120162Y34914317D01*
X28981090Y35130441D01*
X28911289Y35178134D01*
X28968441Y35214910D01*
X29113431Y35427110D01*
X29164440Y35679000D01*
X29164440Y36879000D01*
X29140674Y37005309D01*
X29522000Y37005309D01*
X29522000Y36564750D01*
X29680750Y36406000D01*
X30480000Y36406000D01*
X30480000Y37355250D01*
X30734000Y37355250D01*
X30734000Y36406000D01*
X31533250Y36406000D01*
X31692000Y36564750D01*
X31692000Y37005309D01*
X31595327Y37238698D01*
X31416699Y37417327D01*
X31183310Y37514000D01*
X30892750Y37514000D01*
X30734000Y37355250D01*
X30480000Y37355250D01*
X30321250Y37514000D01*
X30030690Y37514000D01*
X29797301Y37417327D01*
X29618673Y37238698D01*
X29522000Y37005309D01*
X29140674Y37005309D01*
X29120162Y37114317D01*
X28981090Y37330441D01*
X28854400Y37417005D01*
X28854400Y42263889D01*
X28859192Y42268673D01*
X29001838Y42612201D01*
X29002162Y42984167D01*
X28860117Y43327943D01*
X28597327Y43591192D01*
X28253799Y43733838D01*
X27881833Y43734162D01*
X27538057Y43592117D01*
X27274808Y43329327D01*
X27132162Y42985799D01*
X27131838Y42613833D01*
X27273883Y42270057D01*
X27279600Y42264330D01*
X27279600Y37416473D01*
X27165559Y37343090D01*
X27020569Y37130890D01*
X26969560Y36879000D01*
X26969560Y35679000D01*
X27013838Y35443683D01*
X27152910Y35227559D01*
X27222711Y35179866D01*
X27165559Y35143090D01*
X27020569Y34930890D01*
X26969560Y34679000D01*
X26969560Y33479000D01*
X27013838Y33243683D01*
X27127200Y33067513D01*
X27127200Y32639000D01*
X27198738Y32279354D01*
X27402461Y31974461D01*
X28397200Y30979722D01*
X28397200Y27863800D01*
X28053324Y27863800D01*
X28059440Y27894000D01*
X28059440Y28494000D01*
X28015162Y28729317D01*
X27951322Y28828528D01*
X28008431Y28912110D01*
X28059440Y29164000D01*
X28059440Y29764000D01*
X28015162Y29999317D01*
X27956822Y30089980D01*
X28047000Y30307690D01*
X28047000Y30448250D01*
X27888250Y30607000D01*
X26764000Y30607000D01*
X26764000Y30587000D01*
X26510000Y30587000D01*
X26510000Y30607000D01*
X25385750Y30607000D01*
X25227000Y30448250D01*
X25227000Y30307690D01*
X25250316Y30251400D01*
X23948152Y30251400D01*
X23713776Y30485776D01*
X23458325Y30656463D01*
X23157000Y30716400D01*
X22779178Y30716400D01*
X22770162Y30764317D01*
X22631090Y30980441D01*
X22504400Y31067005D01*
X22504400Y31160310D01*
X25227000Y31160310D01*
X25227000Y31019750D01*
X25385750Y30861000D01*
X26510000Y30861000D01*
X26510000Y31510250D01*
X26764000Y31510250D01*
X26764000Y30861000D01*
X27888250Y30861000D01*
X28047000Y31019750D01*
X28047000Y31160310D01*
X27950327Y31393699D01*
X27771698Y31572327D01*
X27538309Y31669000D01*
X26922750Y31669000D01*
X26764000Y31510250D01*
X26510000Y31510250D01*
X26351250Y31669000D01*
X25735691Y31669000D01*
X25502302Y31572327D01*
X25323673Y31393699D01*
X25227000Y31160310D01*
X22504400Y31160310D01*
X22504400Y31671527D01*
X22618441Y31744910D01*
X22763431Y31957110D01*
X22814440Y32209000D01*
X22814440Y33409000D01*
X22770162Y33644317D01*
X22631090Y33860441D01*
X22562994Y33906969D01*
X22705327Y34049302D01*
X22802000Y34282691D01*
X22802000Y34723250D01*
X22643250Y34882000D01*
X21844000Y34882000D01*
X21844000Y34862000D01*
X21590000Y34862000D01*
X21590000Y34882000D01*
X21570000Y34882000D01*
X21570000Y35136000D01*
X21590000Y35136000D01*
X21590000Y36085250D01*
X21844000Y36085250D01*
X21844000Y35136000D01*
X22643250Y35136000D01*
X22802000Y35294750D01*
X22802000Y35735309D01*
X22705327Y35968698D01*
X22526699Y36147327D01*
X22293310Y36244000D01*
X22002750Y36244000D01*
X21844000Y36085250D01*
X21590000Y36085250D01*
X21431250Y36244000D01*
X21234400Y36244000D01*
X21234400Y38989000D01*
X21174463Y39290325D01*
X21003776Y39545776D01*
X18616679Y41932873D01*
X18457010Y42319303D01*
X18064370Y42712629D01*
X17551100Y42925757D01*
X16995339Y42926242D01*
X16481697Y42714010D01*
X16088371Y42321370D01*
X16086307Y42316400D01*
X15367000Y42316400D01*
X15065675Y42256463D01*
X14810224Y42085776D01*
X9984224Y37259776D01*
X9813537Y37004325D01*
X9753600Y36703000D01*
X9753600Y22531435D01*
X9462505Y22823039D01*
X8762590Y23113668D01*
X8004735Y23114330D01*
X7304314Y22824922D01*
X6767961Y22289505D01*
X6477332Y21589590D01*
X6476670Y20831735D01*
X6766078Y20131314D01*
X7301495Y19594961D01*
X8001410Y19304332D01*
X8759265Y19303670D01*
X9459686Y19593078D01*
X9753600Y19886479D01*
X9753600Y18415000D01*
X9813537Y18113675D01*
X9984224Y17858224D01*
X11000224Y16842224D01*
X11255675Y16671537D01*
X11557000Y16611600D01*
X14901134Y16611600D01*
X15021078Y16321314D01*
X15556495Y15784961D01*
X16256410Y15494332D01*
X17014265Y15493670D01*
X17714686Y15783078D01*
X18251039Y16318495D01*
X18541668Y17018410D01*
X18542330Y17776265D01*
X18252922Y18476686D01*
X17717505Y19013039D01*
X17017590Y19303668D01*
X16259735Y19304330D01*
X15559314Y19014922D01*
X15022961Y18479505D01*
X14901254Y18186400D01*
X11883152Y18186400D01*
X11328400Y18741152D01*
X11328400Y20013787D01*
X11746495Y19594961D01*
X12446410Y19304332D01*
X13204265Y19303670D01*
X13904686Y19593078D01*
X14441039Y20128495D01*
X14731668Y20828410D01*
X14732330Y21586265D01*
X14611134Y21879582D01*
X16793152Y24061600D01*
X20654822Y24061600D01*
X20663838Y24013683D01*
X20802910Y23797559D01*
X20872711Y23749866D01*
X20815559Y23713090D01*
X20670569Y23500890D01*
X20619560Y23249000D01*
X20619560Y22049000D01*
X20663838Y21813683D01*
X20802910Y21597559D01*
X21015110Y21452569D01*
X21267000Y21401560D01*
X22167000Y21401560D01*
X22402317Y21445838D01*
X22618441Y21584910D01*
X22703365Y21709200D01*
X27447200Y21709200D01*
X27447200Y19619000D01*
X27518738Y19259354D01*
X27722461Y18954461D01*
X37198300Y9478622D01*
X37198300Y3724782D01*
X37049071Y3625070D01*
X36868100Y3354228D01*
X36687129Y3625070D01*
X36200948Y3949926D01*
X35627459Y4064000D01*
X35568741Y4064000D01*
X34995252Y3949926D01*
X34509071Y3625070D01*
X34328100Y3354228D01*
X34147129Y3625070D01*
X33660948Y3949926D01*
X33087459Y4064000D01*
X33028741Y4064000D01*
X32455252Y3949926D01*
X31969071Y3625070D01*
X31788100Y3354228D01*
X31607129Y3625070D01*
X31120948Y3949926D01*
X30547459Y4064000D01*
X30488741Y4064000D01*
X29915252Y3949926D01*
X29429071Y3625070D01*
X29248100Y3354228D01*
X29067129Y3625070D01*
X28580948Y3949926D01*
X28007459Y4064000D01*
X27948741Y4064000D01*
X27375252Y3949926D01*
X26889071Y3625070D01*
X26564215Y3138889D01*
X26450141Y2565400D01*
X26564215Y1991911D01*
X26889071Y1505730D01*
X27375252Y1180874D01*
X27948741Y1066800D01*
X28007459Y1066800D01*
X28580948Y1180874D01*
X29067129Y1505730D01*
X29248100Y1776572D01*
X29429071Y1505730D01*
X29915252Y1180874D01*
X30488741Y1066800D01*
X30547459Y1066800D01*
X31120948Y1180874D01*
X31607129Y1505730D01*
X31788100Y1776572D01*
X31969071Y1505730D01*
X32455252Y1180874D01*
X33028741Y1066800D01*
X33087459Y1066800D01*
X33660948Y1180874D01*
X34147129Y1505730D01*
X34328100Y1776572D01*
X34509071Y1505730D01*
X34995252Y1180874D01*
X35568741Y1066800D01*
X35627459Y1066800D01*
X36200948Y1180874D01*
X36687129Y1505730D01*
X36868100Y1776572D01*
X37049071Y1505730D01*
X37535252Y1180874D01*
X38108741Y1066800D01*
X38167459Y1066800D01*
X38740948Y1180874D01*
X39227129Y1505730D01*
X39408092Y1776561D01*
X39789610Y1358579D01*
X40319073Y1110432D01*
X40551100Y1230931D01*
X40551100Y2438400D01*
X40805100Y2438400D01*
X40805100Y1230931D01*
X41037127Y1110432D01*
X41566590Y1358579D01*
X41948100Y1776552D01*
X42329610Y1358579D01*
X42859073Y1110432D01*
X43091100Y1230931D01*
X43091100Y2438400D01*
X40805100Y2438400D01*
X40551100Y2438400D01*
X40531100Y2438400D01*
X40531100Y2692400D01*
X40551100Y2692400D01*
X40551100Y3899869D01*
X40805100Y3899869D01*
X40805100Y2692400D01*
X43091100Y2692400D01*
X43091100Y3899869D01*
X43345100Y3899869D01*
X43345100Y2692400D01*
X43365100Y2692400D01*
X43365100Y2438400D01*
X43345100Y2438400D01*
X43345100Y1230931D01*
X43577127Y1110432D01*
X44106590Y1358579D01*
X44488108Y1776561D01*
X44669071Y1505730D01*
X45155252Y1180874D01*
X45728741Y1066800D01*
X45787459Y1066800D01*
X46360948Y1180874D01*
X46847129Y1505730D01*
X47171985Y1991911D01*
X47286059Y2565400D01*
X47171985Y3138889D01*
X46847129Y3625070D01*
X46360948Y3949926D01*
X45787459Y4064000D01*
X45728741Y4064000D01*
X45155252Y3949926D01*
X44669071Y3625070D01*
X44488108Y3354239D01*
X44106590Y3772221D01*
X43577127Y4020368D01*
X43345100Y3899869D01*
X43091100Y3899869D01*
X42859073Y4020368D01*
X42329610Y3772221D01*
X41948100Y3354248D01*
X41566590Y3772221D01*
X41037127Y4020368D01*
X40805100Y3899869D01*
X40551100Y3899869D01*
X40319073Y4020368D01*
X39789610Y3772221D01*
X39408092Y3354239D01*
X39227129Y3625070D01*
X39077900Y3724782D01*
X39077900Y9867900D01*
X39006362Y10227546D01*
X38802639Y10532439D01*
X37605946Y11729132D01*
X60041737Y11729132D01*
X60152641Y11451901D01*
X60798593Y11208677D01*
X61488453Y11231164D01*
X62021359Y11451901D01*
X62132263Y11729132D01*
X61087000Y12774395D01*
X60041737Y11729132D01*
X37605946Y11729132D01*
X36092671Y13242407D01*
X59341677Y13242407D01*
X59364164Y12552547D01*
X59584901Y12019641D01*
X59862132Y11908737D01*
X60907395Y12954000D01*
X61266605Y12954000D01*
X62311868Y11908737D01*
X62589099Y12019641D01*
X62832323Y12665593D01*
X62813521Y13242407D01*
X64421677Y13242407D01*
X64444164Y12552547D01*
X64664901Y12019641D01*
X64942132Y11908737D01*
X65987395Y12954000D01*
X64942132Y13999263D01*
X64664901Y13888359D01*
X64421677Y13242407D01*
X62813521Y13242407D01*
X62809836Y13355453D01*
X62589099Y13888359D01*
X62311868Y13999263D01*
X61266605Y12954000D01*
X60907395Y12954000D01*
X59862132Y13999263D01*
X59584901Y13888359D01*
X59341677Y13242407D01*
X36092671Y13242407D01*
X34171299Y15163779D01*
X37995485Y15163779D01*
X37999316Y15126233D01*
X38225707Y14698222D01*
X38598658Y14389427D01*
X39061390Y14246860D01*
X40261540Y14246860D01*
X40261540Y15354300D01*
X40515540Y15354300D01*
X40515540Y14246860D01*
X41715690Y14246860D01*
X42178422Y14389427D01*
X42551373Y14698222D01*
X42777764Y15126233D01*
X42781595Y15163779D01*
X42656857Y15354300D01*
X40515540Y15354300D01*
X40261540Y15354300D01*
X38120223Y15354300D01*
X37995485Y15163779D01*
X34171299Y15163779D01*
X33853778Y15481300D01*
X53903174Y15481300D01*
X53997140Y15008900D01*
X54264733Y14608419D01*
X54665214Y14340826D01*
X55137614Y14246860D01*
X57633306Y14246860D01*
X58105706Y14340826D01*
X58506187Y14608419D01*
X58563304Y14693900D01*
X61209039Y14693900D01*
X60685547Y14676836D01*
X60152641Y14456099D01*
X60041737Y14178868D01*
X61087000Y13133605D01*
X62132263Y14178868D01*
X62021359Y14456099D01*
X61389809Y14693900D01*
X62188522Y14693900D01*
X62240106Y14569057D01*
X62699637Y14108722D01*
X63300352Y13859284D01*
X63950795Y13858716D01*
X64551943Y14107106D01*
X65012278Y14566637D01*
X65261716Y15167352D01*
X65262284Y15817795D01*
X65013894Y16418943D01*
X64554363Y16879278D01*
X63953648Y17128716D01*
X63303205Y17129284D01*
X62702057Y16880894D01*
X62241722Y16421363D01*
X62178331Y16268700D01*
X58563304Y16268700D01*
X58506187Y16354181D01*
X58300220Y16491804D01*
X58548293Y16697202D01*
X58607496Y16809132D01*
X60041737Y16809132D01*
X60152641Y16531901D01*
X60798593Y16288677D01*
X61488453Y16311164D01*
X62021359Y16531901D01*
X62132263Y16809132D01*
X61087000Y17854395D01*
X60041737Y16809132D01*
X58607496Y16809132D01*
X58774684Y17125213D01*
X58778515Y17162759D01*
X58653777Y17353280D01*
X56512460Y17353280D01*
X56512460Y17333280D01*
X56258460Y17333280D01*
X56258460Y17353280D01*
X54117143Y17353280D01*
X53992405Y17162759D01*
X53996236Y17125213D01*
X54222627Y16697202D01*
X54470700Y16491804D01*
X54264733Y16354181D01*
X53997140Y15953700D01*
X53903174Y15481300D01*
X33853778Y15481300D01*
X29326800Y20008278D01*
X29326800Y22836175D01*
X29327302Y22835673D01*
X29560691Y22739000D01*
X30001250Y22739000D01*
X30160000Y22897750D01*
X30160000Y23622000D01*
X30414000Y23622000D01*
X30414000Y22897750D01*
X30572750Y22739000D01*
X31013309Y22739000D01*
X31246698Y22835673D01*
X31425327Y23014301D01*
X31522000Y23247690D01*
X31522000Y23463250D01*
X31363250Y23622000D01*
X30414000Y23622000D01*
X30160000Y23622000D01*
X30140000Y23622000D01*
X30140000Y23876000D01*
X30160000Y23876000D01*
X30160000Y24600250D01*
X30414000Y24600250D01*
X30414000Y23876000D01*
X31363250Y23876000D01*
X31522000Y24034750D01*
X31522000Y24250310D01*
X31425327Y24483699D01*
X31246698Y24662327D01*
X31013309Y24759000D01*
X30572750Y24759000D01*
X30414000Y24600250D01*
X30160000Y24600250D01*
X30001250Y24759000D01*
X29560691Y24759000D01*
X29327302Y24662327D01*
X29326800Y24661825D01*
X29326800Y26040850D01*
X29401646Y26055738D01*
X29706539Y26259461D01*
X30001539Y26554461D01*
X30205262Y26859354D01*
X30276800Y27219000D01*
X30276800Y29315648D01*
X30657696Y28934752D01*
X30658838Y28928683D01*
X30722678Y28829472D01*
X30665569Y28745890D01*
X30614560Y28494000D01*
X30614560Y27894000D01*
X30658838Y27658683D01*
X30722678Y27559472D01*
X30665569Y27475890D01*
X30614560Y27224000D01*
X30614560Y26624000D01*
X30658838Y26388683D01*
X30797910Y26172559D01*
X31010110Y26027569D01*
X31262000Y25976560D01*
X32812000Y25976560D01*
X33047317Y26020838D01*
X33227216Y26136600D01*
X33782000Y26136600D01*
X34083325Y26196537D01*
X34338776Y26367224D01*
X36243776Y28272224D01*
X36414463Y28527675D01*
X36474400Y28829000D01*
X36474400Y38125309D01*
X37217000Y38125309D01*
X37217000Y37684750D01*
X37375750Y37526000D01*
X38100000Y37526000D01*
X38100000Y38475250D01*
X38354000Y38475250D01*
X38354000Y37526000D01*
X39078250Y37526000D01*
X39237000Y37684750D01*
X39237000Y38125309D01*
X39140327Y38358698D01*
X38961699Y38537327D01*
X38728310Y38634000D01*
X38512750Y38634000D01*
X38354000Y38475250D01*
X38100000Y38475250D01*
X37941250Y38634000D01*
X37725690Y38634000D01*
X37492301Y38537327D01*
X37313673Y38358698D01*
X37217000Y38125309D01*
X36474400Y38125309D01*
X36474400Y38662848D01*
X37710552Y39899000D01*
X40454560Y39899000D01*
X40454560Y38399000D01*
X40498838Y38163683D01*
X40637910Y37947559D01*
X40850110Y37802569D01*
X41102000Y37751560D01*
X41702000Y37751560D01*
X41937317Y37795838D01*
X42036528Y37859678D01*
X42120110Y37802569D01*
X42372000Y37751560D01*
X42972000Y37751560D01*
X43207317Y37795838D01*
X43297980Y37854178D01*
X43515690Y37764000D01*
X43656250Y37764000D01*
X43815000Y37922750D01*
X43815000Y39022000D01*
X43795000Y39022000D01*
X43795000Y39276000D01*
X43815000Y39276000D01*
X43815000Y40375250D01*
X43656250Y40534000D01*
X43515690Y40534000D01*
X43298878Y40444194D01*
X43223890Y40495431D01*
X42972000Y40546440D01*
X42372000Y40546440D01*
X42136683Y40502162D01*
X42037472Y40438322D01*
X41953890Y40495431D01*
X41702000Y40546440D01*
X41102000Y40546440D01*
X40866683Y40502162D01*
X40650559Y40363090D01*
X40505569Y40150890D01*
X40454560Y39899000D01*
X37710552Y39899000D01*
X38553152Y40741600D01*
X53140848Y40741600D01*
X54180224Y39702224D01*
X54435675Y39531537D01*
X54737000Y39471600D01*
X62357000Y39471600D01*
X62658325Y39531537D01*
X62913776Y39702224D01*
X64183776Y40972224D01*
X64354463Y41227675D01*
X64414400Y41529000D01*
X64414400Y41554007D01*
X64706147Y41748946D01*
X64770000Y41844509D01*
X64770000Y40259000D01*
X64780006Y40209590D01*
X64807197Y40169197D01*
X67310000Y37666394D01*
X67310000Y37493893D01*
X66524619Y37820011D01*
X65635481Y37820787D01*
X64813728Y37481245D01*
X64184464Y36853079D01*
X63843489Y36031919D01*
X63842713Y35142781D01*
X64182255Y34321028D01*
X64810421Y33691764D01*
X65631581Y33350789D01*
X66520719Y33350013D01*
X67310000Y33676138D01*
X67310000Y31541317D01*
X67294129Y31565070D01*
X66807948Y31889926D01*
X66234459Y32004000D01*
X66175741Y32004000D01*
X65602252Y31889926D01*
X65116071Y31565070D01*
X64935100Y31294228D01*
X64754129Y31565070D01*
X64267948Y31889926D01*
X63694459Y32004000D01*
X63635741Y32004000D01*
X63062252Y31889926D01*
X62576071Y31565070D01*
X62251215Y31078889D01*
X62185589Y30748963D01*
X55928776Y37005776D01*
X55673325Y37176463D01*
X55372000Y37236400D01*
X51739010Y37236400D01*
X51861838Y37532201D01*
X51862162Y37904167D01*
X51720117Y38247943D01*
X51457327Y38511192D01*
X51239440Y38601667D01*
X51239440Y39899000D01*
X51195162Y40134317D01*
X51056090Y40350441D01*
X50843890Y40495431D01*
X50592000Y40546440D01*
X49992000Y40546440D01*
X49756683Y40502162D01*
X49657472Y40438322D01*
X49573890Y40495431D01*
X49322000Y40546440D01*
X48722000Y40546440D01*
X48486683Y40502162D01*
X48396020Y40443822D01*
X48178310Y40534000D01*
X48037750Y40534000D01*
X47879000Y40375250D01*
X47879000Y39276000D01*
X47899000Y39276000D01*
X47899000Y39022000D01*
X47879000Y39022000D01*
X47879000Y39002000D01*
X47625000Y39002000D01*
X47625000Y39022000D01*
X47605000Y39022000D01*
X47605000Y39276000D01*
X47625000Y39276000D01*
X47625000Y40375250D01*
X47466250Y40534000D01*
X47325690Y40534000D01*
X47108878Y40444194D01*
X47033890Y40495431D01*
X46782000Y40546440D01*
X46182000Y40546440D01*
X45946683Y40502162D01*
X45847472Y40438322D01*
X45763890Y40495431D01*
X45512000Y40546440D01*
X44912000Y40546440D01*
X44676683Y40502162D01*
X44586020Y40443822D01*
X44368310Y40534000D01*
X44227750Y40534000D01*
X44069000Y40375250D01*
X44069000Y39276000D01*
X44089000Y39276000D01*
X44089000Y39022000D01*
X44069000Y39022000D01*
X44069000Y37922750D01*
X44227750Y37764000D01*
X44368310Y37764000D01*
X44585122Y37853806D01*
X44660110Y37802569D01*
X44912000Y37751560D01*
X45512000Y37751560D01*
X45747317Y37795838D01*
X45846528Y37859678D01*
X45930110Y37802569D01*
X46182000Y37751560D01*
X46782000Y37751560D01*
X47017317Y37795838D01*
X47107980Y37854178D01*
X47325690Y37764000D01*
X47452038Y37764000D01*
X47451838Y37533833D01*
X47574735Y37236400D01*
X45847000Y37236400D01*
X45545675Y37176463D01*
X45290224Y37005776D01*
X43385224Y35100776D01*
X43370663Y35078984D01*
X43307472Y35038322D01*
X43223890Y35095431D01*
X42972000Y35146440D01*
X42372000Y35146440D01*
X42136683Y35102162D01*
X42037472Y35038322D01*
X41953890Y35095431D01*
X41702000Y35146440D01*
X41102000Y35146440D01*
X40866683Y35102162D01*
X40650559Y34963090D01*
X40505569Y34750890D01*
X40492995Y34688800D01*
X40366278Y34688800D01*
X39249440Y35805638D01*
X39249440Y36099000D01*
X39205162Y36334317D01*
X39138671Y36437646D01*
X39140327Y36439302D01*
X39237000Y36672691D01*
X39237000Y37113250D01*
X39078250Y37272000D01*
X38354000Y37272000D01*
X38354000Y37252000D01*
X38100000Y37252000D01*
X38100000Y37272000D01*
X37375750Y37272000D01*
X37217000Y37113250D01*
X37217000Y36672691D01*
X37313673Y36439302D01*
X37315043Y36437932D01*
X37255569Y36350890D01*
X37204560Y36099000D01*
X37204560Y34899000D01*
X37248838Y34663683D01*
X37387910Y34447559D01*
X37600110Y34302569D01*
X37852000Y34251560D01*
X38145362Y34251560D01*
X39312461Y33084461D01*
X39617354Y32880738D01*
X39977000Y32809200D01*
X40462200Y32809200D01*
X40462200Y32393278D01*
X40102461Y32033539D01*
X40088853Y32013173D01*
X39974808Y31899327D01*
X39912466Y31749191D01*
X39898738Y31728646D01*
X39893960Y31704623D01*
X39832162Y31555799D01*
X39832020Y31393234D01*
X39827200Y31369000D01*
X39831978Y31344978D01*
X39831838Y31183833D01*
X39893917Y31033589D01*
X39898738Y31009354D01*
X39912346Y30988988D01*
X39973883Y30840057D01*
X40088733Y30725006D01*
X40097998Y30711140D01*
X39140694Y30711140D01*
X38668294Y30617174D01*
X38267813Y30349581D01*
X38000220Y29949100D01*
X37906254Y29476700D01*
X38000220Y29004300D01*
X38267813Y28603819D01*
X38457297Y28477210D01*
X38267813Y28350601D01*
X38210696Y28265120D01*
X37573249Y28265120D01*
X37487327Y28351192D01*
X37143799Y28493838D01*
X36771833Y28494162D01*
X36428057Y28352117D01*
X36164808Y28089327D01*
X36022162Y27745799D01*
X36021838Y27373833D01*
X36163883Y27030057D01*
X36426673Y26766808D01*
X36770201Y26624162D01*
X37142167Y26623838D01*
X37303066Y26690320D01*
X38210696Y26690320D01*
X38267813Y26604839D01*
X38457297Y26478230D01*
X38267813Y26351621D01*
X38000220Y25951140D01*
X37906254Y25478740D01*
X38000220Y25006340D01*
X38267813Y24605859D01*
X38459197Y24477980D01*
X38267813Y24350101D01*
X38000220Y23949620D01*
X37906254Y23477220D01*
X38000220Y23004820D01*
X38267813Y22604339D01*
X38455396Y22479000D01*
X38267813Y22353661D01*
X38000220Y21953180D01*
X37906254Y21480780D01*
X38000220Y21008380D01*
X38267813Y20607899D01*
X38459197Y20480020D01*
X38267813Y20352141D01*
X38000220Y19951660D01*
X37906254Y19479260D01*
X38000220Y19006860D01*
X38267813Y18606379D01*
X38457297Y18479770D01*
X38267813Y18353161D01*
X38000220Y17952680D01*
X37906254Y17480280D01*
X38000220Y17007880D01*
X38267813Y16607399D01*
X38473780Y16469776D01*
X38225707Y16264378D01*
X37999316Y15836367D01*
X37995485Y15798821D01*
X38120223Y15608300D01*
X40261540Y15608300D01*
X40261540Y15628300D01*
X40515540Y15628300D01*
X40515540Y15608300D01*
X42656857Y15608300D01*
X42781595Y15798821D01*
X42777764Y15836367D01*
X42551373Y16264378D01*
X42303300Y16469776D01*
X42509267Y16607399D01*
X42512074Y16611600D01*
X45847000Y16611600D01*
X46148325Y16671537D01*
X46403776Y16842224D01*
X50213776Y20652224D01*
X50384463Y20907675D01*
X50444400Y21209000D01*
X50444400Y21848048D01*
X51368444Y20924004D01*
X51623895Y20753317D01*
X51925220Y20693380D01*
X52899252Y20693380D01*
X52674808Y20469327D01*
X52532162Y20125799D01*
X52531838Y19753833D01*
X52673883Y19410057D01*
X52936673Y19146808D01*
X53280201Y19004162D01*
X53288293Y19004155D01*
X53369964Y18922484D01*
X53625415Y18751797D01*
X53926740Y18691860D01*
X54207616Y18691860D01*
X54264733Y18606379D01*
X54470700Y18468756D01*
X54222627Y18263358D01*
X53996236Y17835347D01*
X53992405Y17797801D01*
X54117143Y17607280D01*
X56258460Y17607280D01*
X56258460Y17627280D01*
X56512460Y17627280D01*
X56512460Y17607280D01*
X58653777Y17607280D01*
X58778515Y17797801D01*
X58774684Y17835347D01*
X58548293Y18263358D01*
X58476976Y18322407D01*
X59341677Y18322407D01*
X59364164Y17632547D01*
X59584901Y17099641D01*
X59862132Y16988737D01*
X60907395Y18034000D01*
X61266605Y18034000D01*
X62311868Y16988737D01*
X62589099Y17099641D01*
X62832323Y17745593D01*
X62813521Y18322407D01*
X64421677Y18322407D01*
X64444164Y17632547D01*
X64664901Y17099641D01*
X64942132Y16988737D01*
X65987395Y18034000D01*
X64942132Y19079263D01*
X64664901Y18968359D01*
X64421677Y18322407D01*
X62813521Y18322407D01*
X62809836Y18435453D01*
X62589099Y18968359D01*
X62311868Y19079263D01*
X61266605Y18034000D01*
X60907395Y18034000D01*
X59862132Y19079263D01*
X59584901Y18968359D01*
X59341677Y18322407D01*
X58476976Y18322407D01*
X58300220Y18468756D01*
X58506187Y18606379D01*
X58773780Y19006860D01*
X58823907Y19258868D01*
X60041737Y19258868D01*
X61087000Y18213605D01*
X62132263Y19258868D01*
X62021359Y19536099D01*
X61375407Y19779323D01*
X60685547Y19756836D01*
X60152641Y19536099D01*
X60041737Y19258868D01*
X58823907Y19258868D01*
X58867746Y19479260D01*
X58773780Y19951660D01*
X58506187Y20352141D01*
X58314803Y20480020D01*
X58506187Y20607899D01*
X58773780Y21008380D01*
X58807000Y21175389D01*
X58807000Y20802691D01*
X58903673Y20569302D01*
X59082301Y20390673D01*
X59315690Y20294000D01*
X59531250Y20294000D01*
X59690000Y20452750D01*
X59690000Y21402000D01*
X59944000Y21402000D01*
X59944000Y20452750D01*
X60102750Y20294000D01*
X60318310Y20294000D01*
X60551699Y20390673D01*
X60730327Y20569302D01*
X60827000Y20802691D01*
X60827000Y21243250D01*
X60668250Y21402000D01*
X59944000Y21402000D01*
X59690000Y21402000D01*
X59670000Y21402000D01*
X59670000Y21656000D01*
X59690000Y21656000D01*
X59690000Y21676000D01*
X59944000Y21676000D01*
X59944000Y21656000D01*
X60668250Y21656000D01*
X60827000Y21814750D01*
X60827000Y22255309D01*
X60730327Y22488698D01*
X60728957Y22490068D01*
X60788431Y22577110D01*
X60839440Y22829000D01*
X60839440Y24029000D01*
X60795162Y24264317D01*
X60656090Y24480441D01*
X60443890Y24625431D01*
X60192000Y24676440D01*
X59442000Y24676440D01*
X59206683Y24632162D01*
X58990559Y24493090D01*
X58938583Y24417020D01*
X58406036Y24417020D01*
X58314803Y24477980D01*
X58506187Y24605859D01*
X58773780Y25006340D01*
X58867746Y25478740D01*
X58773780Y25951140D01*
X58506187Y26351621D01*
X58316703Y26478230D01*
X58506187Y26604839D01*
X58773780Y27005320D01*
X58867746Y27477720D01*
X58773780Y27950120D01*
X58506187Y28350601D01*
X58316703Y28477210D01*
X58506187Y28603819D01*
X58773780Y29004300D01*
X58867746Y29476700D01*
X58773780Y29949100D01*
X58613556Y30188892D01*
X61393824Y27408624D01*
X61649275Y27237937D01*
X61950600Y27178000D01*
X62394146Y27178000D01*
X62576071Y26905730D01*
X62890852Y26695400D01*
X62576071Y26485070D01*
X62251215Y25998889D01*
X62137141Y25425400D01*
X62251215Y24851911D01*
X62576071Y24365730D01*
X63062252Y24040874D01*
X63635741Y23926800D01*
X63694459Y23926800D01*
X64267948Y24040874D01*
X64754129Y24365730D01*
X64935100Y24636572D01*
X65116071Y24365730D01*
X65602252Y24040874D01*
X66175741Y23926800D01*
X66234459Y23926800D01*
X66807948Y24040874D01*
X67294129Y24365730D01*
X67310000Y24389483D01*
X67310000Y19356608D01*
X67212262Y19258870D01*
X67101359Y19536099D01*
X66455407Y19779323D01*
X65765547Y19756836D01*
X65232641Y19536099D01*
X65121737Y19258868D01*
X66167000Y18213605D01*
X66181143Y18227747D01*
X66360748Y18048142D01*
X66346605Y18034000D01*
X66360748Y18019857D01*
X66181143Y17840252D01*
X66167000Y17854395D01*
X65121737Y16809132D01*
X65232641Y16531901D01*
X65878593Y16288677D01*
X66568453Y16311164D01*
X67101359Y16531901D01*
X67212262Y16809130D01*
X67310000Y16711392D01*
X67310000Y14276608D01*
X67212262Y14178870D01*
X67101359Y14456099D01*
X66455407Y14699323D01*
X65765547Y14676836D01*
X65232641Y14456099D01*
X65121737Y14178868D01*
X66167000Y13133605D01*
X66181143Y13147747D01*
X66360748Y12968142D01*
X66346605Y12954000D01*
X66360748Y12939857D01*
X66181143Y12760252D01*
X66167000Y12774395D01*
X65121737Y11729132D01*
X65232641Y11451901D01*
X65878593Y11208677D01*
X66568453Y11231164D01*
X67101359Y11451901D01*
X67212262Y11729130D01*
X67310000Y11631392D01*
X67310000Y9553893D01*
X66524619Y9880011D01*
X65635481Y9880787D01*
X64813728Y9541245D01*
X64184464Y8913079D01*
X63843489Y8091919D01*
X63842713Y7202781D01*
X64182255Y6381028D01*
X64810421Y5751764D01*
X65631581Y5410789D01*
X66520719Y5410013D01*
X67310000Y5736138D01*
X67310000Y4751606D01*
X65051723Y2493329D01*
X65066059Y2565400D01*
X64951985Y3138889D01*
X64627129Y3625070D01*
X64140948Y3949926D01*
X63567459Y4064000D01*
X63508741Y4064000D01*
X62935252Y3949926D01*
X62449071Y3625070D01*
X62268100Y3354228D01*
X62087129Y3625070D01*
X61600948Y3949926D01*
X61027459Y4064000D01*
X60968741Y4064000D01*
X60395252Y3949926D01*
X59909071Y3625070D01*
X59728100Y3354228D01*
X59547129Y3625070D01*
X59060948Y3949926D01*
X58487459Y4064000D01*
X58428741Y4064000D01*
X57855252Y3949926D01*
X57369071Y3625070D01*
X57188100Y3354228D01*
X57007129Y3625070D01*
X56520948Y3949926D01*
X55947459Y4064000D01*
X55888741Y4064000D01*
X55315252Y3949926D01*
X54829071Y3625070D01*
X54648100Y3354228D01*
X54467129Y3625070D01*
X53980948Y3949926D01*
X53407459Y4064000D01*
X53348741Y4064000D01*
X52775252Y3949926D01*
X52289071Y3625070D01*
X52108100Y3354228D01*
X51927129Y3625070D01*
X51440948Y3949926D01*
X50867459Y4064000D01*
X50808741Y4064000D01*
X50235252Y3949926D01*
X49749071Y3625070D01*
X49424215Y3138889D01*
X49310141Y2565400D01*
X49424215Y1991911D01*
X49749071Y1505730D01*
X50235252Y1180874D01*
X50808741Y1066800D01*
X50867459Y1066800D01*
X51440948Y1180874D01*
X51927129Y1505730D01*
X52108100Y1776572D01*
X52289071Y1505730D01*
X52775252Y1180874D01*
X53348741Y1066800D01*
X53407459Y1066800D01*
X53980948Y1180874D01*
X54467129Y1505730D01*
X54648100Y1776572D01*
X54829071Y1505730D01*
X55315252Y1180874D01*
X55888741Y1066800D01*
X55947459Y1066800D01*
X56520948Y1180874D01*
X57007129Y1505730D01*
X57188100Y1776572D01*
X57369071Y1505730D01*
X57855252Y1180874D01*
X58428741Y1066800D01*
X58487459Y1066800D01*
X59060948Y1180874D01*
X59547129Y1505730D01*
X59728100Y1776572D01*
X59909071Y1505730D01*
X60395252Y1180874D01*
X60968741Y1066800D01*
X61027459Y1066800D01*
X61600948Y1180874D01*
X62087129Y1505730D01*
X62268100Y1776572D01*
X62449071Y1505730D01*
X62935252Y1180874D01*
X63508741Y1066800D01*
X63567459Y1066800D01*
X64140948Y1180874D01*
X64627129Y1505730D01*
X64770000Y1719551D01*
X64770000Y1016000D01*
X15619523Y1016000D01*
X15901736Y1297721D01*
X16242711Y2118881D01*
X16243487Y3008019D01*
X15903945Y3829772D01*
X15275779Y4459036D01*
X14454619Y4800011D01*
X13565481Y4800787D01*
X12743728Y4461245D01*
X12114464Y3833079D01*
X11773489Y3011919D01*
X11772713Y2122781D01*
X12112255Y1301028D01*
X12396786Y1016000D01*
X1524000Y1016000D01*
X1524000Y12903573D01*
X1686078Y12511314D01*
X2221495Y11974961D01*
X2921410Y11684332D01*
X3679265Y11683670D01*
X4379686Y11973078D01*
X4648299Y12241223D01*
X11023828Y12241223D01*
X11155520Y11946343D01*
X11863036Y11674739D01*
X12620632Y11694564D01*
X13228480Y11946343D01*
X13360172Y12241223D01*
X12192000Y13409395D01*
X11023828Y12241223D01*
X4648299Y12241223D01*
X4916039Y12508495D01*
X5206668Y13208410D01*
X5207287Y13917964D01*
X10277739Y13917964D01*
X10297564Y13160368D01*
X10549343Y12552520D01*
X10844223Y12420828D01*
X12012395Y13589000D01*
X12371605Y13589000D01*
X13539777Y12420828D01*
X13834657Y12552520D01*
X14106261Y13260036D01*
X14086436Y14017632D01*
X13834657Y14625480D01*
X13539777Y14757172D01*
X12371605Y13589000D01*
X12012395Y13589000D01*
X10844223Y14757172D01*
X10549343Y14625480D01*
X10277739Y13917964D01*
X5207287Y13917964D01*
X5207330Y13966265D01*
X4917922Y14666686D01*
X4648303Y14936777D01*
X11023828Y14936777D01*
X12192000Y13768605D01*
X13360172Y14936777D01*
X13228480Y15231657D01*
X12520964Y15503261D01*
X11763368Y15483436D01*
X11155520Y15231657D01*
X11023828Y14936777D01*
X4648303Y14936777D01*
X4382505Y15203039D01*
X3682590Y15493668D01*
X2924735Y15494330D01*
X2224314Y15204922D01*
X1687961Y14669505D01*
X1524000Y14274642D01*
X1524000Y37033573D01*
X1686078Y36641314D01*
X2221495Y36104961D01*
X2921410Y35814332D01*
X3679265Y35813670D01*
X4379686Y36103078D01*
X4916039Y36638495D01*
X5206668Y37338410D01*
X5207330Y38096265D01*
X4917922Y38796686D01*
X4382505Y39333039D01*
X3682590Y39623668D01*
X2924735Y39624330D01*
X2224314Y39334922D01*
X1687961Y38799505D01*
X1524000Y38404642D01*
X1524000Y41252339D01*
X10794758Y41252339D01*
X11006990Y40738697D01*
X11399630Y40345371D01*
X11912900Y40132243D01*
X12468661Y40131758D01*
X12982303Y40343990D01*
X13375629Y40736630D01*
X13588757Y41249900D01*
X13589242Y41805661D01*
X13377010Y42319303D01*
X12984370Y42712629D01*
X12471100Y42925757D01*
X11915339Y42926242D01*
X11401697Y42714010D01*
X11008371Y42321370D01*
X10795243Y41808100D01*
X10794758Y41252339D01*
X1524000Y41252339D01*
X1524000Y44961735D01*
X6476670Y44961735D01*
X6766078Y44261314D01*
X7301495Y43724961D01*
X8001410Y43434332D01*
X8759265Y43433670D01*
X9459686Y43723078D01*
X9728299Y43991223D01*
X16103828Y43991223D01*
X16235520Y43696343D01*
X16943036Y43424739D01*
X17700632Y43444564D01*
X18308480Y43696343D01*
X18440172Y43991223D01*
X17272000Y45159395D01*
X16103828Y43991223D01*
X9728299Y43991223D01*
X9996039Y44258495D01*
X10286668Y44958410D01*
X10287287Y45667964D01*
X15357739Y45667964D01*
X15377564Y44910368D01*
X15629343Y44302520D01*
X15924223Y44170828D01*
X17092395Y45339000D01*
X17451605Y45339000D01*
X18619777Y44170828D01*
X18914657Y44302520D01*
X19186261Y45010036D01*
X19166436Y45767632D01*
X18914657Y46375480D01*
X18619777Y46507172D01*
X17451605Y45339000D01*
X17092395Y45339000D01*
X15924223Y46507172D01*
X15629343Y46375480D01*
X15357739Y45667964D01*
X10287287Y45667964D01*
X10287330Y45716265D01*
X9997922Y46416686D01*
X9728303Y46686777D01*
X16103828Y46686777D01*
X17272000Y45518605D01*
X18440172Y46686777D01*
X18308480Y46981657D01*
X17600964Y47253261D01*
X16843368Y47233436D01*
X16235520Y46981657D01*
X16103828Y46686777D01*
X9728303Y46686777D01*
X9462505Y46953039D01*
X8762590Y47243668D01*
X8004735Y47244330D01*
X7304314Y46954922D01*
X6767961Y46419505D01*
X6477332Y45719590D01*
X6476670Y44961735D01*
X1524000Y44961735D01*
X1524000Y52630000D01*
X13922324Y52630000D01*
X13384464Y52093079D01*
X13384464Y52093079D01*
G37*
X13384464Y52093079D02*
X13043489Y51271919D01*
X13042713Y50382781D01*
X13382255Y49561028D01*
X14010421Y48931764D01*
X14831581Y48590789D01*
X15720719Y48590013D01*
X16542472Y48929555D01*
X17171736Y49557721D01*
X17444745Y50215200D01*
X17745071Y49765730D01*
X18231252Y49440874D01*
X18804741Y49326800D01*
X18863459Y49326800D01*
X19436948Y49440874D01*
X19923129Y49765730D01*
X20104100Y50036572D01*
X20285071Y49765730D01*
X20771252Y49440874D01*
X21344741Y49326800D01*
X21403459Y49326800D01*
X21976948Y49440874D01*
X22463129Y49765730D01*
X22644100Y50036572D01*
X22825071Y49765730D01*
X23311252Y49440874D01*
X23884741Y49326800D01*
X23943459Y49326800D01*
X24516948Y49440874D01*
X25003129Y49765730D01*
X25184092Y50036561D01*
X25565610Y49618579D01*
X26095073Y49370432D01*
X26327100Y49490931D01*
X26327100Y50698400D01*
X26307100Y50698400D01*
X26307100Y50952400D01*
X26327100Y50952400D01*
X26327100Y52159869D01*
X26095073Y52280368D01*
X25565610Y52032221D01*
X25184092Y51614239D01*
X25003129Y51885070D01*
X24516948Y52209926D01*
X23943459Y52324000D01*
X23884741Y52324000D01*
X23311252Y52209926D01*
X22825071Y51885070D01*
X22644100Y51614228D01*
X22463129Y51885070D01*
X21976948Y52209926D01*
X21403459Y52324000D01*
X21344741Y52324000D01*
X20771252Y52209926D01*
X20285071Y51885070D01*
X20104100Y51614228D01*
X19923129Y51885070D01*
X19436948Y52209926D01*
X18863459Y52324000D01*
X18804741Y52324000D01*
X18231252Y52209926D01*
X17745071Y51885070D01*
X17444435Y51435137D01*
X17173945Y52089772D01*
X16634660Y52630000D01*
X63776394Y52630000D01*
X64308267Y52098127D01*
X64140948Y52209926D01*
X63567459Y52324000D01*
X63508741Y52324000D01*
X62935252Y52209926D01*
X62449071Y51885070D01*
X62268100Y51614228D01*
X62087129Y51885070D01*
X61600948Y52209926D01*
X61027459Y52324000D01*
X60968741Y52324000D01*
X60395252Y52209926D01*
X59909071Y51885070D01*
X59728100Y51614228D01*
X59547129Y51885070D01*
X59060948Y52209926D01*
X58487459Y52324000D01*
X58428741Y52324000D01*
X57855252Y52209926D01*
X57369071Y51885070D01*
X57188100Y51614228D01*
X57007129Y51885070D01*
X56520948Y52209926D01*
X55947459Y52324000D01*
X55888741Y52324000D01*
X55315252Y52209926D01*
X54829071Y51885070D01*
X54648100Y51614228D01*
X54467129Y51885070D01*
X53980948Y52209926D01*
X53407459Y52324000D01*
X53348741Y52324000D01*
X52775252Y52209926D01*
X52289071Y51885070D01*
X52108100Y51614228D01*
X51927129Y51885070D01*
X51440948Y52209926D01*
X50867459Y52324000D01*
X50808741Y52324000D01*
X50235252Y52209926D01*
X49749071Y51885070D01*
X49568100Y51614228D01*
X49387129Y51885070D01*
X48900948Y52209926D01*
X48327459Y52324000D01*
X48268741Y52324000D01*
X47695252Y52209926D01*
X47209071Y51885070D01*
X47028100Y51614228D01*
X46847129Y51885070D01*
X46360948Y52209926D01*
X45787459Y52324000D01*
X45728741Y52324000D01*
X45155252Y52209926D01*
X44669071Y51885070D01*
X44344215Y51398889D01*
X44230141Y50825400D01*
X44344215Y50251911D01*
X44555033Y49936400D01*
X42897167Y49936400D01*
X43107985Y50251911D01*
X43222059Y50825400D01*
X43107985Y51398889D01*
X42783129Y51885070D01*
X42296948Y52209926D01*
X41723459Y52324000D01*
X41664741Y52324000D01*
X41091252Y52209926D01*
X40605071Y51885070D01*
X40424100Y51614228D01*
X40243129Y51885070D01*
X39756948Y52209926D01*
X39183459Y52324000D01*
X39124741Y52324000D01*
X38551252Y52209926D01*
X38065071Y51885070D01*
X37884100Y51614228D01*
X37703129Y51885070D01*
X37216948Y52209926D01*
X36643459Y52324000D01*
X36584741Y52324000D01*
X36011252Y52209926D01*
X35525071Y51885070D01*
X35344100Y51614228D01*
X35163129Y51885070D01*
X34676948Y52209926D01*
X34103459Y52324000D01*
X34044741Y52324000D01*
X33471252Y52209926D01*
X32985071Y51885070D01*
X32804100Y51614228D01*
X32623129Y51885070D01*
X32136948Y52209926D01*
X31563459Y52324000D01*
X31504741Y52324000D01*
X30931252Y52209926D01*
X30445071Y51885070D01*
X30264100Y51614228D01*
X30083129Y51885070D01*
X29596948Y52209926D01*
X29023459Y52324000D01*
X28964741Y52324000D01*
X28391252Y52209926D01*
X27905071Y51885070D01*
X27724108Y51614239D01*
X27342590Y52032221D01*
X26813127Y52280368D01*
X26581100Y52159869D01*
X26581100Y50952400D01*
X26601100Y50952400D01*
X26601100Y50698400D01*
X26581100Y50698400D01*
X26581100Y49490931D01*
X26813127Y49370432D01*
X27342590Y49618579D01*
X27724108Y50036561D01*
X27905071Y49765730D01*
X28391252Y49440874D01*
X28964741Y49326800D01*
X29023459Y49326800D01*
X29596948Y49440874D01*
X30083129Y49765730D01*
X30264100Y50036572D01*
X30445071Y49765730D01*
X30931252Y49440874D01*
X31504741Y49326800D01*
X31563459Y49326800D01*
X32136948Y49440874D01*
X32623129Y49765730D01*
X32804100Y50036572D01*
X32985071Y49765730D01*
X33471252Y49440874D01*
X33574737Y49420289D01*
X32590224Y48435776D01*
X32419537Y48180325D01*
X32359600Y47879000D01*
X32359600Y31695152D01*
X32345888Y31681440D01*
X31394400Y31681440D01*
X31394400Y32941527D01*
X31508441Y33014910D01*
X31653431Y33227110D01*
X31704440Y33479000D01*
X31704440Y34679000D01*
X31660162Y34914317D01*
X31521090Y35130441D01*
X31452994Y35176969D01*
X31595327Y35319302D01*
X31692000Y35552691D01*
X31692000Y35993250D01*
X31533250Y36152000D01*
X30734000Y36152000D01*
X30734000Y36132000D01*
X30480000Y36132000D01*
X30480000Y36152000D01*
X29680750Y36152000D01*
X29522000Y35993250D01*
X29522000Y35552691D01*
X29618673Y35319302D01*
X29759910Y35178064D01*
X29705559Y35143090D01*
X29560569Y34930890D01*
X29509560Y34679000D01*
X29509560Y33479000D01*
X29553838Y33243683D01*
X29692910Y33027559D01*
X29819600Y32940995D01*
X29819600Y32215478D01*
X29006800Y33028278D01*
X29006800Y33071050D01*
X29113431Y33227110D01*
X29164440Y33479000D01*
X29164440Y34679000D01*
X29120162Y34914317D01*
X28981090Y35130441D01*
X28911289Y35178134D01*
X28968441Y35214910D01*
X29113431Y35427110D01*
X29164440Y35679000D01*
X29164440Y36879000D01*
X29140674Y37005309D01*
X29522000Y37005309D01*
X29522000Y36564750D01*
X29680750Y36406000D01*
X30480000Y36406000D01*
X30480000Y37355250D01*
X30734000Y37355250D01*
X30734000Y36406000D01*
X31533250Y36406000D01*
X31692000Y36564750D01*
X31692000Y37005309D01*
X31595327Y37238698D01*
X31416699Y37417327D01*
X31183310Y37514000D01*
X30892750Y37514000D01*
X30734000Y37355250D01*
X30480000Y37355250D01*
X30321250Y37514000D01*
X30030690Y37514000D01*
X29797301Y37417327D01*
X29618673Y37238698D01*
X29522000Y37005309D01*
X29140674Y37005309D01*
X29120162Y37114317D01*
X28981090Y37330441D01*
X28854400Y37417005D01*
X28854400Y42263889D01*
X28859192Y42268673D01*
X29001838Y42612201D01*
X29002162Y42984167D01*
X28860117Y43327943D01*
X28597327Y43591192D01*
X28253799Y43733838D01*
X27881833Y43734162D01*
X27538057Y43592117D01*
X27274808Y43329327D01*
X27132162Y42985799D01*
X27131838Y42613833D01*
X27273883Y42270057D01*
X27279600Y42264330D01*
X27279600Y37416473D01*
X27165559Y37343090D01*
X27020569Y37130890D01*
X26969560Y36879000D01*
X26969560Y35679000D01*
X27013838Y35443683D01*
X27152910Y35227559D01*
X27222711Y35179866D01*
X27165559Y35143090D01*
X27020569Y34930890D01*
X26969560Y34679000D01*
X26969560Y33479000D01*
X27013838Y33243683D01*
X27127200Y33067513D01*
X27127200Y32639000D01*
X27198738Y32279354D01*
X27402461Y31974461D01*
X28397200Y30979722D01*
X28397200Y27863800D01*
X28053324Y27863800D01*
X28059440Y27894000D01*
X28059440Y28494000D01*
X28015162Y28729317D01*
X27951322Y28828528D01*
X28008431Y28912110D01*
X28059440Y29164000D01*
X28059440Y29764000D01*
X28015162Y29999317D01*
X27956822Y30089980D01*
X28047000Y30307690D01*
X28047000Y30448250D01*
X27888250Y30607000D01*
X26764000Y30607000D01*
X26764000Y30587000D01*
X26510000Y30587000D01*
X26510000Y30607000D01*
X25385750Y30607000D01*
X25227000Y30448250D01*
X25227000Y30307690D01*
X25250316Y30251400D01*
X23948152Y30251400D01*
X23713776Y30485776D01*
X23458325Y30656463D01*
X23157000Y30716400D01*
X22779178Y30716400D01*
X22770162Y30764317D01*
X22631090Y30980441D01*
X22504400Y31067005D01*
X22504400Y31160310D01*
X25227000Y31160310D01*
X25227000Y31019750D01*
X25385750Y30861000D01*
X26510000Y30861000D01*
X26510000Y31510250D01*
X26764000Y31510250D01*
X26764000Y30861000D01*
X27888250Y30861000D01*
X28047000Y31019750D01*
X28047000Y31160310D01*
X27950327Y31393699D01*
X27771698Y31572327D01*
X27538309Y31669000D01*
X26922750Y31669000D01*
X26764000Y31510250D01*
X26510000Y31510250D01*
X26351250Y31669000D01*
X25735691Y31669000D01*
X25502302Y31572327D01*
X25323673Y31393699D01*
X25227000Y31160310D01*
X22504400Y31160310D01*
X22504400Y31671527D01*
X22618441Y31744910D01*
X22763431Y31957110D01*
X22814440Y32209000D01*
X22814440Y33409000D01*
X22770162Y33644317D01*
X22631090Y33860441D01*
X22562994Y33906969D01*
X22705327Y34049302D01*
X22802000Y34282691D01*
X22802000Y34723250D01*
X22643250Y34882000D01*
X21844000Y34882000D01*
X21844000Y34862000D01*
X21590000Y34862000D01*
X21590000Y34882000D01*
X21570000Y34882000D01*
X21570000Y35136000D01*
X21590000Y35136000D01*
X21590000Y36085250D01*
X21844000Y36085250D01*
X21844000Y35136000D01*
X22643250Y35136000D01*
X22802000Y35294750D01*
X22802000Y35735309D01*
X22705327Y35968698D01*
X22526699Y36147327D01*
X22293310Y36244000D01*
X22002750Y36244000D01*
X21844000Y36085250D01*
X21590000Y36085250D01*
X21431250Y36244000D01*
X21234400Y36244000D01*
X21234400Y38989000D01*
X21174463Y39290325D01*
X21003776Y39545776D01*
X18616679Y41932873D01*
X18457010Y42319303D01*
X18064370Y42712629D01*
X17551100Y42925757D01*
X16995339Y42926242D01*
X16481697Y42714010D01*
X16088371Y42321370D01*
X16086307Y42316400D01*
X15367000Y42316400D01*
X15065675Y42256463D01*
X14810224Y42085776D01*
X9984224Y37259776D01*
X9813537Y37004325D01*
X9753600Y36703000D01*
X9753600Y22531435D01*
X9462505Y22823039D01*
X8762590Y23113668D01*
X8004735Y23114330D01*
X7304314Y22824922D01*
X6767961Y22289505D01*
X6477332Y21589590D01*
X6476670Y20831735D01*
X6766078Y20131314D01*
X7301495Y19594961D01*
X8001410Y19304332D01*
X8759265Y19303670D01*
X9459686Y19593078D01*
X9753600Y19886479D01*
X9753600Y18415000D01*
X9813537Y18113675D01*
X9984224Y17858224D01*
X11000224Y16842224D01*
X11255675Y16671537D01*
X11557000Y16611600D01*
X14901134Y16611600D01*
X15021078Y16321314D01*
X15556495Y15784961D01*
X16256410Y15494332D01*
X17014265Y15493670D01*
X17714686Y15783078D01*
X18251039Y16318495D01*
X18541668Y17018410D01*
X18542330Y17776265D01*
X18252922Y18476686D01*
X17717505Y19013039D01*
X17017590Y19303668D01*
X16259735Y19304330D01*
X15559314Y19014922D01*
X15022961Y18479505D01*
X14901254Y18186400D01*
X11883152Y18186400D01*
X11328400Y18741152D01*
X11328400Y20013787D01*
X11746495Y19594961D01*
X12446410Y19304332D01*
X13204265Y19303670D01*
X13904686Y19593078D01*
X14441039Y20128495D01*
X14731668Y20828410D01*
X14732330Y21586265D01*
X14611134Y21879582D01*
X16793152Y24061600D01*
X20654822Y24061600D01*
X20663838Y24013683D01*
X20802910Y23797559D01*
X20872711Y23749866D01*
X20815559Y23713090D01*
X20670569Y23500890D01*
X20619560Y23249000D01*
X20619560Y22049000D01*
X20663838Y21813683D01*
X20802910Y21597559D01*
X21015110Y21452569D01*
X21267000Y21401560D01*
X22167000Y21401560D01*
X22402317Y21445838D01*
X22618441Y21584910D01*
X22703365Y21709200D01*
X27447200Y21709200D01*
X27447200Y19619000D01*
X27518738Y19259354D01*
X27722461Y18954461D01*
X37198300Y9478622D01*
X37198300Y3724782D01*
X37049071Y3625070D01*
X36868100Y3354228D01*
X36687129Y3625070D01*
X36200948Y3949926D01*
X35627459Y4064000D01*
X35568741Y4064000D01*
X34995252Y3949926D01*
X34509071Y3625070D01*
X34328100Y3354228D01*
X34147129Y3625070D01*
X33660948Y3949926D01*
X33087459Y4064000D01*
X33028741Y4064000D01*
X32455252Y3949926D01*
X31969071Y3625070D01*
X31788100Y3354228D01*
X31607129Y3625070D01*
X31120948Y3949926D01*
X30547459Y4064000D01*
X30488741Y4064000D01*
X29915252Y3949926D01*
X29429071Y3625070D01*
X29248100Y3354228D01*
X29067129Y3625070D01*
X28580948Y3949926D01*
X28007459Y4064000D01*
X27948741Y4064000D01*
X27375252Y3949926D01*
X26889071Y3625070D01*
X26564215Y3138889D01*
X26450141Y2565400D01*
X26564215Y1991911D01*
X26889071Y1505730D01*
X27375252Y1180874D01*
X27948741Y1066800D01*
X28007459Y1066800D01*
X28580948Y1180874D01*
X29067129Y1505730D01*
X29248100Y1776572D01*
X29429071Y1505730D01*
X29915252Y1180874D01*
X30488741Y1066800D01*
X30547459Y1066800D01*
X31120948Y1180874D01*
X31607129Y1505730D01*
X31788100Y1776572D01*
X31969071Y1505730D01*
X32455252Y1180874D01*
X33028741Y1066800D01*
X33087459Y1066800D01*
X33660948Y1180874D01*
X34147129Y1505730D01*
X34328100Y1776572D01*
X34509071Y1505730D01*
X34995252Y1180874D01*
X35568741Y1066800D01*
X35627459Y1066800D01*
X36200948Y1180874D01*
X36687129Y1505730D01*
X36868100Y1776572D01*
X37049071Y1505730D01*
X37535252Y1180874D01*
X38108741Y1066800D01*
X38167459Y1066800D01*
X38740948Y1180874D01*
X39227129Y1505730D01*
X39408092Y1776561D01*
X39789610Y1358579D01*
X40319073Y1110432D01*
X40551100Y1230931D01*
X40551100Y2438400D01*
X40805100Y2438400D01*
X40805100Y1230931D01*
X41037127Y1110432D01*
X41566590Y1358579D01*
X41948100Y1776552D01*
X42329610Y1358579D01*
X42859073Y1110432D01*
X43091100Y1230931D01*
X43091100Y2438400D01*
X40805100Y2438400D01*
X40551100Y2438400D01*
X40531100Y2438400D01*
X40531100Y2692400D01*
X40551100Y2692400D01*
X40551100Y3899869D01*
X40805100Y3899869D01*
X40805100Y2692400D01*
X43091100Y2692400D01*
X43091100Y3899869D01*
X43345100Y3899869D01*
X43345100Y2692400D01*
X43365100Y2692400D01*
X43365100Y2438400D01*
X43345100Y2438400D01*
X43345100Y1230931D01*
X43577127Y1110432D01*
X44106590Y1358579D01*
X44488108Y1776561D01*
X44669071Y1505730D01*
X45155252Y1180874D01*
X45728741Y1066800D01*
X45787459Y1066800D01*
X46360948Y1180874D01*
X46847129Y1505730D01*
X47171985Y1991911D01*
X47286059Y2565400D01*
X47171985Y3138889D01*
X46847129Y3625070D01*
X46360948Y3949926D01*
X45787459Y4064000D01*
X45728741Y4064000D01*
X45155252Y3949926D01*
X44669071Y3625070D01*
X44488108Y3354239D01*
X44106590Y3772221D01*
X43577127Y4020368D01*
X43345100Y3899869D01*
X43091100Y3899869D01*
X42859073Y4020368D01*
X42329610Y3772221D01*
X41948100Y3354248D01*
X41566590Y3772221D01*
X41037127Y4020368D01*
X40805100Y3899869D01*
X40551100Y3899869D01*
X40319073Y4020368D01*
X39789610Y3772221D01*
X39408092Y3354239D01*
X39227129Y3625070D01*
X39077900Y3724782D01*
X39077900Y9867900D01*
X39006362Y10227546D01*
X38802639Y10532439D01*
X37605946Y11729132D01*
X60041737Y11729132D01*
X60152641Y11451901D01*
X60798593Y11208677D01*
X61488453Y11231164D01*
X62021359Y11451901D01*
X62132263Y11729132D01*
X61087000Y12774395D01*
X60041737Y11729132D01*
X37605946Y11729132D01*
X36092671Y13242407D01*
X59341677Y13242407D01*
X59364164Y12552547D01*
X59584901Y12019641D01*
X59862132Y11908737D01*
X60907395Y12954000D01*
X61266605Y12954000D01*
X62311868Y11908737D01*
X62589099Y12019641D01*
X62832323Y12665593D01*
X62813521Y13242407D01*
X64421677Y13242407D01*
X64444164Y12552547D01*
X64664901Y12019641D01*
X64942132Y11908737D01*
X65987395Y12954000D01*
X64942132Y13999263D01*
X64664901Y13888359D01*
X64421677Y13242407D01*
X62813521Y13242407D01*
X62809836Y13355453D01*
X62589099Y13888359D01*
X62311868Y13999263D01*
X61266605Y12954000D01*
X60907395Y12954000D01*
X59862132Y13999263D01*
X59584901Y13888359D01*
X59341677Y13242407D01*
X36092671Y13242407D01*
X34171299Y15163779D01*
X37995485Y15163779D01*
X37999316Y15126233D01*
X38225707Y14698222D01*
X38598658Y14389427D01*
X39061390Y14246860D01*
X40261540Y14246860D01*
X40261540Y15354300D01*
X40515540Y15354300D01*
X40515540Y14246860D01*
X41715690Y14246860D01*
X42178422Y14389427D01*
X42551373Y14698222D01*
X42777764Y15126233D01*
X42781595Y15163779D01*
X42656857Y15354300D01*
X40515540Y15354300D01*
X40261540Y15354300D01*
X38120223Y15354300D01*
X37995485Y15163779D01*
X34171299Y15163779D01*
X33853778Y15481300D01*
X53903174Y15481300D01*
X53997140Y15008900D01*
X54264733Y14608419D01*
X54665214Y14340826D01*
X55137614Y14246860D01*
X57633306Y14246860D01*
X58105706Y14340826D01*
X58506187Y14608419D01*
X58563304Y14693900D01*
X61209039Y14693900D01*
X60685547Y14676836D01*
X60152641Y14456099D01*
X60041737Y14178868D01*
X61087000Y13133605D01*
X62132263Y14178868D01*
X62021359Y14456099D01*
X61389809Y14693900D01*
X62188522Y14693900D01*
X62240106Y14569057D01*
X62699637Y14108722D01*
X63300352Y13859284D01*
X63950795Y13858716D01*
X64551943Y14107106D01*
X65012278Y14566637D01*
X65261716Y15167352D01*
X65262284Y15817795D01*
X65013894Y16418943D01*
X64554363Y16879278D01*
X63953648Y17128716D01*
X63303205Y17129284D01*
X62702057Y16880894D01*
X62241722Y16421363D01*
X62178331Y16268700D01*
X58563304Y16268700D01*
X58506187Y16354181D01*
X58300220Y16491804D01*
X58548293Y16697202D01*
X58607496Y16809132D01*
X60041737Y16809132D01*
X60152641Y16531901D01*
X60798593Y16288677D01*
X61488453Y16311164D01*
X62021359Y16531901D01*
X62132263Y16809132D01*
X61087000Y17854395D01*
X60041737Y16809132D01*
X58607496Y16809132D01*
X58774684Y17125213D01*
X58778515Y17162759D01*
X58653777Y17353280D01*
X56512460Y17353280D01*
X56512460Y17333280D01*
X56258460Y17333280D01*
X56258460Y17353280D01*
X54117143Y17353280D01*
X53992405Y17162759D01*
X53996236Y17125213D01*
X54222627Y16697202D01*
X54470700Y16491804D01*
X54264733Y16354181D01*
X53997140Y15953700D01*
X53903174Y15481300D01*
X33853778Y15481300D01*
X29326800Y20008278D01*
X29326800Y22836175D01*
X29327302Y22835673D01*
X29560691Y22739000D01*
X30001250Y22739000D01*
X30160000Y22897750D01*
X30160000Y23622000D01*
X30414000Y23622000D01*
X30414000Y22897750D01*
X30572750Y22739000D01*
X31013309Y22739000D01*
X31246698Y22835673D01*
X31425327Y23014301D01*
X31522000Y23247690D01*
X31522000Y23463250D01*
X31363250Y23622000D01*
X30414000Y23622000D01*
X30160000Y23622000D01*
X30140000Y23622000D01*
X30140000Y23876000D01*
X30160000Y23876000D01*
X30160000Y24600250D01*
X30414000Y24600250D01*
X30414000Y23876000D01*
X31363250Y23876000D01*
X31522000Y24034750D01*
X31522000Y24250310D01*
X31425327Y24483699D01*
X31246698Y24662327D01*
X31013309Y24759000D01*
X30572750Y24759000D01*
X30414000Y24600250D01*
X30160000Y24600250D01*
X30001250Y24759000D01*
X29560691Y24759000D01*
X29327302Y24662327D01*
X29326800Y24661825D01*
X29326800Y26040850D01*
X29401646Y26055738D01*
X29706539Y26259461D01*
X30001539Y26554461D01*
X30205262Y26859354D01*
X30276800Y27219000D01*
X30276800Y29315648D01*
X30657696Y28934752D01*
X30658838Y28928683D01*
X30722678Y28829472D01*
X30665569Y28745890D01*
X30614560Y28494000D01*
X30614560Y27894000D01*
X30658838Y27658683D01*
X30722678Y27559472D01*
X30665569Y27475890D01*
X30614560Y27224000D01*
X30614560Y26624000D01*
X30658838Y26388683D01*
X30797910Y26172559D01*
X31010110Y26027569D01*
X31262000Y25976560D01*
X32812000Y25976560D01*
X33047317Y26020838D01*
X33227216Y26136600D01*
X33782000Y26136600D01*
X34083325Y26196537D01*
X34338776Y26367224D01*
X36243776Y28272224D01*
X36414463Y28527675D01*
X36474400Y28829000D01*
X36474400Y38125309D01*
X37217000Y38125309D01*
X37217000Y37684750D01*
X37375750Y37526000D01*
X38100000Y37526000D01*
X38100000Y38475250D01*
X38354000Y38475250D01*
X38354000Y37526000D01*
X39078250Y37526000D01*
X39237000Y37684750D01*
X39237000Y38125309D01*
X39140327Y38358698D01*
X38961699Y38537327D01*
X38728310Y38634000D01*
X38512750Y38634000D01*
X38354000Y38475250D01*
X38100000Y38475250D01*
X37941250Y38634000D01*
X37725690Y38634000D01*
X37492301Y38537327D01*
X37313673Y38358698D01*
X37217000Y38125309D01*
X36474400Y38125309D01*
X36474400Y38662848D01*
X37710552Y39899000D01*
X40454560Y39899000D01*
X40454560Y38399000D01*
X40498838Y38163683D01*
X40637910Y37947559D01*
X40850110Y37802569D01*
X41102000Y37751560D01*
X41702000Y37751560D01*
X41937317Y37795838D01*
X42036528Y37859678D01*
X42120110Y37802569D01*
X42372000Y37751560D01*
X42972000Y37751560D01*
X43207317Y37795838D01*
X43297980Y37854178D01*
X43515690Y37764000D01*
X43656250Y37764000D01*
X43815000Y37922750D01*
X43815000Y39022000D01*
X43795000Y39022000D01*
X43795000Y39276000D01*
X43815000Y39276000D01*
X43815000Y40375250D01*
X43656250Y40534000D01*
X43515690Y40534000D01*
X43298878Y40444194D01*
X43223890Y40495431D01*
X42972000Y40546440D01*
X42372000Y40546440D01*
X42136683Y40502162D01*
X42037472Y40438322D01*
X41953890Y40495431D01*
X41702000Y40546440D01*
X41102000Y40546440D01*
X40866683Y40502162D01*
X40650559Y40363090D01*
X40505569Y40150890D01*
X40454560Y39899000D01*
X37710552Y39899000D01*
X38553152Y40741600D01*
X53140848Y40741600D01*
X54180224Y39702224D01*
X54435675Y39531537D01*
X54737000Y39471600D01*
X62357000Y39471600D01*
X62658325Y39531537D01*
X62913776Y39702224D01*
X64183776Y40972224D01*
X64354463Y41227675D01*
X64414400Y41529000D01*
X64414400Y41554007D01*
X64706147Y41748946D01*
X64770000Y41844509D01*
X64770000Y40259000D01*
X64780006Y40209590D01*
X64807197Y40169197D01*
X67310000Y37666394D01*
X67310000Y37493893D01*
X66524619Y37820011D01*
X65635481Y37820787D01*
X64813728Y37481245D01*
X64184464Y36853079D01*
X63843489Y36031919D01*
X63842713Y35142781D01*
X64182255Y34321028D01*
X64810421Y33691764D01*
X65631581Y33350789D01*
X66520719Y33350013D01*
X67310000Y33676138D01*
X67310000Y31541317D01*
X67294129Y31565070D01*
X66807948Y31889926D01*
X66234459Y32004000D01*
X66175741Y32004000D01*
X65602252Y31889926D01*
X65116071Y31565070D01*
X64935100Y31294228D01*
X64754129Y31565070D01*
X64267948Y31889926D01*
X63694459Y32004000D01*
X63635741Y32004000D01*
X63062252Y31889926D01*
X62576071Y31565070D01*
X62251215Y31078889D01*
X62185589Y30748963D01*
X55928776Y37005776D01*
X55673325Y37176463D01*
X55372000Y37236400D01*
X51739010Y37236400D01*
X51861838Y37532201D01*
X51862162Y37904167D01*
X51720117Y38247943D01*
X51457327Y38511192D01*
X51239440Y38601667D01*
X51239440Y39899000D01*
X51195162Y40134317D01*
X51056090Y40350441D01*
X50843890Y40495431D01*
X50592000Y40546440D01*
X49992000Y40546440D01*
X49756683Y40502162D01*
X49657472Y40438322D01*
X49573890Y40495431D01*
X49322000Y40546440D01*
X48722000Y40546440D01*
X48486683Y40502162D01*
X48396020Y40443822D01*
X48178310Y40534000D01*
X48037750Y40534000D01*
X47879000Y40375250D01*
X47879000Y39276000D01*
X47899000Y39276000D01*
X47899000Y39022000D01*
X47879000Y39022000D01*
X47879000Y39002000D01*
X47625000Y39002000D01*
X47625000Y39022000D01*
X47605000Y39022000D01*
X47605000Y39276000D01*
X47625000Y39276000D01*
X47625000Y40375250D01*
X47466250Y40534000D01*
X47325690Y40534000D01*
X47108878Y40444194D01*
X47033890Y40495431D01*
X46782000Y40546440D01*
X46182000Y40546440D01*
X45946683Y40502162D01*
X45847472Y40438322D01*
X45763890Y40495431D01*
X45512000Y40546440D01*
X44912000Y40546440D01*
X44676683Y40502162D01*
X44586020Y40443822D01*
X44368310Y40534000D01*
X44227750Y40534000D01*
X44069000Y40375250D01*
X44069000Y39276000D01*
X44089000Y39276000D01*
X44089000Y39022000D01*
X44069000Y39022000D01*
X44069000Y37922750D01*
X44227750Y37764000D01*
X44368310Y37764000D01*
X44585122Y37853806D01*
X44660110Y37802569D01*
X44912000Y37751560D01*
X45512000Y37751560D01*
X45747317Y37795838D01*
X45846528Y37859678D01*
X45930110Y37802569D01*
X46182000Y37751560D01*
X46782000Y37751560D01*
X47017317Y37795838D01*
X47107980Y37854178D01*
X47325690Y37764000D01*
X47452038Y37764000D01*
X47451838Y37533833D01*
X47574735Y37236400D01*
X45847000Y37236400D01*
X45545675Y37176463D01*
X45290224Y37005776D01*
X43385224Y35100776D01*
X43370663Y35078984D01*
X43307472Y35038322D01*
X43223890Y35095431D01*
X42972000Y35146440D01*
X42372000Y35146440D01*
X42136683Y35102162D01*
X42037472Y35038322D01*
X41953890Y35095431D01*
X41702000Y35146440D01*
X41102000Y35146440D01*
X40866683Y35102162D01*
X40650559Y34963090D01*
X40505569Y34750890D01*
X40492995Y34688800D01*
X40366278Y34688800D01*
X39249440Y35805638D01*
X39249440Y36099000D01*
X39205162Y36334317D01*
X39138671Y36437646D01*
X39140327Y36439302D01*
X39237000Y36672691D01*
X39237000Y37113250D01*
X39078250Y37272000D01*
X38354000Y37272000D01*
X38354000Y37252000D01*
X38100000Y37252000D01*
X38100000Y37272000D01*
X37375750Y37272000D01*
X37217000Y37113250D01*
X37217000Y36672691D01*
X37313673Y36439302D01*
X37315043Y36437932D01*
X37255569Y36350890D01*
X37204560Y36099000D01*
X37204560Y34899000D01*
X37248838Y34663683D01*
X37387910Y34447559D01*
X37600110Y34302569D01*
X37852000Y34251560D01*
X38145362Y34251560D01*
X39312461Y33084461D01*
X39617354Y32880738D01*
X39977000Y32809200D01*
X40462200Y32809200D01*
X40462200Y32393278D01*
X40102461Y32033539D01*
X40088853Y32013173D01*
X39974808Y31899327D01*
X39912466Y31749191D01*
X39898738Y31728646D01*
X39893960Y31704623D01*
X39832162Y31555799D01*
X39832020Y31393234D01*
X39827200Y31369000D01*
X39831978Y31344978D01*
X39831838Y31183833D01*
X39893917Y31033589D01*
X39898738Y31009354D01*
X39912346Y30988988D01*
X39973883Y30840057D01*
X40088733Y30725006D01*
X40097998Y30711140D01*
X39140694Y30711140D01*
X38668294Y30617174D01*
X38267813Y30349581D01*
X38000220Y29949100D01*
X37906254Y29476700D01*
X38000220Y29004300D01*
X38267813Y28603819D01*
X38457297Y28477210D01*
X38267813Y28350601D01*
X38210696Y28265120D01*
X37573249Y28265120D01*
X37487327Y28351192D01*
X37143799Y28493838D01*
X36771833Y28494162D01*
X36428057Y28352117D01*
X36164808Y28089327D01*
X36022162Y27745799D01*
X36021838Y27373833D01*
X36163883Y27030057D01*
X36426673Y26766808D01*
X36770201Y26624162D01*
X37142167Y26623838D01*
X37303066Y26690320D01*
X38210696Y26690320D01*
X38267813Y26604839D01*
X38457297Y26478230D01*
X38267813Y26351621D01*
X38000220Y25951140D01*
X37906254Y25478740D01*
X38000220Y25006340D01*
X38267813Y24605859D01*
X38459197Y24477980D01*
X38267813Y24350101D01*
X38000220Y23949620D01*
X37906254Y23477220D01*
X38000220Y23004820D01*
X38267813Y22604339D01*
X38455396Y22479000D01*
X38267813Y22353661D01*
X38000220Y21953180D01*
X37906254Y21480780D01*
X38000220Y21008380D01*
X38267813Y20607899D01*
X38459197Y20480020D01*
X38267813Y20352141D01*
X38000220Y19951660D01*
X37906254Y19479260D01*
X38000220Y19006860D01*
X38267813Y18606379D01*
X38457297Y18479770D01*
X38267813Y18353161D01*
X38000220Y17952680D01*
X37906254Y17480280D01*
X38000220Y17007880D01*
X38267813Y16607399D01*
X38473780Y16469776D01*
X38225707Y16264378D01*
X37999316Y15836367D01*
X37995485Y15798821D01*
X38120223Y15608300D01*
X40261540Y15608300D01*
X40261540Y15628300D01*
X40515540Y15628300D01*
X40515540Y15608300D01*
X42656857Y15608300D01*
X42781595Y15798821D01*
X42777764Y15836367D01*
X42551373Y16264378D01*
X42303300Y16469776D01*
X42509267Y16607399D01*
X42512074Y16611600D01*
X45847000Y16611600D01*
X46148325Y16671537D01*
X46403776Y16842224D01*
X50213776Y20652224D01*
X50384463Y20907675D01*
X50444400Y21209000D01*
X50444400Y21848048D01*
X51368444Y20924004D01*
X51623895Y20753317D01*
X51925220Y20693380D01*
X52899252Y20693380D01*
X52674808Y20469327D01*
X52532162Y20125799D01*
X52531838Y19753833D01*
X52673883Y19410057D01*
X52936673Y19146808D01*
X53280201Y19004162D01*
X53288293Y19004155D01*
X53369964Y18922484D01*
X53625415Y18751797D01*
X53926740Y18691860D01*
X54207616Y18691860D01*
X54264733Y18606379D01*
X54470700Y18468756D01*
X54222627Y18263358D01*
X53996236Y17835347D01*
X53992405Y17797801D01*
X54117143Y17607280D01*
X56258460Y17607280D01*
X56258460Y17627280D01*
X56512460Y17627280D01*
X56512460Y17607280D01*
X58653777Y17607280D01*
X58778515Y17797801D01*
X58774684Y17835347D01*
X58548293Y18263358D01*
X58476976Y18322407D01*
X59341677Y18322407D01*
X59364164Y17632547D01*
X59584901Y17099641D01*
X59862132Y16988737D01*
X60907395Y18034000D01*
X61266605Y18034000D01*
X62311868Y16988737D01*
X62589099Y17099641D01*
X62832323Y17745593D01*
X62813521Y18322407D01*
X64421677Y18322407D01*
X64444164Y17632547D01*
X64664901Y17099641D01*
X64942132Y16988737D01*
X65987395Y18034000D01*
X64942132Y19079263D01*
X64664901Y18968359D01*
X64421677Y18322407D01*
X62813521Y18322407D01*
X62809836Y18435453D01*
X62589099Y18968359D01*
X62311868Y19079263D01*
X61266605Y18034000D01*
X60907395Y18034000D01*
X59862132Y19079263D01*
X59584901Y18968359D01*
X59341677Y18322407D01*
X58476976Y18322407D01*
X58300220Y18468756D01*
X58506187Y18606379D01*
X58773780Y19006860D01*
X58823907Y19258868D01*
X60041737Y19258868D01*
X61087000Y18213605D01*
X62132263Y19258868D01*
X62021359Y19536099D01*
X61375407Y19779323D01*
X60685547Y19756836D01*
X60152641Y19536099D01*
X60041737Y19258868D01*
X58823907Y19258868D01*
X58867746Y19479260D01*
X58773780Y19951660D01*
X58506187Y20352141D01*
X58314803Y20480020D01*
X58506187Y20607899D01*
X58773780Y21008380D01*
X58807000Y21175389D01*
X58807000Y20802691D01*
X58903673Y20569302D01*
X59082301Y20390673D01*
X59315690Y20294000D01*
X59531250Y20294000D01*
X59690000Y20452750D01*
X59690000Y21402000D01*
X59944000Y21402000D01*
X59944000Y20452750D01*
X60102750Y20294000D01*
X60318310Y20294000D01*
X60551699Y20390673D01*
X60730327Y20569302D01*
X60827000Y20802691D01*
X60827000Y21243250D01*
X60668250Y21402000D01*
X59944000Y21402000D01*
X59690000Y21402000D01*
X59670000Y21402000D01*
X59670000Y21656000D01*
X59690000Y21656000D01*
X59690000Y21676000D01*
X59944000Y21676000D01*
X59944000Y21656000D01*
X60668250Y21656000D01*
X60827000Y21814750D01*
X60827000Y22255309D01*
X60730327Y22488698D01*
X60728957Y22490068D01*
X60788431Y22577110D01*
X60839440Y22829000D01*
X60839440Y24029000D01*
X60795162Y24264317D01*
X60656090Y24480441D01*
X60443890Y24625431D01*
X60192000Y24676440D01*
X59442000Y24676440D01*
X59206683Y24632162D01*
X58990559Y24493090D01*
X58938583Y24417020D01*
X58406036Y24417020D01*
X58314803Y24477980D01*
X58506187Y24605859D01*
X58773780Y25006340D01*
X58867746Y25478740D01*
X58773780Y25951140D01*
X58506187Y26351621D01*
X58316703Y26478230D01*
X58506187Y26604839D01*
X58773780Y27005320D01*
X58867746Y27477720D01*
X58773780Y27950120D01*
X58506187Y28350601D01*
X58316703Y28477210D01*
X58506187Y28603819D01*
X58773780Y29004300D01*
X58867746Y29476700D01*
X58773780Y29949100D01*
X58613556Y30188892D01*
X61393824Y27408624D01*
X61649275Y27237937D01*
X61950600Y27178000D01*
X62394146Y27178000D01*
X62576071Y26905730D01*
X62890852Y26695400D01*
X62576071Y26485070D01*
X62251215Y25998889D01*
X62137141Y25425400D01*
X62251215Y24851911D01*
X62576071Y24365730D01*
X63062252Y24040874D01*
X63635741Y23926800D01*
X63694459Y23926800D01*
X64267948Y24040874D01*
X64754129Y24365730D01*
X64935100Y24636572D01*
X65116071Y24365730D01*
X65602252Y24040874D01*
X66175741Y23926800D01*
X66234459Y23926800D01*
X66807948Y24040874D01*
X67294129Y24365730D01*
X67310000Y24389483D01*
X67310000Y19356608D01*
X67212262Y19258870D01*
X67101359Y19536099D01*
X66455407Y19779323D01*
X65765547Y19756836D01*
X65232641Y19536099D01*
X65121737Y19258868D01*
X66167000Y18213605D01*
X66181143Y18227747D01*
X66360748Y18048142D01*
X66346605Y18034000D01*
X66360748Y18019857D01*
X66181143Y17840252D01*
X66167000Y17854395D01*
X65121737Y16809132D01*
X65232641Y16531901D01*
X65878593Y16288677D01*
X66568453Y16311164D01*
X67101359Y16531901D01*
X67212262Y16809130D01*
X67310000Y16711392D01*
X67310000Y14276608D01*
X67212262Y14178870D01*
X67101359Y14456099D01*
X66455407Y14699323D01*
X65765547Y14676836D01*
X65232641Y14456099D01*
X65121737Y14178868D01*
X66167000Y13133605D01*
X66181143Y13147747D01*
X66360748Y12968142D01*
X66346605Y12954000D01*
X66360748Y12939857D01*
X66181143Y12760252D01*
X66167000Y12774395D01*
X65121737Y11729132D01*
X65232641Y11451901D01*
X65878593Y11208677D01*
X66568453Y11231164D01*
X67101359Y11451901D01*
X67212262Y11729130D01*
X67310000Y11631392D01*
X67310000Y9553893D01*
X66524619Y9880011D01*
X65635481Y9880787D01*
X64813728Y9541245D01*
X64184464Y8913079D01*
X63843489Y8091919D01*
X63842713Y7202781D01*
X64182255Y6381028D01*
X64810421Y5751764D01*
X65631581Y5410789D01*
X66520719Y5410013D01*
X67310000Y5736138D01*
X67310000Y4751606D01*
X65051723Y2493329D01*
X65066059Y2565400D01*
X64951985Y3138889D01*
X64627129Y3625070D01*
X64140948Y3949926D01*
X63567459Y4064000D01*
X63508741Y4064000D01*
X62935252Y3949926D01*
X62449071Y3625070D01*
X62268100Y3354228D01*
X62087129Y3625070D01*
X61600948Y3949926D01*
X61027459Y4064000D01*
X60968741Y4064000D01*
X60395252Y3949926D01*
X59909071Y3625070D01*
X59728100Y3354228D01*
X59547129Y3625070D01*
X59060948Y3949926D01*
X58487459Y4064000D01*
X58428741Y4064000D01*
X57855252Y3949926D01*
X57369071Y3625070D01*
X57188100Y3354228D01*
X57007129Y3625070D01*
X56520948Y3949926D01*
X55947459Y4064000D01*
X55888741Y4064000D01*
X55315252Y3949926D01*
X54829071Y3625070D01*
X54648100Y3354228D01*
X54467129Y3625070D01*
X53980948Y3949926D01*
X53407459Y4064000D01*
X53348741Y4064000D01*
X52775252Y3949926D01*
X52289071Y3625070D01*
X52108100Y3354228D01*
X51927129Y3625070D01*
X51440948Y3949926D01*
X50867459Y4064000D01*
X50808741Y4064000D01*
X50235252Y3949926D01*
X49749071Y3625070D01*
X49424215Y3138889D01*
X49310141Y2565400D01*
X49424215Y1991911D01*
X49749071Y1505730D01*
X50235252Y1180874D01*
X50808741Y1066800D01*
X50867459Y1066800D01*
X51440948Y1180874D01*
X51927129Y1505730D01*
X52108100Y1776572D01*
X52289071Y1505730D01*
X52775252Y1180874D01*
X53348741Y1066800D01*
X53407459Y1066800D01*
X53980948Y1180874D01*
X54467129Y1505730D01*
X54648100Y1776572D01*
X54829071Y1505730D01*
X55315252Y1180874D01*
X55888741Y1066800D01*
X55947459Y1066800D01*
X56520948Y1180874D01*
X57007129Y1505730D01*
X57188100Y1776572D01*
X57369071Y1505730D01*
X57855252Y1180874D01*
X58428741Y1066800D01*
X58487459Y1066800D01*
X59060948Y1180874D01*
X59547129Y1505730D01*
X59728100Y1776572D01*
X59909071Y1505730D01*
X60395252Y1180874D01*
X60968741Y1066800D01*
X61027459Y1066800D01*
X61600948Y1180874D01*
X62087129Y1505730D01*
X62268100Y1776572D01*
X62449071Y1505730D01*
X62935252Y1180874D01*
X63508741Y1066800D01*
X63567459Y1066800D01*
X64140948Y1180874D01*
X64627129Y1505730D01*
X64770000Y1719551D01*
X64770000Y1016000D01*
X15619523Y1016000D01*
X15901736Y1297721D01*
X16242711Y2118881D01*
X16243487Y3008019D01*
X15903945Y3829772D01*
X15275779Y4459036D01*
X14454619Y4800011D01*
X13565481Y4800787D01*
X12743728Y4461245D01*
X12114464Y3833079D01*
X11773489Y3011919D01*
X11772713Y2122781D01*
X12112255Y1301028D01*
X12396786Y1016000D01*
X1524000Y1016000D01*
X1524000Y12903573D01*
X1686078Y12511314D01*
X2221495Y11974961D01*
X2921410Y11684332D01*
X3679265Y11683670D01*
X4379686Y11973078D01*
X4648299Y12241223D01*
X11023828Y12241223D01*
X11155520Y11946343D01*
X11863036Y11674739D01*
X12620632Y11694564D01*
X13228480Y11946343D01*
X13360172Y12241223D01*
X12192000Y13409395D01*
X11023828Y12241223D01*
X4648299Y12241223D01*
X4916039Y12508495D01*
X5206668Y13208410D01*
X5207287Y13917964D01*
X10277739Y13917964D01*
X10297564Y13160368D01*
X10549343Y12552520D01*
X10844223Y12420828D01*
X12012395Y13589000D01*
X12371605Y13589000D01*
X13539777Y12420828D01*
X13834657Y12552520D01*
X14106261Y13260036D01*
X14086436Y14017632D01*
X13834657Y14625480D01*
X13539777Y14757172D01*
X12371605Y13589000D01*
X12012395Y13589000D01*
X10844223Y14757172D01*
X10549343Y14625480D01*
X10277739Y13917964D01*
X5207287Y13917964D01*
X5207330Y13966265D01*
X4917922Y14666686D01*
X4648303Y14936777D01*
X11023828Y14936777D01*
X12192000Y13768605D01*
X13360172Y14936777D01*
X13228480Y15231657D01*
X12520964Y15503261D01*
X11763368Y15483436D01*
X11155520Y15231657D01*
X11023828Y14936777D01*
X4648303Y14936777D01*
X4382505Y15203039D01*
X3682590Y15493668D01*
X2924735Y15494330D01*
X2224314Y15204922D01*
X1687961Y14669505D01*
X1524000Y14274642D01*
X1524000Y37033573D01*
X1686078Y36641314D01*
X2221495Y36104961D01*
X2921410Y35814332D01*
X3679265Y35813670D01*
X4379686Y36103078D01*
X4916039Y36638495D01*
X5206668Y37338410D01*
X5207330Y38096265D01*
X4917922Y38796686D01*
X4382505Y39333039D01*
X3682590Y39623668D01*
X2924735Y39624330D01*
X2224314Y39334922D01*
X1687961Y38799505D01*
X1524000Y38404642D01*
X1524000Y41252339D01*
X10794758Y41252339D01*
X11006990Y40738697D01*
X11399630Y40345371D01*
X11912900Y40132243D01*
X12468661Y40131758D01*
X12982303Y40343990D01*
X13375629Y40736630D01*
X13588757Y41249900D01*
X13589242Y41805661D01*
X13377010Y42319303D01*
X12984370Y42712629D01*
X12471100Y42925757D01*
X11915339Y42926242D01*
X11401697Y42714010D01*
X11008371Y42321370D01*
X10795243Y41808100D01*
X10794758Y41252339D01*
X1524000Y41252339D01*
X1524000Y44961735D01*
X6476670Y44961735D01*
X6766078Y44261314D01*
X7301495Y43724961D01*
X8001410Y43434332D01*
X8759265Y43433670D01*
X9459686Y43723078D01*
X9728299Y43991223D01*
X16103828Y43991223D01*
X16235520Y43696343D01*
X16943036Y43424739D01*
X17700632Y43444564D01*
X18308480Y43696343D01*
X18440172Y43991223D01*
X17272000Y45159395D01*
X16103828Y43991223D01*
X9728299Y43991223D01*
X9996039Y44258495D01*
X10286668Y44958410D01*
X10287287Y45667964D01*
X15357739Y45667964D01*
X15377564Y44910368D01*
X15629343Y44302520D01*
X15924223Y44170828D01*
X17092395Y45339000D01*
X17451605Y45339000D01*
X18619777Y44170828D01*
X18914657Y44302520D01*
X19186261Y45010036D01*
X19166436Y45767632D01*
X18914657Y46375480D01*
X18619777Y46507172D01*
X17451605Y45339000D01*
X17092395Y45339000D01*
X15924223Y46507172D01*
X15629343Y46375480D01*
X15357739Y45667964D01*
X10287287Y45667964D01*
X10287330Y45716265D01*
X9997922Y46416686D01*
X9728303Y46686777D01*
X16103828Y46686777D01*
X17272000Y45518605D01*
X18440172Y46686777D01*
X18308480Y46981657D01*
X17600964Y47253261D01*
X16843368Y47233436D01*
X16235520Y46981657D01*
X16103828Y46686777D01*
X9728303Y46686777D01*
X9462505Y46953039D01*
X8762590Y47243668D01*
X8004735Y47244330D01*
X7304314Y46954922D01*
X6767961Y46419505D01*
X6477332Y45719590D01*
X6476670Y44961735D01*
X1524000Y44961735D01*
X1524000Y52630000D01*
X13922324Y52630000D01*
X13384464Y52093079D01*
G36*
X58345498Y30456950D02*
X58105706Y30617174D01*
X57633306Y30711140D01*
X55137614Y30711140D01*
X54665214Y30617174D01*
X54264733Y30349581D01*
X53997140Y29949100D01*
X53903174Y29476700D01*
X53997140Y29004300D01*
X54264733Y28603819D01*
X54454217Y28477210D01*
X54264733Y28350601D01*
X54207616Y28265120D01*
X52115720Y28265120D01*
X51814395Y28205183D01*
X51714400Y28138368D01*
X51714400Y28293889D01*
X51719192Y28298673D01*
X51861838Y28642201D01*
X51862162Y29014167D01*
X51720117Y29357943D01*
X51509990Y29568438D01*
X52375396Y30433844D01*
X52382167Y30433838D01*
X52725943Y30575883D01*
X52989192Y30838673D01*
X53131838Y31182201D01*
X53132162Y31554167D01*
X52990117Y31897943D01*
X52727327Y32161192D01*
X52383799Y32303838D01*
X52011833Y32304162D01*
X51668057Y32162117D01*
X51404808Y31899327D01*
X51262162Y31555799D01*
X51262155Y31547707D01*
X47904400Y28189952D01*
X47904400Y29772848D01*
X48308776Y30177224D01*
X48479463Y30432675D01*
X48539400Y30734000D01*
X48539400Y31373048D01*
X48721844Y31190604D01*
X48721838Y31183833D01*
X48863883Y30840057D01*
X49126673Y30576808D01*
X49470201Y30434162D01*
X49842167Y30433838D01*
X50185943Y30575883D01*
X50449192Y30838673D01*
X50591838Y31182201D01*
X50592162Y31554167D01*
X50450117Y31897943D01*
X50187327Y32161192D01*
X49843799Y32303838D01*
X49835707Y32303845D01*
X49809400Y32330152D01*
X49809400Y32387316D01*
X49865690Y32364000D01*
X50006250Y32364000D01*
X50165000Y32522750D01*
X50165000Y33622000D01*
X50419000Y33622000D01*
X50419000Y32522750D01*
X50577750Y32364000D01*
X50718310Y32364000D01*
X50951699Y32460673D01*
X51130327Y32639302D01*
X51227000Y32872691D01*
X51227000Y33463250D01*
X51068250Y33622000D01*
X50419000Y33622000D01*
X50165000Y33622000D01*
X50145000Y33622000D01*
X50145000Y33876000D01*
X50165000Y33876000D01*
X50165000Y33896000D01*
X50419000Y33896000D01*
X50419000Y33876000D01*
X51068250Y33876000D01*
X51227000Y34034750D01*
X51227000Y34391600D01*
X54410848Y34391600D01*
X58345498Y30456950D01*
X58345498Y30456950D01*
G37*
X58345498Y30456950D02*
X58105706Y30617174D01*
X57633306Y30711140D01*
X55137614Y30711140D01*
X54665214Y30617174D01*
X54264733Y30349581D01*
X53997140Y29949100D01*
X53903174Y29476700D01*
X53997140Y29004300D01*
X54264733Y28603819D01*
X54454217Y28477210D01*
X54264733Y28350601D01*
X54207616Y28265120D01*
X52115720Y28265120D01*
X51814395Y28205183D01*
X51714400Y28138368D01*
X51714400Y28293889D01*
X51719192Y28298673D01*
X51861838Y28642201D01*
X51862162Y29014167D01*
X51720117Y29357943D01*
X51509990Y29568438D01*
X52375396Y30433844D01*
X52382167Y30433838D01*
X52725943Y30575883D01*
X52989192Y30838673D01*
X53131838Y31182201D01*
X53132162Y31554167D01*
X52990117Y31897943D01*
X52727327Y32161192D01*
X52383799Y32303838D01*
X52011833Y32304162D01*
X51668057Y32162117D01*
X51404808Y31899327D01*
X51262162Y31555799D01*
X51262155Y31547707D01*
X47904400Y28189952D01*
X47904400Y29772848D01*
X48308776Y30177224D01*
X48479463Y30432675D01*
X48539400Y30734000D01*
X48539400Y31373048D01*
X48721844Y31190604D01*
X48721838Y31183833D01*
X48863883Y30840057D01*
X49126673Y30576808D01*
X49470201Y30434162D01*
X49842167Y30433838D01*
X50185943Y30575883D01*
X50449192Y30838673D01*
X50591838Y31182201D01*
X50592162Y31554167D01*
X50450117Y31897943D01*
X50187327Y32161192D01*
X49843799Y32303838D01*
X49835707Y32303845D01*
X49809400Y32330152D01*
X49809400Y32387316D01*
X49865690Y32364000D01*
X50006250Y32364000D01*
X50165000Y32522750D01*
X50165000Y33622000D01*
X50419000Y33622000D01*
X50419000Y32522750D01*
X50577750Y32364000D01*
X50718310Y32364000D01*
X50951699Y32460673D01*
X51130327Y32639302D01*
X51227000Y32872691D01*
X51227000Y33463250D01*
X51068250Y33622000D01*
X50419000Y33622000D01*
X50165000Y33622000D01*
X50145000Y33622000D01*
X50145000Y33876000D01*
X50165000Y33876000D01*
X50165000Y33896000D01*
X50419000Y33896000D01*
X50419000Y33876000D01*
X51068250Y33876000D01*
X51227000Y34034750D01*
X51227000Y34391600D01*
X54410848Y34391600D01*
X58345498Y30456950D01*
M02*
