G04 #@! TF.FileFunction,Soldermask,Bot*
%FSLAX46Y46*%
G04 Gerber Fmt 4.6, Leading zero omitted, Abs format (unit mm)*
G04 Created by KiCad (PCBNEW 4.0.7) date 05/12/18 01:40:03*
%MOMM*%
%LPD*%
G01*
G04 APERTURE LIST*
%ADD10C,0.100000*%
%ADD11C,2.940000*%
%ADD12C,1.924000*%
%ADD13R,2.100000X2.100000*%
%ADD14O,2.100000X2.100000*%
%ADD15C,2.600000*%
%ADD16C,2.400000*%
%ADD17O,2.127200X2.127200*%
%ADD18C,3.600000*%
G04 APERTURE END LIST*
D10*
D11*
X17272000Y37719000D03*
D12*
X17272000Y41529000D03*
D11*
X17272000Y45339000D03*
X3302000Y37719000D03*
X8382000Y45339000D03*
D12*
X12192000Y41529000D03*
D11*
X12192000Y13589000D03*
X16637000Y17399000D03*
X12827000Y21209000D03*
X3302000Y13589000D03*
X8382000Y21209000D03*
D13*
X56007000Y45339000D03*
D14*
X56007000Y42799000D03*
D13*
X59817000Y45339000D03*
D14*
X59817000Y42799000D03*
D13*
X63627000Y45339000D03*
D14*
X63627000Y42799000D03*
D15*
X61087000Y12954000D03*
X61087000Y18034000D03*
X66167000Y18034000D03*
X66167000Y12954000D03*
D16*
X63627000Y15494000D03*
D17*
X63665100Y25425400D03*
X66205100Y25425400D03*
X66205100Y27965400D03*
X63665100Y27965400D03*
X66205100Y30505400D03*
X50838100Y2565400D03*
X45758100Y2565400D03*
X43218100Y2565400D03*
X40678100Y2565400D03*
X38138100Y2565400D03*
X35598100Y2565400D03*
X33058100Y2565400D03*
X30518100Y2565400D03*
X63538100Y50825400D03*
X60998100Y50825400D03*
X58458100Y50825400D03*
X55918100Y50825400D03*
X53378100Y50825400D03*
X50838100Y50825400D03*
X48298100Y50825400D03*
X45758100Y50825400D03*
X26454100Y50825400D03*
X41694100Y50825400D03*
X39154100Y50825400D03*
X36614100Y50825400D03*
D18*
X66078100Y7645400D03*
X66078100Y35585400D03*
X15278100Y50825400D03*
X14008100Y2565400D03*
D17*
X18834100Y50825400D03*
X21374100Y50825400D03*
X23914100Y50825400D03*
X28994100Y50825400D03*
X31534100Y50825400D03*
X34074100Y50825400D03*
X27978100Y2565400D03*
X53378100Y2565400D03*
X55918100Y2565400D03*
X58458100Y2565400D03*
X60998100Y2565400D03*
X63538100Y2565400D03*
X63665100Y30505400D03*
D13*
X36957000Y45339000D03*
D14*
X36957000Y42799000D03*
M02*
