M48
;DRILL file {KiCad 4.0.7} date 05/12/18 01:40:06
;FORMAT={2:4/ absolute / inch / suppress leading zeros}
FMAT,2
INCH,TZ
T1C0.016
T2C0.039
T3C0.040
T4C0.050
T5C0.059
T6C0.067
T7C0.070
%
G90
G05
M72
T1
X11050Y16850
X14550Y10850
X16050Y12350
X19050Y14850
X19550Y12350
X20050Y14850
X20050Y11350
X20550Y12350
X20550Y9350
X21050Y15350
X21050Y13350
X21050Y9850
X21050Y7850
X23050Y5350
T2
X14550Y17850
X14550Y16850
X22050Y17850
X22050Y16850
X23550Y17850
X23550Y16850
X25050Y17850
X25050Y16850
T3
X7415Y20010
X8415Y20010
X9415Y20010
X10415Y20010
X11015Y1010
X11415Y20010
X12015Y1010
X12415Y20010
X13015Y1010
X13415Y20010
X14015Y1010
X14415Y20010
X15015Y1010
X15415Y20010
X16015Y1010
X16415Y20010
X17015Y1010
X18015Y20010
X18015Y1010
X19015Y20010
X20015Y20010
X20015Y1010
X21015Y20010
X21015Y1010
X22015Y20010
X22015Y1010
X23015Y20010
X23015Y1010
X24015Y20010
X24015Y1010
X25015Y20010
X25015Y1010
X25065Y12010
X25065Y11010
X25065Y10010
X26065Y12010
X26065Y11010
X26065Y10010
T4
X4800Y16350
X6550Y6850
X6800Y16350
T5
X25050Y6100
T6
X24050Y7100
X24050Y5100
X26050Y7100
X26050Y5100
T7
X1300Y14850
X1300Y5350
X3300Y17850
X3300Y8350
X4800Y5350
X5050Y8350
X6800Y17850
X6800Y14850
T0
M30
